<svg id="ff0911e9-cc20-4a46-834d-d98d333aebf3" data-name="Layer 1" xmlns="http://www.w3.org/2000/svg" width="865.76" height="682.89" viewBox="0 0 865.76 682.89"><g id="e53a42f7-052f-4ca9-8d78-944d9336dbeb" data-name="freesvgillustration--background-complete--inject-20"><rect x="12.36" y="588.96" width="841.04" height="0.42" fill="#e6e6e6"/><rect x="134.21" y="604.92" width="57.86" height="0.42" fill="#e6e6e6"/><rect x="496.7" y="607.91" width="17.29" height="0.42" fill="#e6e6e6"/><rect x="209.67" y="610.91" width="32.57" height="0.42" fill="#e6e6e6"/><rect x="675.29" y="609.92" width="43.2" height="0.42" fill="#e6e6e6"/><rect x="616.33" y="603.94" width="29.5" height="0.42" fill="#e6e6e6"/><rect x="314.82" y="603.27" width="157.58" height="0.42" fill="#e6e6e6"/><path d="M411,513.94H86.22a9.61,9.61,0,0,1-9.59-9.61V47.76a9.61,9.61,0,0,1,9.59-9.52H411a9.61,9.61,0,0,1,9.61,9.61h0V504.33A9.61,9.61,0,0,1,411,513.94ZM86.22,38.58a9.18,9.18,0,0,0-9.17,9.18V504.33a9.19,9.19,0,0,0,9.17,9.19H411a9.21,9.21,0,0,0,9.19-9.19V47.76A9.2,9.2,0,0,0,411,38.58Z" fill="#e6e6e6"/><path d="M774.87,513.94H450.06a9.63,9.63,0,0,1-9.61-9.61V47.76a9.63,9.63,0,0,1,9.61-9.52H774.87a9.61,9.61,0,0,1,9.57,9.52V504.33A9.61,9.61,0,0,1,774.87,513.94ZM450.06,38.58a9.2,9.2,0,0,0-9.19,9.18V504.33a9.21,9.21,0,0,0,9.19,9.19H774.87a9.2,9.2,0,0,0,9.18-9.19V47.76a9.19,9.19,0,0,0-9.18-9.18Z" fill="#e6e6e6"/><path d="M590.7,424.47h0c-.93,0-1.85,0-2.8.08a39.82,39.82,0,0,0-35.59,50.09,199.5,199.5,0,0,1,6.24,51.88v50.93a6.73,6.73,0,0,0,6.73,6.73H726.94V424.47Z" fill="#f0f0f0"/><path d="M766.66,464.28a39.82,39.82,0,1,0-78.27,10.36,199.5,199.5,0,0,1,6.24,51.88v50.93a6.73,6.73,0,0,0,6.73,6.73h51a6.73,6.73,0,0,0,6.73-6.73V523.52a181.57,181.57,0,0,1,6.16-48.59A39.85,39.85,0,0,0,766.66,464.28Z" fill="#fafafa"/><rect x="387.68" y="487.19" width="284.29" height="96.94" fill="#f0f0f0"/><path d="M297.89,371.06H571a30.14,30.14,0,0,1,30.07,30.14V509.11H267.75V401.2A30.14,30.14,0,0,1,297.89,371.06Z" fill="#e6e6e6"/><path d="M334.38,371.06h276a28.68,28.68,0,0,1,28.68,28.68V509.07H305.7V399.74a28.68,28.68,0,0,1,28.68-28.68Z" fill="#fafafa"/><path d="M397.19,478.34H670.06a8.74,8.74,0,0,1,8.74,8.75h0v22a8.74,8.74,0,0,1-8.74,8.75H397.19a2.61,2.61,0,0,1-2.61-2.61V481A2.61,2.61,0,0,1,397.19,478.34Z" fill="#e6e6e6"/><path d="M253.44,424.47h0c-.93,0-1.85,0-2.8.08A39.87,39.87,0,0,0,215,474.63a199,199,0,0,1,6.24,51.87v50.93a6.73,6.73,0,0,0,6.73,6.73H389.62V424.47Z" fill="#f0f0f0"/><path d="M429.4,464.28a39.82,39.82,0,1,0-78.27,10.36,199.07,199.07,0,0,1,6.24,51.88v50.93a6.73,6.73,0,0,0,6.73,6.73h51a6.73,6.73,0,0,0,6.73-6.73V523.52A181.57,181.57,0,0,1,428,474.93,39.85,39.85,0,0,0,429.4,464.28Z" fill="#fafafa"/><path d="M724,589H256.26a4.84,4.84,0,0,1-4.84-4.84H728.93a4.84,4.84,0,0,1-4.84,4.84Z" fill="#e0e0e0"/><rect x="214.04" y="134.68" width="287.89" height="140.19" fill="#e0e0e0"/><rect x="223.66" y="134.68" width="292.09" height="140.19" fill="#f5f5f5"/><rect x="234.71" y="145.73" width="269.99" height="118.1" fill="#fff"/><rect x="261.33" y="174.34" width="216.77" height="60.84" rx="19.87" fill="#f5f5f5"/><rect x="570.83" y="219.72" width="68.58" height="71.05" fill="#e0e0e0"/><rect x="579.56" y="219.72" width="66.85" height="71.05" fill="#f5f5f5"/><rect x="585.16" y="225.32" width="55.64" height="59.87" fill="#fff"/><polygon points="612.98 240.13 597.76 266.48 628.21 266.48 612.98 240.13" fill="#f5f5f5"/><rect x="662.22" y="173.14" width="68.58" height="71.05" fill="#e0e0e0"/><rect x="670.96" y="173.14" width="66.85" height="71.05" fill="#f5f5f5"/><rect x="676.57" y="178.75" width="55.64" height="59.87" fill="#fff"/><path d="M711.18,219.35l6.61-11.44A7.85,7.85,0,0,0,711,196.14h-13.2A7.85,7.85,0,0,0,691,207.91l6.61,11.44a7.84,7.84,0,0,0,13.6,0Z" fill="#f5f5f5"/><rect x="71.32" y="463.81" width="37.96" height="117.7" fill="#e6e6e6"/><rect x="78.6" y="581.51" width="187.18" height="7.45" fill="#e6e6e6"/><rect x="109.28" y="463.81" width="163.8" height="117.7" fill="#fafafa"/><rect x="124.2" y="478.29" width="133.96" height="38.6" fill="#f0f0f0"/><rect x="124.2" y="528.4" width="133.96" height="38.6" fill="#f0f0f0"/><path d="M207.28,500.24h-32.2a2.65,2.65,0,0,1-2.64-2.65h0a2.65,2.65,0,0,1,2.64-2.64h32.2a2.65,2.65,0,0,1,2.64,2.64h0A2.65,2.65,0,0,1,207.28,500.24Z" fill="#fafafa"/><path d="M207.28,550.35h-32.2a2.64,2.64,0,0,1-2.64-2.64h0a2.64,2.64,0,0,1,2.64-2.64h32.2a2.64,2.64,0,0,1,2.64,2.64h0a2.64,2.64,0,0,1-2.64,2.64Z" fill="#fafafa"/><path d="M160.15,377.47H138.28c.62,21.19-9.05,33.17-9.05,58.11,0,22.44,5.48,26.65,20,26.65s20-4.21,20-26.65C169.2,410.64,159.51,398.66,160.15,377.47Z" fill="#fafafa"/><path d="M141.26,461.42h15.88v1.35a1,1,0,0,1-1,1H142.3a1,1,0,0,1-1-1v-1.35Z" fill="#f3f7ff"/><rect x="123.43" y="385.19" width="1.68" height="32.18" fill="#e0e0e0"/><polygon points="183.95 395.31 114.43 395.31 126.36 324.06 172.04 324.06 183.95 395.31" fill="#ebebeb"/></g><path d="M438.81,449.27s-24.42,21.09-22.76,56.06c0,0,1.17,46.91,47.4,79,0,0,37.9,26.65,100.78,29.15,0,0,72.74,5.26,123.28-27.28a98.11,98.11,0,0,0,35.66-41.4c8.78-18.95,19.7-49.94,13.89-77.91,0,0-2.08-12.36-14.3-36.23l-21.1-45s-22.07-56.22-37.48-74.13c0,0-19.29-32.53-45.26-23a17.51,17.51,0,0,0-6.24,4.08C597,308.26,508.24,396.5,489.27,409.4,489.27,409.4,448.37,438.09,438.81,449.27Z" fill="#ccc"/><path d="M593.18,610.28c-46.52-4.71-55.31-59.55-55.39-60.1-1.76-16.67,1.81-30.11,10.59-40,15-16.86,40.45-17.32,40.71-17.32L591,493h.85c23.05,0,44.22-14.74,52.85-36.91,13.81-35.48,11.14-76.38,6.48-104.44-5.19-31.18-14-54-15.11-55.22a.36.36,0,0,0,.26.09v-1a.77.77,0,0,1,.6.4c3.09,4.53,35.13,92.52,8.67,160.49-8.88,22.82-30.85,37.94-54.62,37.53l-1.95-.06c-.22,0-25.24.46-40,17-8.59,9.65-12.07,22.83-10.35,39.2.08.52,8.76,54.62,54.53,59.26Z" fill="#3f3d56"/><path d="M472,584.86c-.37-.09-9.26-2.37-17.69-12.42-7.74-9.24-16.45-27.08-14-59.6,0-.22.7-24.49,16.59-39.38,8.87-8.32,20.74-12.21,35.31-11.6a103.94,103.94,0,0,0,19-1c27.87-3.93,76-18,85.05-68,.2-.82,19.65-79.38,22.57-94.56l1,.18c-2.92,15.21-22.38,93.79-22.57,94.58-4.07,22.45-16.46,40.08-36.82,52.36-17,10.26-36.07,14.6-49.05,16.44a105.73,105.73,0,0,1-19.14,1c-14.29-.61-25.93,3.2-34.6,11.33-15.59,14.61-16.28,38.49-16.29,38.73-2.43,32.17,6.13,49.77,13.73,58.87,8.22,9.84,17.14,12.13,17.22,12.15Z" fill="#3f3d56"/><path d="M690.84,452.89s-13.92-3.41-48.7,26.05c0,0-22.95,27.47-112.36,18,0,0-82.45-10.94-83.44-35.29,0,0-10.93-23.74,48.7-24.54,0,0,81-12.12,104.36,0C599.4,437.14,658,416.77,690.84,452.89Z" fill="#231f20" opacity="0.2"/><path d="M509.82,366.23l-14.94,14.68a25.91,25.91,0,0,1-4.29,3.46l-.33.21a16,16,0,0,1-20.32-3.2l-32.59-37.23s8.61-14.29,16.94-22.07L479,337.35s33.73-52.52,49.6-46.91a3.94,3.94,0,0,0,2.56.08c3.65-1.21,13.69-4.41,19.75-5.09,0,0-10.83,18.61,9.44,50.53,0,0,18.6-26.65,10.82-50.53,0,0,32.57,3.89,37.94,8.61a365.47,365.47,0,0,1,54.52,42.2,16,16,0,0,1,1.29,1.12,23.68,23.68,0,0,1-2,36,215.29,215.29,0,0,1-46.25,27l-13.32-22.48,19.16-18.33s-17.22-6.38-13.61-22.21" fill="#5ee0be"/><path d="M534,417c39.67,11.48,85.19-8.63,85.19-8.63l-10.12-17.49" fill="#3f3d56"/><path d="M545.24,477.59s-14.32,3-27.44,0l5.83-21.76s5.47,4.2,17.42,1.27C541.05,457.1,539.38,468.75,545.24,477.59Z" fill="#f9b499"/><path d="M473,552.66l10.41,57.14s1.25,6.37,4.79,9.91l6,7.7A16,16,0,0,0,493,615.33l-.14-.23a6.39,6.39,0,0,1,.29-6.6,18,18,0,0,0,2.92-8.33,15.17,15.17,0,0,1,2.33-7c1.2-1.8,2.79-3.64,4.59-4.3,0,0,10.83-6.25,3.54-14.37,0,0-15.2-7.7-11.66-21.86C494.89,552.66,489.06,555.78,473,552.66Z" fill="#f9b499"/><path d="M439.35,341l-7.71-8.82a9,9,0,0,0-6.46-3.15,4.53,4.53,0,0,0-3.37,1.11l-.38.2a10.72,10.72,0,0,1-12.26-1.88L407.6,327a19.25,19.25,0,0,0-4-2.93c-2.6-1.49-6.84-5.07-4.05-11.66l6.41-4.85a5.38,5.38,0,0,1,5.8-.44l37.5,20.33Z" fill="#f9b499"/><path d="M549.71,288.3l.79-15L571,272.09l.62,14.71s7.7,18.94-11.24,49.16C560.35,336,542.3,310.3,549.71,288.3Z" fill="#f9b499"/><path d="M612.74,416.33c-13.26,5.45-52.93,33-52.93,33-19.86,15.19-37,9.38-37,9.38,4.8-28.88-6.87-41.69-6.87-41.69Z" fill="#183153"/><path d="M495.66,550.58c-1.18,6.77-22.63,2.08-22.63,2.08s-14.58-92.45,9.16-129.52c0,0,9.86-15,27.07-10.55,0,0,13.17.2,17,19.12a46.27,46.27,0,0,1,.07,17.16c-2.05,11.54-7.22,37.81-14.37,54C512,502.89,497.86,537.87,495.66,550.58Z" fill="#183153"/><path d="M545.24,477.59c-4.93-5.31-4.19-20.49-4.19-20.49s9.62-2.42,16.2-7.73c1.52-1.23,3-2.43,4.67-3.51,14.32-9.52,76.5-49.6,97.82-43,0,0,15.82,3.34,17.21,18.61,0,0,3.61,19-15.82,28.81C661.13,450.29,627,472.08,545.24,477.59Z" fill="#183153"/><path d="M612.74,416.33c-13.26,5.45-52.93,33-52.93,33-19.86,15.19-37,9.38-37,9.38,4.8-28.88-6.87-41.69-6.87-41.69Z" fill="#231f20" opacity="0.2"/><polygon points="503.99 414.53 489.83 337.35 623.65 337.35 610.88 414.53 503.99 414.53" fill="#ccc"/><polygon points="503.99 414.53 489.83 337.35 623.65 337.35 610.88 414.53 503.99 414.53" fill="#231f20" opacity="0.1"/><rect x="503.99" y="414.53" width="106.8" height="2.46" fill="#e4e4e4"/><rect x="503.99" y="414.53" width="106.8" height="2.46" fill="#231f20" opacity="0.3"/><path d="M373.45,186.13V593.2H623.92V186.13ZM602.22,576.88H380.43V202.43H602.18Z" fill="#407bff"/><path d="M373.45,186.13V593.2H623.92V186.13ZM602.22,576.88H380.43V202.43H602.18Z" fill="#fff" opacity="0.6" style="isolation:isolate"/><rect x="378.1" y="202.43" width="2.34" height="374.45" fill="#fff"/><rect x="378.1" y="202.43" width="2.34" height="374.45" fill="#f0f0f0"/><path d="M650.17,90.84H198.11a14.79,14.79,0,0,0-14.75,14.68v524.4a14.79,14.79,0,0,0,14.75,14.73H650.17a14.77,14.77,0,0,0,14.74-14.73V105.52A14.77,14.77,0,0,0,650.17,90.84ZM380.43,202.43H602.18V576.88H380.43Z" fill="#5ee0be"/><path d="M650.17,90.84H198.11a14.79,14.79,0,0,0-14.75,14.68v524.4a14.79,14.79,0,0,0,14.75,14.73H650.17a14.77,14.77,0,0,0,14.74-14.73V105.52A14.77,14.77,0,0,0,650.17,90.84ZM380.43,202.43H602.18V576.88H380.43Z" opacity="0.5" style="isolation:isolate"/><path d="M646.26,90.84H194.19a14.79,14.79,0,0,0-14.75,14.68v524.4a14.79,14.79,0,0,0,14.75,14.73H646.26A14.79,14.79,0,0,0,661,629.92V105.52A14.79,14.79,0,0,0,646.26,90.84ZM380.48,202.43h221.7V576.88H380.43Z" fill="#183153"/><path d="M646.26,90.84H194.19a14.79,14.79,0,0,0-14.75,14.68v524.4a14.79,14.79,0,0,0,14.75,14.73H646.26A14.79,14.79,0,0,0,661,629.92V105.52A14.79,14.79,0,0,0,646.26,90.84ZM380.48,202.43h221.7V576.88H380.43Z" opacity="0.2" style="isolation:isolate"/><path d="M179.44,129v501a14.79,14.79,0,0,0,14.75,14.73H646.26A14.79,14.79,0,0,0,661,629.92V129Zm201,73.47H602.18V576.88H380.43Z" fill="#183153"/><path d="M179.44,129v501a14.79,14.79,0,0,0,14.75,14.73H646.26A14.79,14.79,0,0,0,661,629.92V129Zm201,73.47H602.18V576.88H380.43Z" fill="#fff" opacity="0.1" style="isolation:isolate"/><path d="M182.25,148.55v476.5h476V148.55Zm420,428.33H380.43V202.43H602.18Z" fill="#fff"/><circle cx="628.64" cy="110" r="7.84" fill="#fff" style="isolation:isolate"/><circle cx="600.87" cy="110" r="7.84" fill="#fff" style="isolation:isolate"/><path d="M565.26,110a7.84,7.84,0,1,0,7.84-7.84h0A7.84,7.84,0,0,0,565.26,110Z" fill="#fff" style="isolation:isolate"/><path d="M670.8,186.13h-1.69V174.36h1.69Zm0-22h-1.69v-38.4h1.69Z" fill="#5ee0be"/><path d="M670.8,186.13h-1.69V174.36h1.69Zm0-22h-1.69v-38.4h1.69Z" opacity="0.4" style="isolation:isolate"/><rect x="261.36" y="283.44" width="47.42" height="23.57" fill="#183153"/><rect x="227.48" y="439.02" width="87.74" height="23.57" fill="#183153"/><rect x="148.61" y="166.75" width="181.45" height="23.57" fill="#183153"/><rect x="148.61" y="205.64" width="146.61" height="23.57" fill="#183153"/><rect x="148.61" y="244.53" width="166.61" height="23.57" fill="#183153"/><rect x="148.61" y="283.44" width="93.05" height="23.57" fill="#183153"/><rect x="148.61" y="322.33" width="166.61" height="23.57" fill="#183153"/><rect x="148.61" y="361.22" width="181.45" height="23.57" fill="#183153"/><rect x="148.61" y="400.13" width="127.91" height="23.57" fill="#183153"/><rect x="148.61" y="439.02" width="59.19" height="23.57" fill="#183153"/><circle cx="183.2" cy="536.04" r="40.2" transform="translate(-375.76 628.07) rotate(-80.48)" fill="#183153"/><circle cx="183.2" cy="536.04" r="40.2" transform="translate(-375.76 628.07) rotate(-80.48)" fill="#fff" opacity="0.2" style="isolation:isolate"/><path d="M187.3,529.06c-9.56-2.93-15.48-13.32-15.48-13.32s-3-.17-3.16,2.55a13.33,13.33,0,0,0,4,9.93L168,528a15.32,15.32,0,0,0-4.86.53l-1.54.4A5,5,0,0,0,158.1,535l2.28,8.93a11.11,11.11,0,0,0,12.4,8.41c4.68-.69,12-1.68,13.22-2h0l3.37-.27,1.12-20Z" fill="#fff"/><rect x="187.58" y="526.28" width="16.5" height="26.38" rx="1.82" fill="#183153"/><circle cx="285.13" cy="536.05" r="40.2" fill="#183153"/><circle cx="285.13" cy="536.05" r="40.2" fill="#fff" opacity="0.2" style="isolation:isolate"/><path d="M305.16,521.67a14.17,14.17,0,0,0-20,0h0a14.17,14.17,0,0,0-20,20l20,20,20-20A14.2,14.2,0,0,0,305.16,521.67Z" fill="#183153"/><path d="M361.81,186.13V593.2H618.47V186.13ZM602.18,576.88H380.43V202.43H602.18Z" fill="#183153"/><path d="M361.81,186.13V593.2H618.47V186.13ZM602.18,576.88H380.43V202.43H602.18Z" fill="#fff" opacity="0.1" style="isolation:isolate"/><path d="M550.16,279.75l.21-4.07A12.92,12.92,0,0,0,564,279S558.53,285.77,550.16,279.75Z" fill="#f4a48e"/><ellipse cx="559.8" cy="257.62" rx="16.34" ry="22.13" fill="#f9b499"/><path d="M545.44,247.07c-4.32,15.17,4.93,28.61,4.93,28.61l-.51,9.75c-4.36.32-20.08,5.56-20.08,5.56-9.34-5.1-25.4,13.49-25.4,13.49-7.24-19.05,9.18-26.39,9.18-26.39a11.85,11.85,0,0,0,5.48-6.88,15.94,15.94,0,0,0-1.36-12.74,24.2,24.2,0,0,1-2.75-16.15c3.58-17.61,18-19.15,23.89-19a7.65,7.65,0,0,0,4.91-1.63l11.1-8.72c8.53-6.72,16.82-3.67,21.84-.43a26.65,26.65,0,0,1,6.23,5.76c5.54,6.89,15,14.73,15,14.73,4.66,2.77,4.18,9.07,3.1,13.57a36.38,36.38,0,0,1-2.36,6.37c-3.72,8.13,6.91,11.49,6.91,11.49l.31,0A14.33,14.33,0,0,1,618,282.83c-2.43,8.32-7.58,12-7.58,12l-3.74-2.23c-5.48-3.33-35.54-7.21-35.54-7.21L571,273.68c6.27-7.73,5.1-18.13,5.1-18.13-.62-7.65-3-7-3-7s-11.49-3.49-18.31-12A18.86,18.86,0,0,0,545.44,247.07Z" fill="#183153"/></svg>