<svg id="b17a24f0-cf0b-4ad5-8216-c3bba3c11200" data-name="Layer 1" xmlns="http://www.w3.org/2000/svg" xmlns:xlink="http://www.w3.org/1999/xlink" width="865.76" height="682.89" viewBox="0 0 865.76 682.89"><defs><clipPath id="e2abd224-4545-4596-a827-00b5f7056a65"><path id="abc244a1-075b-425c-88cb-321e8258d97c" data-name="SVGID" d="M94.9,331.56H591a0,0,0,0,1,0,0v16.79a3.38,3.38,0,0,1-3.38,3.38H98.28a3.38,3.38,0,0,1-3.38-3.38V331.56A0,0,0,0,1,94.9,331.56Z" fill="#c2c3c4"/></clipPath></defs><g id="a08c47f5-93f0-415c-9d85-7af72d69c4da" data-name="freesvgillustration--background-simple--inject-1"><path d="M853,509.14c18.29-137.44-70.45-320.08-162.3-395.5C524.79-22.53,386.91,3.8,279.66,52.55S157.21,264.18,83.15,337.85-33,510.59,79.34,609.25,282.4,657.76,399.76,651.5s273.2,43,357.45.17C816.05,621.78,845,570,853,509.14Z" fill="#5ee0be"/><path d="M853,509.14c18.29-137.44-70.45-320.08-162.3-395.5C524.79-22.53,386.91,3.8,279.66,52.55S157.21,264.18,83.15,337.85-33,510.59,79.34,609.25,282.4,657.76,399.76,651.5s273.2,43,357.45.17C816.05,621.78,845,570,853,509.14Z" fill="#fff" opacity="0.8" style="isolation:isolate"/></g><g id="a8dca2c9-e5ea-4bc1-81c0-d528701f9092" data-name="freesvgillustration--Floor--inject-1"><path d="M20.76,532.35C31.23,557.69,50,583.49,79.34,609.21c112.34,98.63,203.06,48.51,320.42,42.25s273.2,43,357.45.17c51.18-26,79.77-68.67,91.66-119.32Z" fill="#5ee0be"/><path d="M20.76,532.35C31.23,557.69,50,583.49,79.34,609.21c112.34,98.63,203.06,48.51,320.42,42.25s273.2,43,357.45.17c51.18-26,79.77-68.67,91.66-119.32Z" fill="#fff" opacity="0.5" style="isolation:isolate"/></g><path d="M411.89,465.44c-11.85-18.14-10.13-44.05,4-60.45,4.39-5.09,10.54-9.51,17.24-8.94,6.86.59,12.39,6.47,14.47,13s1.37,13.67.14,20.44c-1.72,9.49-4.59,19.2-11.17,26.25s-16.26,14.28-24.72,9.66" fill="#a7a9ac"/><path d="M418.45,552.74A27.09,27.09,0,0,1,426,522c2.72-2.22,6.29-4,9.69-3s5.8,4.45,6.28,8-.54,7.17-1.79,10.55c-1.74,4.73-4.1,9.48-8.13,12.51s-9.67,5.89-13.61,2.74" fill="#a7a9ac"/><path d="M389.86,546.51c3.26-16.08-5.22-33.82-19.77-41.39-4.52-2.35-10.08-3.74-14.64-1.46s-6.9,8-6.53,13.23,2.87,10,5.63,14.42c3.87,6.19,8.61,12.21,15.21,15.33s15.44,5.5,20.1-.13" fill="#a7a9ac"/><path d="M391.91,503c5.68-18.32-4-40.53-20-51-5-3.26-11.29-5.53-16.85-3.41s-9,8.52-9.15,14.61,2.17,12,4.86,17.44c3.77,7.65,8.58,15.22,15.9,19.61S385.83,509,391.91,503" fill="#a7a9ac"/><path d="M403.31,592.58a4.34,4.34,0,0,1-.18-.89c-.1-.66-.23-1.51-.38-2.55-.08-.57-.17-1.18-.26-1.85l-.42-2.18c-.3-1.56-.61-3.35-1.12-5.28-.24-1-.48-2-.74-3.06l-1-3.27c-.61-2.27-1.51-4.62-2.36-7.13a125.09,125.09,0,0,0-16.23-30.25C379,534,377.58,532,376,530.21c-.76-.89-1.49-1.76-2.19-2.6l-2.14-2.3c-1.33-1.5-2.65-2.75-3.79-3.86l-1.58-1.55-1.4-1.24L363,516.93a3.79,3.79,0,0,1-.63-.64,4.21,4.21,0,0,1,.73.52l2,1.62,1.45,1.19,1.63,1.52c1.17,1.08,2.52,2.31,3.89,3.79l2.18,2.28,2.24,2.59c1.59,1.76,3.08,3.81,4.73,5.9a119.42,119.42,0,0,1,16.33,30.43c.83,2.52,1.71,4.9,2.3,7.19.32,1.14.63,2.24.92,3.3s.47,2.1.7,3.08c.48,2,.75,3.76,1,5.34.12.78.24,1.51.35,2.2s.14,1.29.2,1.86c.09,1,.17,1.91.23,2.58A3.41,3.41,0,0,1,403.31,592.58Z" fill="#bcbec0"/><path d="M402.89,595.87a1.63,1.63,0,0,1,0-.36c0-.29.05-.64.08-1.06.09-1,.22-2.36.38-4.07.08-.89.18-1.87.29-2.94s.11-2.25.17-3.51c.1-2.52.34-5.38.25-8.55q0-2.39,0-5c0-1.72-.18-3.52-.26-5.38-.13-3.73-.64-7.68-1.08-11.84a169.26,169.26,0,0,0-15.44-52c-1.89-3.74-3.62-7.33-5.55-10.52-.94-1.61-1.78-3.2-2.71-4.66l-2.69-4.18c-1.66-2.71-3.42-5-4.87-7-.74-1-1.4-2-2.06-2.84l-1.84-2.31L365,466.37l-.64-.84a1.5,1.5,0,0,1-.2-.31s.1.08.26.26l.7.79,2.65,3.12,1.9,2.27c.68.85,1.36,1.8,2.12,2.81,1.49,2,3.29,4.29,5,7l2.74,4.17c.95,1.46,1.8,3.05,2.76,4.66,2,3.19,3.72,6.78,5.64,10.53a166,166,0,0,1,15.5,52.26c.43,4.19.91,8.16,1,11.9.07,1.87.22,3.68.22,5.41s0,3.4,0,5c.05,3.19-.23,6.06-.36,8.58-.09,1.26-.14,2.43-.24,3.51l-.36,2.94c-.22,1.71-.4,3.06-.52,4.06-.07.42-.12.77-.16,1S402.91,595.88,402.89,595.87Z" fill="#bcbec0"/><path d="M433.76,418a1.41,1.41,0,0,1-.15.34c-.14.26-.3.57-.51.95-.49.89-1.17,2.09-2,3.62-.43.79-.95,1.64-1.46,2.62s-1,2-1.58,3.19-1.19,2.36-1.83,3.66-1.21,2.72-1.86,4.19-1.35,3-2,4.64l-2,5.1-1,2.7-1,2.82-2,5.89c-2.51,8.12-4.89,17.17-6.91,26.79s-3.31,18.88-4.32,27.34-1.5,16.1-1.68,22.54c-.16,3.22-.19,6.13-.2,8.68s0,4.76,0,6.56,0,3.14,0,4.15v1.08c0,.25,0,.37,0,.37a1.45,1.45,0,0,1-.05-.36c0-.29,0-.65-.07-1.08-.05-1-.12-2.4-.21-4.15s-.14-4-.14-6.57,0-5.48.09-8.7c.11-6.45.69-14.11,1.52-22.6s2.32-17.77,4.27-27.42,4.43-18.71,7-26.85q1-3,2-5.9l1-2.82c.35-.91.71-1.81,1.05-2.7l2-5.1c.67-1.63,1.4-3.16,2.06-4.63s1.27-2.88,1.91-4.19,1.3-2.5,1.89-3.64l1.65-3.17c.52-1,1.06-1.81,1.52-2.59l2.16-3.55.57-.91A2.65,2.65,0,0,1,433.76,418Z" fill="#bcbec0"/><path d="M429.73,529.24a14.51,14.51,0,0,1-1.26,2.22c-.86,1.38-2.06,3.43-3.45,6s-2.94,5.69-4.49,9.22a124.56,124.56,0,0,0-4.36,11.77c-1.3,4.26-2.29,8.39-3,12.17s-1.21,7.24-1.49,10.15-.47,5.27-.53,6.9a17.69,17.69,0,0,1-.21,2.54,16,16,0,0,1-.1-2.55c0-1.64.07-4,.29-6.94s.66-6.4,1.34-10.23a112.81,112.81,0,0,1,3-12.27,115.9,115.9,0,0,1,4.44-11.83,101.94,101.94,0,0,1,4.67-9.19c1.46-2.55,2.73-4.56,3.68-5.9A16.3,16.3,0,0,1,429.73,529.24Z" fill="#bcbec0"/><polygon points="380.02 584.42 432.11 584.42 425.81 637.62 386.51 637.62 380.02 584.42" fill="#d1d3d4"/><polygon points="381.92 635.14 386.35 640.88 425.81 640.88 430.36 635.32 381.92 635.14" fill="#d1d3d4"/><path d="M430.08,600.06c0,.22-10.81.39-24.14.39s-24.14-.17-24.14-.39,10.81-.38,24.14-.38S430.08,599.85,430.08,600.06Z" fill="#fafafa"/><path d="M430.08,603.61c0,.21-10.81.38-24.14.38s-24.14-.17-24.14-.38,10.81-.39,24.14-.39S430.08,603.39,430.08,603.61Z" fill="#fafafa"/><path d="M429.43,607c0,.21-10.43.38-23.29.38s-23.3-.17-23.3-.38,10.43-.39,23.3-.39S429.43,606.82,429.43,607Z" fill="#fafafa"/><path d="M555.32,331.42H131.79l.08-262A17.48,17.48,0,0,1,149.35,51.9H537.92A17.48,17.48,0,0,1,555.4,69.38Z" fill="#d1d3d4"/><path id="b9af9efd-df5f-4752-ad47-26d623437443" data-name="SVGID" d="M94.9,331.56H591a0,0,0,0,1,0,0v16.79a3.38,3.38,0,0,1-3.38,3.38H98.28a3.38,3.38,0,0,1-3.38-3.38V331.56A0,0,0,0,1,94.9,331.56Z" fill="#c2c3c4"/><g clip-path="url(#e2abd224-4545-4596-a827-00b5f7056a65)"><path d="M306.9,331.36h72.29a0,0,0,0,1,0,0v3.55a4,4,0,0,1-4,4H310.9a4,4,0,0,1-4-4v-3.55A0,0,0,0,1,306.9,331.36Z" fill="#fafafa" opacity="0.2"/><rect x="94.9" y="345.34" width="496.71" height="10.66" opacity="0.2"/></g><rect x="153.37" y="70.98" width="379.64" height="242.84" fill="#e6e7e8"/><path d="M170.84,42.88h344a5.48,5.48,0,0,1,5.48,5.48V243.13a5.48,5.48,0,0,1-5.48,5.48h-344a4.21,4.21,0,0,1-4.21-4.21V47.09A4.21,4.21,0,0,1,170.84,42.88Z" fill="#5ee0be"/><path d="M171.93,234.29l4.13,10.28S278.92,207,342.66,243.3C342.66,243.3,314.38,192.59,171.93,234.29Z" fill="#bcbec0"/><path d="M177.7,244.57l331.55-1.14a.33.33,0,0,0,.17-.61c-8.3-4.79-67.7-35.69-166.76.48,0,0-29.69-21.32-92.41-14.84,0,0-24.83.26-72.61,15.61A.25.25,0,0,0,177.7,244.57Z" fill="#d1d3d4"/><rect x="286.28" y="268.54" width="105.57" height="21.11" rx="5.59" fill="#c2c3c4"/><path d="M510.42,243.43l5.26-10.52-.81-183.29C410.08,4.7,342.66,42.35,342.66,42.35,286.46,5.23,171.4,49.24,171.4,49.24l.53,185s126.73-41.36,170.73,9C342.66,243.3,430.71,205.12,510.42,243.43Z" fill="#e6e7e8"/><path d="M195.23,60.71S276.74,33,337.67,56.36" fill="none" stroke="#d1d3d4" stroke-miterlimit="10"/><path d="M195.23,78.52s81.51-27.7,142.44-4.35" fill="none" stroke="#d1d3d4" stroke-miterlimit="10"/><path d="M195.23,93.55s81.51-27.69,142.44-4.35" fill="none" stroke="#d1d3d4" stroke-miterlimit="10"/><path d="M195.23,111.36s81.51-27.7,142.44-4.35" fill="none" stroke="#d1d3d4" stroke-miterlimit="10"/><path d="M195.23,125.21s81.51-27.7,142.44-4.35" fill="none" stroke="#d1d3d4" stroke-miterlimit="10"/><path d="M195.23,143s81.51-27.69,142.44-4.35" fill="none" stroke="#d1d3d4" stroke-miterlimit="10"/><path d="M197.2,166.75s81.51-27.69,142.45-4.35" fill="none" stroke="#d1d3d4" stroke-miterlimit="10"/><path d="M197.2,184.56s81.51-27.7,142.45-4.35" fill="none" stroke="#d1d3d4" stroke-miterlimit="10"/><path d="M197.2,198.41s81.51-27.7,142.45-4.35" fill="none" stroke="#d1d3d4" stroke-miterlimit="10"/><path d="M197.2,216.21s81.51-27.69,142.45-4.35" fill="none" stroke="#d1d3d4" stroke-miterlimit="10"/><path d="M361.55,63.71S443.06,36,504,59.36" fill="none" stroke="#d1d3d4" stroke-miterlimit="10"/><path d="M361.55,81.52S443.06,53.82,504,77.17" fill="none" stroke="#d1d3d4" stroke-miterlimit="10"/><path d="M361.55,96.55S443.06,68.86,504,92.2" fill="none" stroke="#d1d3d4" stroke-miterlimit="10"/><path d="M361.55,114.36S443.06,86.66,504,110" fill="none" stroke="#d1d3d4" stroke-miterlimit="10"/><path d="M361.55,128.21s81.51-27.7,142.44-4.35" fill="none" stroke="#d1d3d4" stroke-miterlimit="10"/><path d="M361.55,146s81.51-27.69,142.44-4.35" fill="none" stroke="#d1d3d4" stroke-miterlimit="10"/><path d="M363.53,169.75S445,142.06,506,165.4" fill="none" stroke="#d1d3d4" stroke-miterlimit="10"/><path d="M363.53,187.56S445,159.86,506,183.21" fill="none" stroke="#d1d3d4" stroke-miterlimit="10"/><path d="M363.53,201.41S445,173.71,506,197.06" fill="none" stroke="#d1d3d4" stroke-miterlimit="10"/><path d="M363.53,219.21S445,191.52,506,214.86" fill="none" stroke="#d1d3d4" stroke-miterlimit="10"/><path d="M364.61,143.11,364,34.19A132.16,132.16,0,0,1,385,29.79l-.67,114.1-9.71-11.06Z" fill="#5ee0be"/><path d="M731.84,619a13.18,13.18,0,0,0-2.66-7.9V598.48l-260.56-.09v12.69a13.11,13.11,0,0,0-1.77,6.55,13.78,13.78,0,0,0,7.6,12.1,8.26,8.26,0,0,0-1,3.83,8.85,8.85,0,0,0,17.69,0,8.29,8.29,0,0,0-1.17-4.21,13.71,13.71,0,0,0,6.92-11.72,13,13,0,0,0-1.69-6.41h209a13.14,13.14,0,0,0-2.54,7.74,13.77,13.77,0,0,0,7.6,12.09,8.3,8.3,0,0,0-1,3.83,8.85,8.85,0,0,0,17.69,0,8.35,8.35,0,0,0-1.16-4.2A13.73,13.73,0,0,0,731.84,619Z" fill="#bcbec0"/><path d="M525.24,287.69h147A42.71,42.71,0,0,1,715,330.41V490a0,0,0,0,1,0,0H482.53a0,0,0,0,1,0,0V330.41A42.71,42.71,0,0,1,525.24,287.69Z" fill="#bcbec0"/><path d="M560.1,310.62s4.06-3.26,19.72-3.86c0,0,3-7.14,3.07-12.38,0,0-7.71-3.31-13.67-15.38,0,0,2.17,8.54-4.18,14.47C565,293.47,559.45,298.94,560.1,310.62Z" fill="#183153"/><path d="M560.1,310.62s4.06-3.26,19.72-3.86c0,0,3-7.14,3.07-12.38,0,0-7.71-3.31-13.67-15.38,0,0,2.17,8.54-4.18,14.47C565,293.47,559.45,298.94,560.1,310.62Z" opacity="0.2"/><path d="M610,306.35a21.21,21.21,0,0,1-3.72-13.45s12.61-9.64,13.69-21.59a28,28,0,0,0,2.47,8,47,47,0,0,0,11.28,15.47c3.81,3.54,8.12,10.29,2.45,20.38A79.09,79.09,0,0,0,610,306.35Z" fill="#183153"/><path d="M610,306.35a21.21,21.21,0,0,1-3.72-13.45s12.61-9.64,13.69-21.59a28,28,0,0,0,2.47,8,47,47,0,0,0,11.28,15.47c3.81,3.54,8.12,10.29,2.45,20.38A79.09,79.09,0,0,0,610,306.35Z" opacity="0.2"/><polygon points="688.18 491.99 689.16 478.5 508.99 478.65 508.99 491.24 688.18 491.99" fill="#a7a9ac"/><path d="M767.89,462a40,40,0,1,0-79.38,6.41v23.68h-180V462a40,40,0,1,0-63.3,32.68h0l5.32,88.77a16,16,0,0,0,15.93,15H730.78a17,17,0,0,0,17-16.34l3.5-86.91h0C761.71,488,767.89,475.65,767.89,462Z" fill="#d1d3d4"/><circle cx="467.22" cy="462.29" r="19.98" fill="#a7a9ac"/><circle cx="728.72" cy="462.29" r="19.98" fill="#a7a9ac"/><rect x="508.47" y="523.25" width="179.52" height="6.75" fill="#a7a9ac"/><path d="M581.68,228a24.26,24.26,0,0,0,.49,3.17,59.94,59.94,0,0,1-8.36,8.83,21.84,21.84,0,0,0-7.65,13.66A52.19,52.19,0,0,0,567.39,274a1.82,1.82,0,0,0,.07.25,26.66,26.66,0,0,0,1.75,4.77c2.57,8.55-4,14.53-4,14.53-5.42,6.55-5.13,17.09-5.13,17.09-5.7,27.06-19.37,15.67-19.37,15.67-2.85-5.41,3.42-12.82,3.42-12.82,2.84-3.42,1.7-11.11,1.7-11.11-3.56-6-3.27-11-2.1-14.46a14.42,14.42,0,0,1,4.46-6.41,16.76,16.76,0,0,0,6.15-10.85,16.25,16.25,0,0,0-2.51-10.74c-9.81-16.08,3.41-29,3.41-29,12.24-16.52,29-18.51,29-18.51A29.29,29.29,0,0,0,581.68,228Z" fill="#183153"/><path d="M579.19,306.63s-23.93,1.14-26.21,9.12c0,0-12,31.33-4.27,53.83,0,0,12.53,29.63,13.1,41.59h70.65s-2.4-16.51,1.81-30.45a45.78,45.78,0,0,1,1.94-5c2.35-5.4,10-27.56-4-63.93,0,0-4.27-2.28-24.21-5.7C608,306.06,577.19,306.92,579.19,306.63Z" fill="#5ee0be"/><path d="M679.88,400.56l-22.64,4.63-21-29.5s10.6-23.23-4-63.93c0,0,10.26,1.71,19.09,21.65l23.64,42.73s6,11.73,7.2,21.37A2.78,2.78,0,0,1,679.88,400.56Z" fill="#5ee0be"/><path d="M679.88,400.56l-22.64,4.63-21-29.5s10.6-23.23-4-63.93c0,0,10.26,1.71,19.09,21.65l23.64,42.73s6,11.73,7.2,21.37A2.78,2.78,0,0,1,679.88,400.56Z" opacity="0.2"/><path d="M505.46,401.14l25.3,3.77,20-30.26s-7.44-15.32-3-39.53l4.39-16.56a12.23,12.23,0,0,1,4.48-6.81,8.71,8.71,0,0,1,2.55-1.32c.11,0,.1-.17,0-.18-2.53-.12-14.11.62-23.94,22.3l-24.78,45.87a66.33,66.33,0,0,0-6.42,21A1.57,1.57,0,0,0,505.46,401.14Z" fill="#5ee0be"/><path d="M505.46,401.14l25.3,3.77,20-30.26s-7.44-15.32-3-39.53l4.39-16.56a12.23,12.23,0,0,1,4.48-6.81,8.71,8.71,0,0,1,2.55-1.32c.11,0,.1-.17,0-.18-2.53-.12-14.11.62-23.94,22.3l-24.78,45.87a66.33,66.33,0,0,0-6.42,21A1.57,1.57,0,0,0,505.46,401.14Z" opacity="0.2"/><path d="M582.89,294.38s-.52,8.28-4.75,14.48a11.19,11.19,0,0,0-1.41,2.67c-1.26,3.63-2.74,12.05,7.86,17.31a22.84,22.84,0,0,0,8.43,2.24c6.85.52,19.9-.09,21.11-11.93a16.38,16.38,0,0,0-2.21-10,20.66,20.66,0,0,0-2-2.75,17.9,17.9,0,0,1-3.42-13.68S598,301.1,582.89,294.38Z" fill="#f9b499"/><path d="M680.31,400.63s3.7,21.65-17.94,45l-8.84,10,3.71-50.42Z" fill="#f9b499"/><path d="M506.56,401.06s-5.22,15,11.41,36.19l17.61,22.51-4.82-54.85Z" fill="#f9b499"/><path d="M566.24,495.63l7.5-3.26-.66-3.27s21.53-5.21,27.07-8.8H562S564.93,484.87,566.24,495.63Z" fill="#183153"/><path d="M566.24,495.63l7.5-3.26-.66-3.27s21.53-5.21,27.07-8.8H562S564.93,484.87,566.24,495.63Z" opacity="0.2"/><rect x="532.76" y="474.7" width="122.2" height="5.7" fill="#bcbec0"/><path d="M526.45,380.69h134a1.1,1.1,0,0,1,1.1,1.1v3.46a0,0,0,0,1,0,0H525.35a0,0,0,0,1,0,0v-3.46A1.1,1.1,0,0,1,526.45,380.69Z" fill="#e6e7e8"/><path d="M524.25,386.38l8.51,88.32H655l7.95-88.61a3.1,3.1,0,0,0-3.1-3.39L527.35,383A3.11,3.11,0,0,0,524.25,386.38Z" fill="#d1d3d4"/><path d="M524.49,495.3s-7.82-9.46-23.47-3.59c0,0-12.72,4.89-2.94,17.94,0,0,6.85,12.72,33.59,7.82,0,0-8.15-1.3-11.74-8.15C519.93,509.32,514.39,498.56,524.49,495.3Z" fill="#5ee0be"/><path d="M579.93,513.89l-6.19-21.52s-32.29,15-49.25,2.93c0,0-9.45,2.28-4.56,14,0,0,3.59,9.13,18.59,8.81C538.52,518.13,564.93,516.5,579.93,513.89Z" fill="#f9b499"/><path d="M573.08,489.1l6.85,24.79s65.22-9.79,91.64-23.16c0,0,34.89-13.69,16.3-36.52,0,0-7.17-13.69-39.13,2.94C648.74,457.15,602.43,482.91,573.08,489.1Z" fill="#183153"/><path d="M588.16,618.72s14.74,33,36.66,19.4c0,0,6.65-3.84,1.6-14.1a24.65,24.65,0,0,0-8.83-9.71,50.13,50.13,0,0,0-8.58-4.58S597.87,619.79,588.16,618.72Z" fill="#5ee0be"/><path d="M562.65,581.06l20.54-8.8S572.76,538,568.52,505.41c0,0-5.55-39.13-19.57-45,0,0-22.5-9.13-26.09,12.39,0,0-5.54,14.35,10.11,49.57Z" fill="#183153"/><path d="M562.65,581.06s10.62,17.85,23.89,35.51a21.4,21.4,0,0,0,7.21,6.27c4.08,2.11,9.76,3.21,14.9-2.33a6,6,0,0,0,1.57-1.8,7.7,7.7,0,0,0-2.88-10.46c-7-4.12-22.17-15.39-24.15-36Z" fill="#f9b499"/><path d="M582.09,299.42s.69-3.61.8-5c0,0,11.31,3.4,19.41-.33C602.3,294.05,592.11,301.51,582.09,299.42Z" fill="#f7a48b"/><path d="M621.63,260.91c0,20.06-12.57,36.32-28.06,36.32-11.87,0-22-9.53-26.11-23a1.82,1.82,0,0,1-.07-.25,52.19,52.19,0,0,1-1.23-20.31A21.84,21.84,0,0,1,573.81,240a59.94,59.94,0,0,0,8.36-8.83,24.26,24.26,0,0,1-.49-3.17,22.78,22.78,0,0,1,11.89-3.41C609.06,224.6,621.63,240.86,621.63,260.91Z" fill="#f9b499"/><path d="M635.87,313.75c-9.49,27.81,10.28,36.43,18.78,38.21a15.5,15.5,0,0,0,10.19-1.38c24.48-12.48,15.26-32.83,9.3-42a43.44,43.44,0,0,0-5.2-6.21,13.8,13.8,0,0,1-2.78-4.48,17.76,17.76,0,0,1-.59-11.18c4.07-14.91-8.33-17.94-8.33-17.94-9.69-5.13-11.4-17.95-11.4-17.95,2-26.78-12.53-35.32-12.53-35.32-26.49-19.66-41-10.26-41-10.26-11.7,5.56-12.1,18.5-10.83,25.89.67,3.88,3.43,7.43,6.47,9.93,4.23,3.47,11.82,8.31,24.3,12,0,0,10.54,3.7,7.69,18.23,0,0-.57,10.25,9.69,20.51C629.61,291.82,639.86,302.07,635.87,313.75Z" fill="#183153"/></svg>