<svg id="a8c10bd1-09ae-4a33-b1e3-a6f68b41d941" data-name="Layer 1" xmlns="http://www.w3.org/2000/svg" width="865.76" height="682.89" viewBox="0 0 865.76 682.89"><g id="e23bcdda-b87c-4266-9f68-109653ba401f" data-name="freesvgillustration--background-simple--inject-6"><path d="M688.3,108c-50.76-52.9-130.08-81.06-205.13-88A649.63,649.63,0,0,0,417,17.49c-217.89,2.13-281.71,88.3-267.74,129.8s53.25,67-3.44,124.47S25.23,415.34,57.69,501.52s166.9,153.2,361.62,142.56,321-11.7,361.61-91.46-48.1-134.52-60.58-202.91c-7.72-42.4,12.11-85.14,13.55-127.42C735.45,176.57,717.49,138.46,688.3,108Z" fill="#5ee0be"/><path d="M688.3,108c-50.76-52.9-130.08-81.06-205.13-88A649.63,649.63,0,0,0,417,17.49c-217.89,2.13-281.71,88.3-267.74,129.8s53.25,67-3.44,124.47S25.23,415.34,57.69,501.52s166.9,153.2,361.62,142.56,321-11.7,361.61-91.46-48.1-134.52-60.58-202.91c-7.72-42.4,12.11-85.14,13.55-127.42C735.45,176.57,717.49,138.46,688.3,108Z" fill="#fff" opacity="0.7" style="isolation:isolate"/></g><ellipse cx="426.05" cy="633.74" rx="277.17" ry="31.71" fill="#5ee0be"/><ellipse cx="426.05" cy="633.74" rx="277.17" ry="31.71" fill="#fff" opacity="0.3"/><path d="M553.09,632.81s3.16-2.3,4.88-14.63c0,0-.29-6,7.45-.29l15.2,12.05s6.31,8-1.72,9.18l-63.7-.83a2.88,2.88,0,0,1-2.84-2.87h0a2.88,2.88,0,0,1,2.9-2.88Z" fill="#5ee0be"/><polygon points="207.02 620.85 219.33 620.85 247.69 501.5 223.07 504.71 207.02 620.85" fill="#939598"/><polygon points="588.56 620.63 562.24 505.89 586.09 505.89 600.9 620.22 588.56 620.63" fill="#939598"/><path d="M789.53,408.39s-18.86-1.13-24.89,1.51c0,0-18.1,6.79-21.49-4.91L735.6,383.5l-37.71-31.68L685.06,342s-25.64-15.46-35.45-26.4l-22.6-38s15.06-32.48,0-63.07a81.23,81.23,0,0,1,23,21.14L754.83,375.21l33.57,18.47Z" fill="#f9b499"/><path d="M160.37,329.5l27.3,141.14s1.7,38.33,50,41c0,0,130.52,5.16,324.25.27l28-.81s25,4.7,30-29.67c0,0,20.17-98.13,31.56-173l2.31-15.2a13,13,0,0,0-9.85-14.6,47.07,47.07,0,0,0-16.91-1L614.47,246l1.81-59.33s5.06-18.45-21.35-19.9L328.3,164.91l-102.57,1.9s-34.91-7-33.1,24.87l2.53,137.12Z" fill="#a7a9ac"/><rect x="231.61" y="354.78" width="1.27" height="145.57" transform="translate(-98.06 70.29) rotate(-14.24)" fill="#939598"/><rect x="487.74" y="403.48" width="195.35" height="1.27" transform="translate(62.55 886.43) rotate(-77.31)" fill="#939598"/><rect x="242.83" y="449.86" width="319.09" height="1.27" transform="translate(-1.32 1.18) rotate(-0.17)" fill="#939598"/><path d="M543.68,220.9l26.5,25.66L608.12,219l-48.26-62.49S547,138.61,535.59,133.31L516.06,182.4Z" fill="#f9b499"/><path d="M627,277.6c-16,16.95-114.4,153-114.4,153-23.07,33.89-65.73,29.52-65.73,29.52L419.4,401.42l9.88-83.8c22.6-71.56,50.85-135.11,50.85-135.11,23.54-58.38,52.72-50.38,52.72-50.38,20.25,3.3,14.6,37.2,14.6,37.2,0,40-10.83,94.62-10.83,94.62,31.54-25.89,67.32-46.61,67.32-46.61,10.83-5.64,23.07-2.82,23.07-2.82h0C642.07,245.12,627,277.6,627,277.6Z" fill="#183153"/><g opacity="0.2"><rect x="449.14" y="302.39" width="95.88" height="1.27" transform="translate(-70.52 432.41) rotate(-44.21)"/></g><path d="M789.14,410.94l-.74-17.26s25.08.49,28.05,8.6c0,0,3.79,6-11.9,9.47,0,0-26.22,4.11-43.82,14.84a20,20,0,0,1-3.44,1.71c-2.54.94-6.17,1.92-3.57-1.41a165.71,165.71,0,0,1,35.42-15.95Z" fill="#5ee0be"/><path d="M242.37,208s-49.74,15.21-87.73,34.47c0,0-44.77,22-53.45,54.27,0,0-11.94,47.21,62.95,51.28l41.52-.94a5.7,5.7,0,0,0,5.48-6.73,24.59,24.59,0,0,0-2.5-7.52A134.32,134.32,0,0,0,224.27,334a6.84,6.84,0,0,1,6.27,3.94,112.27,112.27,0,0,0,33.26,40.63,24,24,0,0,0,14.86,4.89c1.22,0,2.57-.06,4-.14,0,0-5.42,25.05,18.46,40.25,0,0,12.3,8.68,24.23,26.77,0,0,2.54,8,22.07,14.11,0,0,31.84,11.21,41.61,29.66,0,0,20.26,35.82,51,34.37a558.05,558.05,0,0,0,6.78-68.37s2.45-4.07-4.61-22c0,0-15.47-35-1.63-77.33,0,0,10.86-20.63,1.36-32.84,0,0-8.14-4.61-10.85-8.68,0,0-4.07-8.14-11.67-1.9a17.07,17.07,0,0,1-7.87.54s17.37-17.09,1.63-35.81l-27.68-44s-14.65-41-49.92-41l-88.19,9.5Z" fill="#5ee0be"/><path d="M252,165.23l1.64,44.82s-15.05,1.64-20.29,14.72c0,0-1.89,4.27-2.66,13.61a12.38,12.38,0,0,0,3.05,9.16L246,261.44s3.05-4.08,17.48-5.26c0,0,8.84-.65,22.91-7.2a71.41,71.41,0,0,1,26.17-10.47l25.52-8.5-19.3-21.59-17.67-3.6-9.16.65,0-4.47-7.05-22Z" fill="#f9b499"/><path d="M264,189.06s0,14.38,11.13,14.38c0,0,4.88,8.68,16.82,6.51V201S278.64,206.15,264,189.06Z" fill="#f7a48b"/><path d="M246,261.44,267.42,279s9.94,18.61,24.47,22.69V273.93l55.32-13.26-4.59-27.27L338.09,230l-25.52,8.5s-12,1.08-26.17,10.47a66.44,66.44,0,0,1-22.91,7.2S250.85,256.59,246,261.44Z" fill="#183153"/><path d="M246,261.44,267.42,279s9.94,18.61,24.47,22.69V273.93l55.32-13.26-4.59-27.27L338.09,230l-25.52,8.5s-12,1.08-26.17,10.47a66.44,66.44,0,0,1-22.91,7.2S250.85,256.59,246,261.44Z" fill="#183153"/><path d="M246,261.44,267.42,279s9.94,18.61,24.47,22.69V273.93l55.32-13.26-4.59-27.27L338.09,230l-25.52,8.5s-12,1.08-26.17,10.47a66.44,66.44,0,0,1-22.91,7.2S250.85,256.59,246,261.44Z" opacity="0.2"/><path d="M264.62,256.86c-6.27-7.41-16.4-14.41-16.5-14.48-11.68-8.53-14.84-17.08-14.88-17.17l.3-.77c0,.09,3.44,9,14.94,17.43.1.06,10.3,7.11,16.62,14.58Z" fill="#183153"/><g opacity="0.2"><path d="M264.62,256.86c-6.27-7.41-16.4-14.41-16.5-14.48-11.68-8.53-14.84-17.08-14.88-17.17l.3-.77c0,.09,3.44,9,14.94,17.43.1.06,10.3,7.11,16.62,14.58Z"/></g><g opacity="0.2"><path d="M150.16,280.8l-.36-1.22a108,108,0,0,1,44.83-3.21l-.23,1.24A106.62,106.62,0,0,0,150.16,280.8Z"/></g><g opacity="0.2"><path d="M179.18,276.38c-8.82-4.26-24.1-4.6-24.25-4.6l0-1.27c.64,0,15.71.35,24.78,4.73Z"/></g><g opacity="0.2"><path d="M208.33,332.93a33.9,33.9,0,0,0-5.89-13.54l.49-.39a34.34,34.34,0,0,1,6,13.81Z"/></g><path d="M282.71,383.34s-1.56-4.94,8.34-12.86l44.34-31.28,11.48.8S285.07,393.43,282.71,383.34Z" fill="#5ee0be"/><path d="M282.71,383.34s-1.56-4.94,8.34-12.86l44.34-31.28,11.48.8S285.07,393.43,282.71,383.34Z" fill="#fff" opacity="0.3"/><path d="M320.7,361.36s-9,15-3.8,30.93c0,0,1,6.55,1.38,13.64a27.65,27.65,0,0,1-3.4,14.6c-3.38,6.19-7.75,16.93-4.67,27.11l14.65-14.29s3.44-2.53,3.26-13.74l.72-64.94Z" fill="#5ee0be"/><path d="M320.7,361.36s-9,15-3.8,30.93c0,0,1,6.55,1.38,13.64a27.65,27.65,0,0,1-3.4,14.6c-3.38,6.19-7.75,16.93-4.67,27.11l14.65-14.29s3.44-2.53,3.26-13.74l.72-64.94Z" fill="#fff" opacity="0.3"/><path d="M329.75,354.48s4,2.36,2.89,21.71c0,0-3.44,29.13.18,27.86,0,0,8-2.53,8.68-15.92,0,0,1.09-29.3-9-35.82Z" fill="#5ee0be"/><path d="M329.75,354.48s4,2.36,2.89,21.71c0,0-3.44,29.13.18,27.86,0,0,8-2.53,8.68-15.92,0,0,1.09-29.3-9-35.82Z" fill="#fff" opacity="0.3"/><path d="M359.35,345.58q7.78.66,15.56,1.4l7.78.73,7.77.78h.05a18.87,18.87,0,0,0,6.18-.06,35.46,35.46,0,0,0,6.08-1.56,47.35,47.35,0,0,0,5.77-2.49c.92-.5,1.86-1,2.76-1.52a26.85,26.85,0,0,0,2.58-1.78A37.74,37.74,0,0,1,425,335a30.66,30.66,0,0,1,12.52-1.62,33.27,33.27,0,0,0-6.31.35,34.55,34.55,0,0,0-6.09,1.6,38.14,38.14,0,0,0-10.92,6.17,25.19,25.19,0,0,1-2.63,1.83c-.92.54-1.85,1-2.78,1.56a49,49,0,0,1-5.84,2.56,33.43,33.43,0,0,1-6.19,1.57,19,19,0,0,1-6.42,0h0l-7.77-.83-7.76-.86C369.69,346.81,364.52,346.2,359.35,345.58Z" opacity="0.2"/><g opacity="0.2"><path d="M363.37,244.27l-1.26-.05c.43-12.27-2.2-32.65-2.23-32.85l1.26-.16C361.17,211.41,363.81,231.89,363.37,244.27Z"/></g><path d="M258.48,134a24.26,24.26,0,0,1,2.87-6.95,28.17,28.17,0,0,1,4.73-5.93,29.6,29.6,0,0,1,2.93-2.44,26.41,26.41,0,0,1,3.28-1.94,24.1,24.1,0,0,1,7.17-2.28,40.66,40.66,0,0,0-6.7,3.15,36.52,36.52,0,0,0-3,2A35,35,0,0,0,267,122a35.7,35.7,0,0,0-4.78,5.55A42.83,42.83,0,0,0,258.48,134Z" opacity="0.2"/><path d="M257,103.59a31.75,31.75,0,0,1,9.67-1.89,23.2,23.2,0,0,1,5,.29,20.42,20.42,0,0,1,2.46.57c.8.28,1.63.6,2.33.87a15.26,15.26,0,0,0,4.6.94,24.24,24.24,0,0,1,2.48.17,11.2,11.2,0,0,1,2.48.59,10.69,10.69,0,0,1,4.24,2.73,11.84,11.84,0,0,1,2.56,4.23,13.66,13.66,0,0,0-3-3.78,10.81,10.81,0,0,0-4.11-2.24,12.88,12.88,0,0,0-2.31-.43,23.46,23.46,0,0,0-2.41-.07,16,16,0,0,1-5-.95c-.82-.33-1.52-.6-2.26-.88a22.71,22.71,0,0,0-2.3-.57,26.16,26.16,0,0,0-4.77-.49A47.3,47.3,0,0,0,257,103.59Z" opacity="0.2"/><path d="M253.05,141.21a21.35,21.35,0,0,0-5.75,4.34,20,20,0,0,0-2.23,2.8,19.57,19.57,0,0,0-1.65,3.14,19.22,19.22,0,0,0-1.36,6.9,26.22,26.22,0,0,0,.92,7,37.88,37.88,0,0,0,2.44,6.73l.75,1.68a16.27,16.27,0,0,1,.64,1.77,27.63,27.63,0,0,1,.77,3.63,55.86,55.86,0,0,1,.22,14.61,74,74,0,0,0-1.2-14.44,31.94,31.94,0,0,0-.84-3.47c-.19-.56-.4-1.11-.64-1.64l-.78-1.63a37.47,37.47,0,0,1-2.59-6.93,26.5,26.5,0,0,1-.88-7.38,19.16,19.16,0,0,1,1.64-7.26A19.5,19.5,0,0,1,253.05,141.21Z" opacity="0.2"/><ellipse cx="283.49" cy="150.86" rx="33.86" ry="51.04" transform="translate(-17.99 40.24) rotate(-7.87)" fill="#f9b499"/><path d="M253.68,210.05s-23.33.45-23.6-16.38a92.23,92.23,0,0,0,.81-19.26,36.39,36.39,0,0,1-1.63-19.81s1.09-9.23-.27-12.48c0,0-5.7-30.93,24.42-42.33,0,0,24.69-19,49.65-1.36L328.57,121s9.77,11.13,2.17,36.09c0,0-3,15.47.82,21.71,0,0,5.15,5.15,3.52,22,0,0-.47,4.53,4.83,9.79a15.71,15.71,0,0,1,2.71,3.67c2.71,5,7.11,15.89-2.44,20.65a4.22,4.22,0,0,1-2.83.38c-1.76-.43-4-2.23-4.22-8.67a1.28,1.28,0,0,0-1.4-1.26c-.6.09-1,.71-.31,2.77,0,0,3.57,11.74-4.57,11.38,0,0-4.52-1.09-4.7-7.06,0,0-8.14-.9-9.23-11.21,0,0-3.8-13.21-12.3-12.85,0,0-6.29-3-8.66-2.85l0-4.47s23.7-3.53,25.51-41a70.34,70.34,0,0,0-3.35-26.93,8.63,8.63,0,0,0-4.39-5c-3.58-1.76-9.46-5.18-12.68-9.92a3.65,3.65,0,0,0-3.6-1.59c-7,1.14-26.66,5.61-28.44,20.28,0,0-.91,10.67-7.24,10.67L252,165.23Z" fill="#183153"/><ellipse cx="253.68" cy="155.9" rx="7.85" ry="9.65" fill="#f9b499"/><polygon points="400.48 231.13 363.18 261.68 352.89 265.86 291.47 260.71 292.76 336.28 353.54 343.35 364.15 338.85 401.77 312.49 400.48 231.13" fill="#5ee0be"/><polygon points="400.48 231.13 363.18 261.68 352.89 265.86 291.47 260.71 292.76 336.28 353.54 343.35 364.15 338.85 401.77 312.49 400.48 231.13" opacity="0.2"/><path d="M319.8,257.35s26.41,2.35,34.91,5.42l1.81-.36s18.63-20.8,35.81-28.58l2.72,1.63-31.87,26.22-10.29,4.18-32.55-2.54a12.44,12.44,0,0,0-5.07-5.61S318.73,258.42,319.8,257.35Z" fill="#fff"/><path d="M194.52,277s-6.26,18,8.17,42.2l68.67-29.62a10.84,10.84,0,0,1,4.5-.83c2.65,0,8-1.23,15.32-9.85,0,0,4.63-5.44,13.88-1.9,0,0,2.89,1.48,4.38.25,0,0,2.17-2.17-2.58-5.15l-6.92-3.8s1-1,4.75-.19a19,19,0,0,1,8,3.91c2.8,2.25,7.27,4.93,7.18-1.14,0,0,4.47.68,1.35-6.51a16.27,16.27,0,0,0-6-6.65s5.41,1.32,5.48-1.69a1.58,1.58,0,0,0-.43-1.09c-1.23-1.35-5.76-5.08-17.8-4.41,0,0-8.41-2.44-22.25,10.58l-11.41,10.11a7.86,7.86,0,0,1-4.06,1.91c-8.45,1.26-17.44,2.31-27,3A378.64,378.64,0,0,1,194.52,277Z" fill="#f9b499"/><g opacity="0.2"><rect x="352.91" y="267.46" width="0.63" height="74.53" transform="translate(-0.74 0.86) rotate(-0.14)"/></g><g opacity="0.2"><rect x="363.22" y="263.48" width="0.63" height="74.53" transform="translate(-0.73 0.88) rotate(-0.14)"/></g></svg>