<?xml version="1.0" encoding="UTF-8"?>
<svg xmlns="http://www.w3.org/2000/svg" id="a" width="865.76" height="682.89" viewBox="0 0 865.76 682.89">
  <path d="M812.74,581.75H56.74c-.28,0-.5-.22-.5-.5s.22-.5,.5-.5H812.74c.28,0,.5,.22,.5,.5s-.22,.5-.5,.5Z" fill="#002346"></path>
  <g>
    <g>
      <circle cx="358.34" cy="233.88" r="20.83" fill="#002346"></circle>
      <path d="M336.71,233.88c0-11.93,9.7-21.63,21.63-21.63,11.93,0,21.63,9.7,21.63,21.63,0,11.93-9.7,21.63-21.63,21.63s-21.63-9.7-21.63-21.63Zm1.6,0c0,11.04,8.99,20.03,20.03,20.03,11.04,0,20.03-8.99,20.03-20.03s-8.99-20.03-20.03-20.03c-11.04,0-20.03,8.99-20.03,20.03Z" fill="#0d2445"></path>
    </g>
    <g>
      <circle cx="370.58" cy="246.63" r="16.02" fill="#5ee0be"></circle>
      <path d="M353.75,246.63c0-9.28,7.55-16.82,16.82-16.82s16.82,7.55,16.82,16.82-7.55,16.82-16.82,16.82c-9.28,0-16.82-7.55-16.82-16.82Zm1.6,0c0,8.39,6.83,15.22,15.22,15.22s15.22-6.83,15.22-15.22-6.83-15.22-15.22-15.22-15.22,6.83-15.22,15.22Z" fill="#002346"></path>
    </g>
    <g>
      <path d="M320.52,583.09s-26.19,7.01-23.07,32.04c0,0-4.61,21.63,14.1,18.14l18.79-46.3-9.82-3.88Z" fill="#fff"></path>
      <path d="M307.75,634.15c-3.33,0-5.96-.98-7.86-2.93-4.98-5.11-3.16-15.02-2.94-16.11-3.08-25.1,23.18-32.43,23.44-32.5l.16-.04,10.44,4.13-19.08,47.02-.27,.05c-1.39,.26-2.69,.39-3.9,.39Zm12.75-50.53c-2.14,.64-25.46,8.14-22.55,31.45v.08s0,.08,0,.08c-.02,.1-2.14,10.38,2.66,15.29,2.3,2.36,5.86,3.14,10.59,2.3l18.49-45.57-9.19-3.63Z" fill="#002346"></path>
    </g>
    <g>
      <path d="M311.72,515.44c3.96-.8,8.33-1.4,13.07-1.63,17.77-.88,32.39,3.82,41.91,8.01,14.78-4.49,29.55-8.98,44.33-13.47l68.13-7.68s50.28-15.44,60.62-13.59c-4.42,8.37-10.69,15.63-18.32,21.24,0,0-93.81,62.08-95.29,61.4s-44.68-17.5-66.79-30.22c-.02,.04-37.94-20.4-47.65-24.05Z" fill="#183153"></path>
      <path d="M426.12,570.2c-.08,0-.12-.02-.17-.04-.19-.09-1.06-.43-2.47-1-29.89-12.03-51.55-21.87-64.36-29.24l.02-.04c-.42-.17-1.18-.57-2.63-1.34-9.11-4.84-36.84-19.58-44.98-22.64l-1.63-.61,1.71-.34c4.34-.87,8.76-1.43,13.14-1.64,14.15-.7,28.27,1.98,41.97,7.98l44.15-13.42,68.22-7.7c1.97-.61,50.42-15.44,60.76-13.59l.67,.12-.32,.61c-4.43,8.39-10.82,15.79-18.47,21.41-.25,.17-23.74,15.71-47.11,30.97-43.33,28.29-47.7,30.52-48.51,30.52Zm-66.93-31.4l.43,.25c12.77,7.34,34.38,17.16,64.23,29.18,1.22,.49,2.04,.82,2.38,.96,3.88-1.31,69.69-44.59,94.94-61.3,7.31-5.37,13.47-12.42,17.82-20.42-11.49-1.05-59.2,13.52-59.69,13.67l-68.22,7.7-44.42,13.5-.17-.07c-13.61-5.98-27.63-8.66-41.69-7.97-3.77,.19-7.58,.63-11.33,1.31,9.72,4.1,34.9,17.48,43.5,22.06,.96,.51,1.75,.93,2.19,1.17v-.02Z" fill="#002346"></path>
    </g>
    <g>
      <path d="M451.24,339.5s32.57-10.62,37.57,22.87l2.51,57.95,3.45,36.97-27.35,23.69s-7.1-6.3-.17-41.55c.02,.03,8.16-69.68-16.01-99.93Z" fill="#5ee0be"></path>
      <path d="M467.42,481.65l-.33-.29c-.3-.26-7.23-6.89-.33-42.01,.15-1.13,7.99-69.62-15.91-99.53l-.45-.56,.69-.22c.15-.05,14.94-4.75,26.16,2.19,6.52,4.03,10.58,11.12,12.06,21.08l2.51,58,3.47,37.2-27.87,24.14Zm.31-42.12h.01c-5.94,30.22-1.46,39.02-.26,40.74l26.76-23.18-3.42-36.71-2.51-57.98c-1.44-9.6-5.34-16.46-11.59-20.33-9.45-5.85-21.62-3.11-24.63-2.29,23.33,30.18,16.17,96.5,15.63,99.75Z" fill="#002346"></path>
    </g>
    <g>
      <path d="M379.52,350.44s-32.65,8.86-44.56,19.51c0,0,42.35,136.82,31.7,151.86,0,0,16.61,4.7,36.65-7.2,0,0,21.93,0,26.95,4.39,0,0,19.42,11.28,36.65-3.45,2.24-2.85,5.3-4.93,8.77-5.95,0,0,11.91,.94,0-15.98,0,0-13.78-8.77-10.33-40.1,0,0,14.41-79.56-14.1-114.02l-5.43,1.84c-4.54,1.53-8.98,3.37-13.28,5.49l-4.02,1.98-49.01,1.63Z" fill="#5ee0be"></path>
      <path d="M446.81,523.56c-9.49,0-16.67-4.07-16.79-4.14-4.7-4.09-24.71-4.31-26.57-4.32-19.94,11.78-36.75,7.23-36.92,7.18l-.68-.19,.41-.58c10.39-14.67-31.35-150.06-31.77-151.42l-.09-.31,.24-.21c11.85-10.61,43.42-19.26,44.76-19.62l.11-.02,48.9-1.63,3.93-1.93c4.31-2.12,8.79-3.98,13.34-5.51l5.76-1.95,.22,.27c28.33,34.24,14.35,113.63,14.21,114.42-3.36,30.56,9.97,39.5,10.11,39.59l.14,.13c4.77,6.78,6.38,11.63,4.79,14.43-1.36,2.39-4.53,2.38-5.14,2.34-3.36,1.01-6.27,3-8.44,5.76-6.92,5.92-14.22,7.71-20.5,7.71Zm-43.63-9.46h.14c.9,0,22.18,.05,27.28,4.51,.11,.06,19.25,10.87,36-3.45,2.24-2.87,5.36-4.99,8.96-6.05l.09-.03h.09s3.13,.22,4.29-1.83c.95-1.67,.9-5.32-4.68-13.28-1.28-.87-13.81-10.19-10.48-40.52,.15-.83,13.97-79.35-13.77-113.38l-5.11,1.73c-4.5,1.52-8.95,3.36-13.21,5.46l-4.23,2.03-48.95,1.63c-1.52,.42-32.42,9.02-44.06,19.17,2.73,8.85,41.06,133.9,31.91,151.37,3.24,.68,18.19,3.04,35.61-7.3l.12-.07Z" fill="#002346"></path>
    </g>
    <g>
      <path d="M434.64,345.76c-.82,10.86-5.64,14.62-5.64,14.62-14.46,14.89-30.43,11-38.75,7.35-4.09-1.79-7.59-4.68-10.11-8.36-4.9-7.31-.64-9.61-.64-9.61,.58-.61,1.11-1.28,1.57-1.99,7.59-11.63,3.58-38.98,3.46-39.8,5.23,13.84,15.81,23.3,28.02,23.3,3.45,0,6.86-.76,9.99-2.21,.27,13.89,4.31,16.34,8.35,16.87h0c1.25,.15,2.52,.1,3.75-.17Z" fill="#f2b3c1"></path>
      <path d="M405.34,371.56c-6.12,0-11.5-1.71-15.29-3.38-4.18-1.83-7.75-4.78-10.32-8.54-2.04-3.04-2.81-5.64-2.29-7.73,.4-1.61,1.45-2.37,1.75-2.55,.54-.57,1.03-1.2,1.46-1.87,7.44-11.41,3.55-38.32,3.38-39.46l-.68-4.61,1.65,4.36c5.35,14.17,15.91,22.98,27.56,22.98,3.35,0,6.73-.75,9.78-2.16l.69-.32,.02,.76c.26,13.55,4.15,15.89,7.91,16.38,1.2,.15,2.4,.09,3.58-.16l.65-.14-.05,.67c-.82,10.96-5.62,14.82-5.83,14.98-8.01,8.25-16.53,10.79-23.97,10.79Zm-19.88-60.07c.85,8.02,2.11,27.21-3.98,36.55-.48,.74-1.02,1.43-1.62,2.06l-.13,.1s-1,.57-1.34,1.99c-.43,1.77,.32,4.16,2.15,6.9,2.47,3.6,5.89,6.43,9.9,8.18,8.16,3.58,23.97,7.4,38.19-7.24,.09-.08,4.52-3.68,5.44-13.66-1.08,.17-2.17,.19-3.26,.06-4.12-.54-8.36-2.96-8.77-16.6-2.99,1.27-6.26,1.94-9.51,1.95-11.11,0-21.25-7.68-27.09-20.27Z" fill="#002346"></path>
    </g>
    <g>
      <rect x="380.45" y="245.25" width="64.53" height="88.21" rx="32.26" ry="32.26" fill="#f2b3c1"></rect>
      <path d="M412.72,333.96c-18.07,0-32.76-14.7-32.76-32.76v-23.69c0-18.07,14.7-32.76,32.76-32.76s32.76,14.7,32.76,32.76v23.69c0,18.07-14.7,32.76-32.76,32.76Zm0-88.21c-17.51,0-31.76,14.25-31.76,31.76v23.69c0,17.51,14.25,31.76,31.76,31.76s31.76-14.25,31.76-31.76v-23.69c0-17.51-14.25-31.76-31.76-31.76Z" fill="#002346"></path>
    </g>
    <g>
      <path d="M466.3,478.39s4.08-13.28,18.15-18.61c0,0,13.16-7.82,13.79,4.08,0,0,6.89,1.57,2.82,9.71,0,0-19.99-4.76-27.07,18.61-3.66-3.9-6.3-8.64-7.69-13.8Z" fill="#5ee0be"></path>
      <path d="M474.21,493.16l-.59-.63c-3.7-3.94-6.4-8.79-7.8-14.01l-.04-.14,.04-.14c.04-.14,4.32-13.58,18.45-18.93,.21-.13,7.03-4.13,11.28-1.86,1.87,1,2.93,3.03,3.16,6.03,.8,.26,2.67,1.07,3.6,3.03,.91,1.93,.64,4.38-.81,7.28l-.18,.35-.39-.09c-.8-.19-19.62-4.37-26.47,18.26l-.25,.83Zm-7.39-14.76c1.3,4.73,3.69,9.14,6.95,12.8,6.78-20.82,24.15-18.7,27-18.19,1.16-2.46,1.38-4.5,.64-6.06-.96-2.04-3.27-2.6-3.29-2.6l-.37-.08-.02-.38c-.15-2.83-1.04-4.69-2.65-5.56-3.76-2.01-10.31,1.84-10.38,1.88-13,4.93-17.41,16.8-17.88,18.19Z" fill="#002346"></path>
    </g>
    <g>
      <path d="M338.05,370.26c-1.26-.71-2.81-.65-4.01,.16-6.3,4.2-24.99,20.42-8.1,57.12,0,0,38.22,94.29,53.26,91.48l6.89-46.05c-8.82-15.53-16.06-31.9-21.62-48.87,0,0-10.37-44.68-26.42-53.84Z" fill="#5ee0be"></path>
      <path d="M378.56,519.58c-15.67,0-51.54-88.04-53.09-91.85-17.06-37.06,2.03-53.55,8.29-57.72,1.36-.92,3.1-.99,4.53-.18h0c16.06,9.17,26.23,52.33,26.65,54.17,5.53,16.86,12.79,33.27,21.57,48.74l.09,.15-.03,.17-6.95,46.4-.35,.07c-.24,.04-.48,.07-.72,.07Zm-42.38-149.32c-.65,0-1.29,.19-1.86,.57-6.09,4.06-24.66,20.13-7.93,56.5,13.04,32.18,40.62,92.15,52.36,91.25l6.81-45.51c-8.78-15.48-16.03-31.9-21.58-48.81-.12-.49-10.51-44.61-26.19-53.56-.51-.29-1.07-.43-1.63-.43Z" fill="#002346"></path>
    </g>
    <g>
      <path d="M405.71,507.54s-1.85,6.31-5.72,8.91l-4.5-4.08s6.34-1.07,10.22-4.83Z" fill="#5ee0be"></path>
      <path d="M399.94,517.09l-5.55-5.04,1.01-.17c.06-.01,6.23-1.09,9.95-4.69l1.36-1.32-.53,1.82c-.08,.26-1.94,6.51-5.92,9.19l-.33,.22Zm-3.39-4.43l3.48,3.16c2.27-1.71,3.79-4.77,4.58-6.69-2.89,2.13-6.38,3.14-8.05,3.54Z" fill="#002346"></path>
    </g>
    <g>
      <path d="M397.36,472.94s12.26-8.96,37.05-36.24c1.12-1.24,1.65-2.9,1.45-4.56-1.02-8.46-3.38-35.09,6.61-38.77,0,0,17.86-12.85,20.67,0,0,0,4.75,1.25,3.15,6.89,0,0,6.76,1.89,2.74,7.52,0,0,10.4,12.83-7.15,15.66,0,0,2.82,13.4-7.83,20.95,0,0-33.49,54.23-54.2,67.7,0,0-11.47-24.58-2.51-39.16Z" fill="#f2b3c1"></path>
      <path d="M399.66,512.83l-.24-.52c-.47-1.01-11.48-24.99-2.48-39.63l.13-.14c.12-.09,12.52-9.26,36.98-36.17,1.03-1.13,1.51-2.65,1.33-4.16-1.27-10.56-3.14-35.48,6.87-39.28,.93-.66,10.98-7.65,17.15-5.28,2.11,.81,3.52,2.6,4.18,5.34,.61,.23,2.02,.88,2.87,2.38,.72,1.26,.88,2.8,.46,4.58,.94,.35,3.02,1.33,3.7,3.26,.48,1.37,.17,2.9-.94,4.57,.92,1.23,4.11,5.98,2.5,10.19-1.14,2.97-4.4,4.96-9.69,5.89,.38,2.56,1.48,14.07-8.04,20.89-1.53,2.46-34.12,54.64-54.29,67.77l-.48,.31Zm-1.92-39.55c-7.91,13.02,.77,34.43,2.35,38.07,20.42-13.79,53.22-66.68,53.55-67.22l.14-.15c10.26-7.28,7.66-20.31,7.63-20.44l-.11-.51,.52-.08c5.21-.84,8.37-2.64,9.41-5.34,1.63-4.25-2.53-9.46-2.57-9.51l-.24-.29,.22-.31c1.08-1.51,1.42-2.84,1.02-3.97-.7-1.98-3.47-2.78-3.49-2.78l-.48-.13,.14-.48c.48-1.7,.4-3.13-.24-4.26-.88-1.55-2.54-2.01-2.56-2.02l-.29-.08-.07-.3c-.56-2.54-1.78-4.19-3.62-4.9-5.83-2.23-16.17,5.12-16.27,5.2l-.12,.06c-9.67,3.56-7.25,30.17-6.28,38.24,.22,1.8-.36,3.61-1.58,4.95-23.51,25.86-35.93,35.41-37.05,36.24Z" fill="#002346"></path>
    </g>
    <g>
      <path d="M445.39,391.5l-42.01-65.21c-1.06-1.71-.53-3.96,1.18-5.03,.05-.03,.1-.06,.15-.09h0c1.71-.96,3.87-.4,4.9,1.27l42.71,65.95s-2.3,.5-6.93,3.11Z" fill="#183153"></path>
      <path d="M445.22,392.17l-42.26-65.61c-1.21-1.95-.61-4.52,1.34-5.72l.17-.1c1.95-1.1,4.4-.47,5.57,1.44l43.1,66.54-.71,.16s-2.31,.53-6.8,3.06l-.41,.23Zm-38.72-70.97c-.52,0-1.06,.13-1.55,.41l-.13,.08c-1.48,.92-1.94,2.86-1.02,4.34l41.75,64.81c3.03-1.68,5.02-2.43,5.98-2.74l-42.34-65.38c-.6-.97-1.63-1.51-2.69-1.51Z" fill="#002346"></path>
    </g>
    <g>
      <path d="M449.89,384.68s2.14-9.61,5.42-7.7c0,0,3.86,.25,2.78,10.83-1.95-.28-3.94-.08-5.79,.58l-2.4-3.71Z" fill="#f2b3c1"></path>
      <path d="M452.08,388.99l-2.73-4.22,.05-.2c.16-.72,1.63-7.04,4.21-8.17,.61-.27,1.25-.23,1.86,.09,.28,.05,.95,.26,1.62,1.04,1.04,1.23,2.14,4.01,1.5,10.32l-.05,.52-.51-.07c-1.86-.27-3.78-.07-5.55,.56l-.37,.13Zm-1.66-4.41l2.08,3.21c1.65-.53,3.41-.71,5.13-.54,.84-9.31-2.34-9.77-2.37-9.77l-.21-.07c-.36-.21-.69-.24-1.04-.09-1.73,.75-3.13,5.32-3.59,7.26Z" fill="#002346"></path>
    </g>
    <path d="M447.66,399.02c-.21,0-.4-.13-.47-.34-.09-.26,.06-.54,.32-.63l15.48-5.14c.26-.09,.54,.05,.63,.32,.09,.26-.06,.54-.32,.63l-15.48,5.14c-.05,.02-.11,.03-.16,.03Z" fill="#002346"></path>
    <path d="M452.29,404.74c-.22,0-.42-.14-.48-.36-.08-.27,.08-.54,.34-.62l14.01-3.97c.26-.07,.54,.08,.62,.34,.08,.27-.08,.54-.34,.62l-14.01,3.97s-.09,.02-.14,.02Z" fill="#002346"></path>
    <path d="M456.67,411.56c-.22,0-.42-.15-.48-.37-.07-.27,.09-.54,.36-.61l12.37-3.27c.26-.07,.54,.09,.61,.36,.07,.27-.09,.54-.36,.61l-12.37,3.27s-.09,.02-.13,.02Z" fill="#002346"></path>
    <path d="M461.89,423.95c-.13,0-.26-.05-.35-.15-.03-.04-.85-.89-.53-2.17,.45-1.8,2.9-3.41,7.27-4.78,.26-.08,.54,.06,.63,.33,.08,.26-.06,.54-.33,.63-5.24,1.64-6.38,3.24-6.59,4.05-.19,.74,.25,1.23,.27,1.25,.19,.2,.18,.52-.02,.71-.1,.09-.22,.14-.35,.14Z" fill="#002346"></path>
    <g>
      <path d="M454.66,313.68s-4.45,11.78-20.08,17.55c0,0-2.56,5.85-7.07,6.66,0,0-1.98,4.9-3.92,.57-.74-3.09-1.11-2.99-1.1-6.17,23.37-9.16,22.49-31.1,22.49-31.1l-.12-23.45s-9.68,.63-11.83-6.19c0,0-6.45,3.95-9.33-.72,0,0-8.42,6.09-11.2,1.8,0,0-1.7,.77-4.44,1.93-8.76,3.7-18.98,4.44-27.73,.73-.06-.03,.06,9.01,0,8.98l.46,18.58c.27,6.55,1.73,10.53,2.91,12.71,1.29,2.39,2,5.06,2.18,7.78,.29,4.42,.22,10.77-1.68,16.44-1.34-3.42-3.79-6.3-6.95-8.17-.45-.26-.99-.31-1.48-.15-1.76,.68-7.2,1.52-14.78-7.2,0,0-1.8,4.72-9.33-3.55,0,0-16.49-33.37,9.33-72.11,0,0,24.38-38.72,58.81-13.98,0,0,18.64-8.6,28.69,16.5,2.66,8.5,3.96,17.37,3.83,26.27-.01,1.07-.11,2.13-.23,3.19-.22,1.95-.36,6.27,1.66,11.77,1.32,3.59,2.23,7.34,2.41,11.16,.15,3.32-.12,7.08-1.49,10.17Z" fill="#0d2445"></path>
      <path d="M384.23,341.25l-.5-1.28c-1.29-3.3-3.69-6.12-6.74-7.92-.32-.19-.71-.22-1.06-.1-1.53,.59-7.11,1.81-14.88-6.85-.31,.38-.82,.81-1.61,.96-2.04,.39-4.78-1.3-8.16-5l-.08-.12c-.17-.34-16.32-34.08,9.36-72.61,.11-.17,11.71-18.3,29.91-21.85,9.75-1.91,19.63,.64,29.38,7.58,1.37-.56,7.55-2.76,14.48,0,6.19,2.47,11.11,8.15,14.61,16.89,2.69,8.6,3.99,17.49,3.87,26.46-.02,1.17-.13,2.29-.24,3.24-.23,2.02-.33,6.2,1.64,11.54,1.48,4.01,2.27,7.71,2.44,11.31,.19,4.18-.32,7.67-1.53,10.38-.2,.51-4.93,12.04-20.17,17.75-.5,1.04-2.95,5.78-7.09,6.7-.31,.68-1.23,2.39-2.51,2.42h-.03c-.85,0-1.56-.68-2.19-2.08-.25-1-.43-1.63-.59-2.15-.36-1.24-.56-1.92-.56-4.22v-.34s.32-.12,.32-.12c22.75-8.92,22.18-30.4,22.17-30.61l-.11-22.96c-2.06,.04-9.35-.29-11.6-5.97-2.44,1.3-6.8,2.46-9.19-.75-1.38,.92-5.78,3.64-8.96,3.05-.94-.18-1.7-.62-2.27-1.33-.64,.29-2.09,.92-4.08,1.77-9.25,3.91-19.21,4.26-27.44,1,0,.88,0,2.44,.02,3.77,.02,2.85,.03,3.98-.03,4.47h.03s.46,18.58,.46,18.58c.26,6.44,1.69,10.35,2.85,12.49,1.29,2.4,2.05,5.08,2.24,7.98,.29,4.4,.23,10.87-1.71,16.63l-.44,1.3Zm38.76-8.62c.01,1.88,.18,2.44,.52,3.6,.16,.53,.35,1.18,.57,2.11,.4,.87,.87,1.4,1.26,1.4,.67-.01,1.44-1.38,1.71-2.05l.1-.26,.27-.05c4.2-.75,6.68-6.31,6.7-6.36l.09-.2,.2-.07c15.21-5.62,19.74-17.14,19.78-17.26v-.03c1.15-2.57,1.64-5.92,1.46-9.94-.16-3.5-.94-7.1-2.38-11.01-2.04-5.53-1.93-9.89-1.69-12,.11-.92,.22-2.01,.23-3.14,.12-8.87-1.16-17.65-3.81-26.12-3.38-8.44-8.11-13.93-14.03-16.29-7.3-2.91-13.9,.07-13.96,.1l-.26,.12-.24-.17c-9.59-6.89-19.29-9.44-28.83-7.57-17.78,3.47-29.15,21.24-29.26,21.42-24.84,37.27-10.1,69.93-9.33,71.56,4.06,4.45,6.24,4.81,7.18,4.64,.93-.18,1.26-.98,1.26-.98l.3-.78,.55,.63c7.57,8.72,12.8,7.61,14.23,7.07,.65-.22,1.33-.15,1.91,.18,2.86,1.69,5.17,4.2,6.62,7.17,1.5-5.28,1.53-10.99,1.27-14.98-.18-2.75-.89-5.3-2.12-7.57-1.21-2.23-2.7-6.29-2.97-12.93l-.46-18.88h.02c0-.68,0-2.6-.01-4.2q-.03-4.76,.22-4.93l.22-.15,.25,.11c8.12,3.45,18.08,3.18,27.34-.73,2.73-1.15,4.43-1.92,4.43-1.92l.39-.18,.23,.36c.44,.68,1.05,1.08,1.87,1.24,3.33,.63,8.56-3.13,8.62-3.17l.44-.32,.28,.46c2.58,4.19,8.4,.7,8.64,.55l.55-.33,.19,.61c2.01,6.36,11.22,5.84,11.32,5.84l.53-.03,.12,23.98c0,.21,.62,22.18-22.49,31.44Z" fill="#0d2445"></path>
    </g>
    <g>
      <path d="M366.35,538.73c16.86,10.81,59.77,31.04,59.77,31.04l19.6,10.62c-8,6.89-12.48,36.02-12.48,36.02l-66.55-16.28c-9.08-.63-30.63-11.59-30.63-11.59-43.16-10.34-43.29-43.85-43.29-43.85,1.09-18.17,8.77-25.77,16.17-28.83,6.38-2.56,13.57-2.14,19.6,1.16,8.56,4.61,26.06,14.16,37.79,21.71Z" fill="#183153"></path>
      <path d="M433.66,617.02l-67.07-16.41c-8.86-.61-29.24-10.87-30.69-11.6-42.99-10.33-43.62-43.99-43.62-44.33,1.15-19.06,9.6-26.45,16.48-29.29,6.55-2.63,13.85-2.2,20.03,1.18,16.64,8.97,29.37,16.28,37.82,21.73,16.64,10.67,59.29,30.8,59.72,31.01l20.27,10.98-.55,.47c-7.77,6.7-12.27,35.43-12.31,35.72l-.08,.54Zm-116.12-102.33c-2.84,0-5.68,.54-8.39,1.63-9.49,3.92-14.98,13.74-15.86,28.39,0,.3,.65,33.21,42.91,43.34l.11,.04c.21,.11,21.56,10.92,30.44,11.54l66.1,16.16c.66-4.04,4.82-28.12,12.04-35.3l-18.99-10.29c-.4-.19-43.11-20.35-59.81-31.06h0c-8.44-5.44-21.14-12.73-37.76-21.69-3.36-1.84-7.07-2.76-10.79-2.76Z" fill="#002346"></path>
    </g>
    <g>
      <path d="M560.75,490.98c6.15,2.69,8.27,4.86,10.79,14.88,0,0,9.71,35.71-35.08,56.36,0,0-39.42,25.07-52.14,25.07l-11.3,4.7-14.56-5.02-12.7-6.53-8.09-17.43,78.27-56.55c3.31-3.53,7.46-7.27,11.56-10.61,9.35-7.61,22.21-9.69,33.26-4.86Z" fill="#183153"></path>
      <path d="M473.03,592.51l-14.74-5.08-12.92-6.64-8.34-17.96,.33-.24,78.27-56.54c3.06-3.27,7.07-6.96,11.54-10.6,9.71-7.9,22.66-9.8,33.78-4.93,6.31,2.76,8.53,5.09,11.07,15.21,.1,.35,9.3,36.35-35.36,56.94-1.55,.99-39.43,24.99-52.25,25.11l-11.39,4.73Zm-26.9-12.45l12.55,6.46,14.32,4.93,11.32-4.66c12.43,0,51.48-24.74,51.87-24.99,43.93-20.25,34.96-55.45,34.87-55.81-2.46-9.79-4.45-11.9-10.5-14.55-10.78-4.71-23.33-2.88-32.75,4.79-4.43,3.61-8.41,7.26-11.51,10.57l-78.01,56.37,7.85,16.9Z" fill="#002346"></path>
    </g>
    <g>
      <path d="M426.13,569.74s-2.88-1.84-.82-3.6c0,0,8.67-9.92,12.36-9.65,0,0,5.72,0,4.62,3.43-.75,.51-1.48,1.05-2.17,1.63,0,0,8.81,11.03,10.24,14.96,0,0-3.72-2.21-6.46,3.18l-17.77-9.94Z" fill="#5ee0be"></path>
      <path d="M444.11,580.37l-18.25-10.21c-.17-.11-1.69-1.12-1.78-2.51-.05-.7,.26-1.33,.91-1.89,.84-.97,8.66-9.78,12.54-9.78,.06,0,.12,0,.18,0,.11,0,3.54,.02,4.78,1.71,.48,.66,.58,1.46,.29,2.37l-.05,.17-.14,.1c-.6,.4-1.19,.84-1.75,1.29,1.6,2.02,8.7,11.12,10.02,14.71l.48,1.32-1.21-.71s-1.15-.65-2.54-.24c-1.24,.37-2.33,1.45-3.22,3.21l-.24,.46Zm-17.73-11.06l17.31,9.68c.99-1.76,2.2-2.86,3.61-3.27,.81-.24,1.55-.2,2.13-.08-2.25-4.44-9.62-13.69-9.71-13.79l-.31-.38,.38-.31c.66-.55,1.35-1.08,2.06-1.56,.13-.53,.07-.96-.19-1.31-.78-1.07-3.16-1.3-4.01-1.3-.04,0-.08,0-.13,0-2.92,0-9.52,6.82-11.85,9.49-.46,.4-.64,.75-.62,1.11,.05,.75,.96,1.5,1.31,1.73Z" fill="#002346"></path>
    </g>
    <g>
      <path d="M451.47,620.32l29.49,7.75s8.98-1.69,8.72-29.23l-16.67-6.86-14.56-5.02s-6.98,13.19-6.98,33.35Z" fill="#f2b3c1"></path>
      <path d="M480.95,628.58l-.11-.03-29.87-7.85v-.39c0-20.05,6.96-33.45,7.03-33.58l.2-.38,14.97,5.15,17,7v.33c.27,27.63-8.74,29.65-9.12,29.72l-.11,.02Zm-28.98-8.65l28.99,7.62c.91-.3,8.4-3.54,8.22-28.37l-16.36-6.74-14.12-4.86c-1.11,2.29-6.65,14.64-6.73,32.35Z" fill="#002346"></path>
    </g>
    <g>
      <path d="M480.97,628.07s23.45,5.56,27.56,6.04c0,0-.7-15.35,3.03-17.7,0,0,8.81-5.97,2.04-6.7,0,0-5.07-.96-4.08-4.59,0,0-.39-1.37-5.4-1.82-1.41-.13-2.79-.43-4.12-.9l-10.28-3.56s.9,25.36-8.74,29.23Z" fill="#e6e7e8"></path>
      <path d="M509.05,634.68l-.58-.07c-4.09-.48-26.66-5.83-27.62-6.05l-1.53-.36,1.46-.59c9.2-3.69,8.44-28.49,8.43-28.74l-.03-.73,10.97,3.8c1.3,.45,2.64,.75,4.01,.87,5.09,.46,5.75,1.9,5.83,2.18l.04,.13-.04,.13c-.2,.75-.13,1.39,.23,1.97,.93,1.5,3.44,2,3.46,2,1.71,.18,2.68,.73,2.91,1.66,.55,2.2-3.87,5.33-4.77,5.94-2.87,1.81-3,13.08-2.81,17.26l.03,.59Zm-26.66-6.79c4.77,1.12,21.08,4.93,25.61,5.64-.11-3.15-.28-15.3,3.29-17.54,1.97-1.33,4.63-3.73,4.34-4.86-.11-.46-.86-.78-2.09-.92-.16-.03-2.99-.59-4.16-2.46-.48-.76-.61-1.62-.4-2.56-.22-.24-1.21-1.07-4.91-1.4-1.45-.14-2.87-.45-4.24-.92l-9.6-3.33c.07,4.08-.03,23.37-7.83,28.34Z" fill="#002346"></path>
    </g>
    <g>
      <path d="M579.3,645.95s-2.9,1.94-17.15-2.17c0,0-2.65-1.21-15.94-.73,0,0-2.91,.73-14.5-.97,0,0-21.24,2.66-23.19-7.96,0,0-.68-16.99,3.03-17.7,0,0,8.81-6.22,2.04-6.7,0,0-4.72-.7-4.27-3.91,.06-.6-.27-1.16-.82-1.4-.89-.44-2.61-.98-5.89-1.29,0,0,5.48-7.13,11.28-9.33h0c1.89-.85,4.05-.85,5.94,0l7.01,4.35s8.45,4.08,17.15,3.38c0,0,29.47,.48,35.27,14.97,.03,0,9.45,19.8,.03,29.46Z" fill="#5ee0be"></path>
      <path d="M576.29,646.92c-2.55,0-6.93-.54-14.29-2.66-.09-.03-2.93-1.18-15.74-.71-.48,.1-3.79,.61-14.57-.97-1.57,.19-21.7,2.39-23.67-8.38-.12-2.95-.5-17.24,3.31-18.26,1.99-1.42,4.59-3.85,4.28-4.93-.12-.43-.85-.72-2.07-.8-1.84-.27-5.14-1.55-4.73-4.48,.04-.36-.17-.72-.52-.88-.81-.4-2.45-.94-5.73-1.25l-.9-.09,.55-.72c.23-.3,5.63-7.27,11.5-9.49,1.99-.9,4.3-.89,6.32,.01l7.07,4.38s8.38,3.99,16.85,3.31c1.26,.02,29.9,.65,35.77,15.27,.53,1.08,9.39,20.31-.07,30.01l-.08,.07c-.15,.1-.96,.55-3.28,.55Zm-24.32-4.48c8.33,0,10.29,.84,10.38,.88,12.75,3.67,16.25,2.4,16.64,2.22,8.39-8.71,1.19-25.83,0-28.47h-.03s-.17-.41-.17-.41c-5.61-14.01-34.52-14.65-34.81-14.66-8.69,.71-17.01-3.26-17.36-3.43l-7.05-4.38c-1.7-.76-3.71-.76-5.47,.03-4.56,1.73-8.98,6.64-10.52,8.47,2.27,.27,4.04,.7,5.14,1.24,.73,.32,1.17,1.09,1.09,1.9-.38,2.7,3.81,3.36,3.85,3.37,1.7,.12,2.67,.62,2.92,1.53,.6,2.16-3.85,5.44-4.75,6.07l-.19,.08c-2.39,.46-2.88,10.79-2.62,17.19,1.84,9.97,22.42,7.51,22.63,7.49h.07s.07,0,.07,0c11.25,1.65,14.28,.99,14.31,.98h.1c2.2-.09,4.12-.13,5.78-.13Z" fill="#002346"></path>
    </g>
    <g>
      <path d="M579.3,645.95c9.42-9.66,0-29.47,0-29.47-5.8-14.49-35.27-14.97-35.27-14.97-8.7,.72-17.15-3.38-17.15-3.38l-7.01-4.35c-1.89-.85-4.05-.85-5.94,0,.22-.23,7.5-7.6,18.71,0,7.14,3.82,15.34,5.17,23.32,3.84,0,0,21.86-3.37,33.01,14.75,4.11,6.49,5.54,14.33,3.99,21.86-1.32,6-4.81,12.21-13.66,11.73Z" fill="#fff"></path>
      <path d="M580.24,646.48c-.32,0-.64,0-.97-.03l-1.1-.06,.77-.79c9.06-9.3,0-28.71-.09-28.91-5.62-14.05-34.53-14.68-34.83-14.69-8.68,.72-17.01-3.26-17.36-3.43l-7.05-4.38c-1.7-.76-3.71-.76-5.47,.03l-2.36,1.06,1.8-1.87c.31-.33,7.81-7.88,19.35-.07,6.96,3.72,15.12,5.07,22.96,3.76,.23-.03,22.32-3.21,33.51,14.98,4.2,6.63,5.64,14.53,4.05,22.22-1.76,7.97-6.31,12.16-13.21,12.16Zm-36.25-45.47c1.27,.02,29.92,.65,35.77,15.28,.37,.77,8.96,19.16,.63,29.18,6.36-.05,10.42-3.87,12.07-11.36,1.53-7.43,.14-15.07-3.92-21.48-10.84-17.62-32.29-14.56-32.51-14.53-8.04,1.34-16.44-.04-23.63-3.89-7.71-5.22-13.44-3.25-16.23-1.54,1.32-.12,2.66,.09,3.89,.65l7.07,4.38s8.39,3.99,16.85,3.31Z" fill="#002346"></path>
    </g>
    <g>
      <path d="M330.35,586.97s-22.46,.52-22.72,25.81c0,0-2.61,15.9,2.34,20.07,0,0,6.26,2.61,17.2-2.34,0,0,8.87-2.25,14.08-2.45,0,0,31.04-1.47,35.12-5.91,0,0,.78-16.27-3.99-20.65l-5.72-1.39c-5.52-.95-10.9-2.6-16-4.9l-14.63-6.71-5.68-1.53Z" fill="#5ee0be"></path>
      <path d="M314.71,634.05c-3.09,0-4.8-.69-4.94-.74l-.13-.08c-5.11-4.3-2.62-19.87-2.52-20.53,.26-25.4,22.98-26.22,23.21-26.23h.07s.07,.02,.07,.02l5.69,1.53,14.71,6.74c5.06,2.29,10.4,3.92,15.88,4.86l5.88,1.43,.09,.09c4.89,4.49,4.19,20.37,4.16,21.04v.18s-.13,.13-.13,.13c-4.17,4.53-34.19,6.01-35.47,6.07-5.1,.19-13.89,2.41-13.98,2.44-5.36,2.43-9.61,3.06-12.58,3.06Zm-4.49-1.64c.7,.25,6.75,2.16,16.74-2.36,.45-.12,9.07-2.3,14.27-2.5,10.53-.5,31.14-2.31,34.65-5.62,.06-1.81,.43-15.94-3.75-19.98l-5.59-1.36c-5.53-.95-10.95-2.61-16.09-4.93l-14.63-6.72-5.53-1.48c-1.6,.06-21.92,1.27-22.17,25.31-.03,.23-2.49,15.61,2.1,19.63Z" fill="#002346"></path>
    </g>
    <g>
      <path d="M398.08,616.41c-1.13-3-2-6.09-2.6-9.24l-23.13-5.66s4.15,4.48,3.99,20.65c0,0,12.87-2.37,21.74-5.75Z" fill="#e6e7e8"></path>
      <path d="M375.84,622.77v-.61c.16-15.69-3.82-20.26-3.86-20.31l-1.09-1.21,25.03,6.12,.06,.32c.59,3.11,1.45,6.19,2.57,9.15l.18,.47-.47,.18c-8.8,3.36-21.69,5.75-21.82,5.78l-.6,.11Zm-2.35-20.46c1.21,2.14,3.4,7.63,3.36,19.25,2.58-.5,12.98-2.61,20.59-5.44-1.02-2.77-1.82-5.64-2.39-8.54l-21.57-5.28Z" fill="#002346"></path>
    </g>
    <g>
      <path d="M398.08,616.41l14.91-4.96-17.51-4.28s1.04,6.1,2.6,9.24Z" fill="#f2b3c1"></path>
      <path d="M397.82,617.03l-.19-.39c-1.57-3.17-2.6-9.12-2.64-9.38l-.13-.75,19.94,4.87-16.98,5.64Zm-1.71-9.18c.31,1.63,1.13,5.52,2.23,7.96l12.85-4.27-15.07-3.68Z" fill="#002346"></path>
    </g>
    <g>
      <path d="M485.7,505.85l-7.21,5.02-4.21,9.37c-.09,.21,.13,.41,.33,.3l107.58-61.05,4.39-13.16c-19.18,9.43-39.48,20.42-60.44,33.18-14.43,8.75-27.92,17.58-40.42,26.34Z" fill="#fff"></path>
      <path d="M474.49,521.07c-.18,0-.35-.06-.49-.19-.24-.21-.31-.55-.18-.84l4.27-9.5,7.33-5.09c12.9-9.04,26.51-17.91,40.45-26.36,19.63-11.94,39.98-23.11,60.48-33.2l1.07-.53-4.83,14.47-107.75,61.14c-.11,.07-.24,.1-.36,.1Zm-.13-.97h0Zm4.53-8.9l-3.82,8.5,106.71-60.55,3.95-11.84c-20.12,9.94-40.07,20.91-59.33,32.63-13.93,8.44-27.52,17.3-40.4,26.32h0s-7.1,4.94-7.1,4.94Z" fill="#002346"></path>
    </g>
    <g>
      <polygon points="582.18 459.47 586.57 446.32 589.05 447.87 584.69 462.61 475.05 523.94 473.98 520.87 582.18 459.47" fill="#e6e7e8"></polygon>
      <path d="M474.78,524.66l-1.4-4.02,108.4-61.51,4.53-13.58,3.34,2.09-4.53,15.3-.18,.1-110.16,61.62Zm-.19-3.56l.74,2.11,108.94-60.94,4.2-14.18-1.62-1.01-4.25,12.74-108.01,61.29Z" fill="#002346"></path>
    </g>
    <g>
      <path d="M392.35,471.69s-4.47-3.16-8.84,4.03c-.74,1.22-1.31,2.52-1.79,3.86-2.47,6.89-11.1,33.79,.6,43.54,0,0,8.46,3.51,13.79-4.08,0,0,6.26-1.32,3.76-6.95,0,0-10.41-25.19-2.74-38.76,.14-.25,.13-.55-.05-.78-.77-.99-2.95-3.39-4.73-.85Z" fill="#5ee0be"></path>
      <path d="M386.88,524.41c-2.7,0-4.71-.81-4.76-.83l-.13-.08c-11.82-9.85-3.57-36.24-.75-44.09,.54-1.52,1.14-2.81,1.83-3.95,1.69-2.79,3.61-4.42,5.71-4.85,1.58-.32,2.82,.12,3.44,.43,.55-.63,1.18-.96,1.87-.98h.05c1.43,0,2.69,1.36,3.32,2.17,.29,.38,.33,.91,.09,1.33-7.47,13.21,2.66,38.07,2.77,38.32,.78,1.76,.84,3.33,.16,4.65-1.02,2-3.38,2.75-4.08,2.93-2.86,3.97-6.59,4.93-9.52,4.93Zm-4.3-1.72c.85,.33,8.28,2.96,13.12-3.94l.11-.16,.19-.04s2.64-.58,3.6-2.46c.53-1.04,.46-2.32-.19-3.79-.43-1.05-10.42-25.58-2.72-39.21,.04-.08,.04-.17,0-.23-.42-.55-1.55-1.79-2.56-1.79-.49,.01-.94,.31-1.36,.92l-.29,.41-.41-.29c-.06-.04-1.31-.88-3.1-.5-1.8,.38-3.5,1.86-5.03,4.39-.65,1.08-1.23,2.31-1.75,3.76-1.96,5.47-11.13,33.21,.39,42.93Z" fill="#002346"></path>
    </g>
    <g>
      <path d="M430.96,615.85s.07,1.4,.26,2.88c.23,1.66,1.51,2.98,3.16,3.27l14.51,2.52s2.51,.63,2.66-5.64c0,0,2.35-26.31,8.31-34.31,0,0,1.25-1.89-2.51-3.77,0,0-10.62-8.87-12.91-3.27l-1.02,1.54h0c.69,.76,.72,1.92,.04,2.69-2.09,2.35-6.14,9.96-10.2,34.55l-2.3-.47Z" fill="#5ee0be"></path>
      <path d="M449.08,625.04c-.17,0-.28-.03-.31-.03l-14.47-2.52c-1.87-.32-3.31-1.81-3.57-3.69-.19-1.49-.26-2.87-.27-2.93l-.03-.65,2.43,.5c4.06-24.37,8.15-31.94,10.24-34.29,.51-.57,.49-1.44-.04-2.02l-.26-.29,1.24-1.86c.4-1.01,1.16-1.7,2.22-1.96,3.9-.98,10.7,4.52,11.38,5.08,1.61,.82,2.57,1.76,2.85,2.8,.25,.94-.15,1.59-.2,1.66-5.82,7.81-8.2,33.81-8.23,34.08-.07,2.92-.67,4.84-1.77,5.68-.47,.36-.92,.43-1.2,.43Zm-17.58-8.57c.04,.54,.11,1.36,.22,2.2,.2,1.44,1.31,2.59,2.75,2.84l14.51,2.52s.35,.06,.73-.24c.47-.38,1.26-1.51,1.35-4.92,.1-1.11,2.44-26.57,8.41-34.59h0s.19-.34,.05-.86c-.15-.52-.68-1.31-2.38-2.16l-.1-.06c-.07-.06-7-5.81-10.54-4.92-.74,.18-1.26,.66-1.58,1.46l-.87,1.32c.63,.94,.56,2.19-.2,3.04-2.03,2.28-6.04,9.77-10.08,34.3l-.08,.51-2.17-.45Z" fill="#002346"></path>
    </g>
    <g>
      <path d="M501.05,473.57l15.35,4.08s14.1-8.76,18.79-7.51c0,0,7.07,.24,12.42-1.74,.58-.22,1.22,.08,1.44,.65,.11,.29,.09,.61-.04,.89-1.73,3.46-6.63,8.98-20.08,7.71l-43.22,28.2-4.74-1.88c-1.44-4.39-3.83-8.41-6.98-11.78,0,0,5.7-23.47,27.07-18.62Z" fill="#f2b3c1"></path>
      <path d="M485.76,506.41l-5.2-2.06-.07-.22c-1.41-4.29-3.79-8.3-6.87-11.59l-.19-.2,.06-.26c.06-.24,6.07-23.9,27.67-18.99h.02s15.14,4.03,15.14,4.03c1.75-1.07,14.29-8.63,18.93-7.47,.66,.02,7.22,.12,12.17-1.71,.83-.32,1.77,.11,2.08,.95,.16,.42,.13,.89-.06,1.29-1.77,3.53-6.77,9.24-20.4,8l-43.29,28.24Zm-4.39-2.82l4.28,1.7,43.15-28.15,.17,.02c13.16,1.25,17.92-4.12,19.58-7.44,.07-.15,.08-.33,.02-.49-.12-.32-.48-.48-.8-.36-5.38,1.99-12.32,1.78-12.61,1.77l-.11-.02c-3.67-.98-14.52,5.05-18.39,7.46l-.18,.11-15.55-4.14c-19.68-4.46-25.69,15.35-26.4,18,3.04,3.3,5.4,7.28,6.83,11.54Z" fill="#002346"></path>
    </g>
    <g>
      <ellipse cx="381.97" cy="300.62" rx="6.13" ry="8.58" transform="translate(-30.98 44.22) rotate(-6.37)" fill="#f2b3c1"></ellipse>
      <path d="M382.43,309.67c-3.42,0-6.52-3.59-7.05-8.32-.55-4.97,1.95-9.35,5.58-9.76,3.62-.4,7.04,3.31,7.59,8.29h0c.27,2.38-.15,4.7-1.17,6.53-1.05,1.88-2.62,3.03-4.41,3.23-.18,.02-.36,.03-.54,.03Zm-.92-17.1c-.15,0-.29,0-.44,.02-3.08,.34-5.19,4.22-4.7,8.65,.49,4.43,3.41,7.74,6.49,7.4,1.46-.16,2.76-1.13,3.65-2.72,.92-1.65,1.29-3.75,1.05-5.93h0c-.47-4.21-3.13-7.43-6.05-7.43Z" fill="#002346"></path>
    </g>
    <path d="M387.69,515.94c-.21,0-.4-.13-.47-.34-8.15-23.64,4.59-43.97,4.72-44.17,.15-.23,.46-.3,.69-.15,.23,.15,.3,.46,.15,.69-.13,.2-12.6,20.14-4.61,43.31,.09,.26-.05,.55-.31,.64-.05,.02-.11,.03-.16,.03Z" fill="#002346"></path>
    <path d="M473.45,480c-.11,0-.22-.04-.31-.11-.22-.17-.25-.49-.08-.7,12.26-15.53,24.65-15.81,25.17-15.82,.29,.03,.5,.22,.5,.5,0,.28-.22,.5-.49,.5-.12,0-12.45,.31-24.4,15.44-.1,.12-.25,.19-.39,.19Z" fill="#002346"></path>
  </g>
  <g>
    <path d="M222.6,272.25H52.52V35.97H222.6v236.27Zm-169.06-1.02H221.58V36.99H53.54v234.24Z" fill="#002346"></path>
    <path d="M215.98,262.57H60.16V46.67H215.98v215.91Zm-154.8-1.02H214.96V47.69H61.18v213.87Z" fill="#002346"></path>
    <path d="M79.68,263.02l-.55-.86c27.09-17.43,31.86-64.29,32.65-83.63,.43-10.41,1.41-19.81,3.01-28.74,8.19-45.74,28.28-71.13,43.69-84.38,16.72-14.37,31.73-17.96,31.88-17.99l.23,.99c-.15,.03-14.96,3.58-31.49,17.81-15.27,13.14-35.17,38.33-43.3,83.74-1.59,8.88-2.57,18.24-2.99,28.6-.8,19.5-5.62,66.76-33.11,84.44Z" fill="#002346"></path>
    <path d="M203.76,258.5c-37.06,0-67.22-30.15-67.22-67.22s30.15-67.22,67.22-67.22c3.96,0,7.93,.35,11.8,1.03l-.18,1c-3.81-.67-7.72-1.02-11.62-1.02-36.5,0-66.2,29.7-66.2,66.2s29.7,66.2,66.2,66.2c4.09,0,8.2-.38,12.19-1.12l.19,1c-4.05,.75-8.22,1.14-12.37,1.14Z" fill="#002346"></path>
    <path d="M61.47,138.44l-.42-.93c23.59-10.72,38.83-34.39,38.83-60.29,0-10.49-2.38-20.52-7.08-29.82l.91-.46c4.77,9.44,7.19,19.62,7.19,30.27,0,26.3-15.47,50.33-39.42,61.22Z" fill="#002346"></path>
    <path d="M174.73,205.54c-12.63,0-22.91-5.53-22.91-12.34s10.28-12.34,22.91-12.34,22.91,5.53,22.91,12.34-10.28,12.34-22.91,12.34Zm0-23.93c-12.07,0-21.9,5.2-21.9,11.59s9.82,11.59,21.9,11.59,21.9-5.2,21.9-11.59-9.82-11.59-21.9-11.59Z" fill="#002346"></path>
    <path d="M174.22,195.36c-5.05,0-9.17-2.74-9.17-6.11s4.11-6.11,9.17-6.11,9.17,2.74,9.17,6.11-4.11,6.11-9.17,6.11Zm0-11.2c-4.49,0-8.15,2.28-8.15,5.09s3.65,5.09,8.15,5.09,8.15-2.28,8.15-5.09-3.65-5.09-8.15-5.09Z" fill="#002346"></path>
    <path d="M181.86,109.81c-12.63,0-22.91-7.54-22.91-16.8s10.28-16.8,22.91-16.8,22.91,7.54,22.91,16.8-10.28,16.8-22.91,16.8Zm0-32.59c-12.07,0-21.9,7.08-21.9,15.79s9.82,15.79,21.9,15.79,21.9-7.08,21.9-15.79-9.82-15.79-21.9-15.79Z" fill="#002346"></path>
    <path d="M181.35,99.63c-5.05,0-9.17-2.74-9.17-6.11s4.11-6.11,9.17-6.11,9.17,2.74,9.17,6.11-4.11,6.11-9.17,6.11Zm0-11.2c-4.49,0-8.15,2.28-8.15,5.09s3.65,5.09,8.15,5.09,8.15-2.28,8.15-5.09-3.65-5.09-8.15-5.09Z" fill="#002346"></path>
    <path d="M85.11,217.76c-9.27,0-16.8-10.28-16.8-22.91s7.54-22.91,16.8-22.91,16.8,10.28,16.8,22.91-7.54,22.91-16.8,22.91Zm0-44.81c-8.7,0-15.79,9.82-15.79,21.9s7.08,21.9,15.79,21.9,15.79-9.82,15.79-21.9-7.08-21.9-15.79-21.9Z" fill="#002346"></path>
    <path d="M85.62,204.52c-3.37,0-6.11-4.11-6.11-9.17s2.74-9.17,6.11-9.17,6.11,4.11,6.11,9.17-2.74,9.17-6.11,9.17Zm0-17.31c-2.81,0-5.09,3.65-5.09,8.15s2.28,8.15,5.09,8.15,5.09-3.65,5.09-8.15-2.28-8.15-5.09-8.15Z" fill="#002346"></path>
  </g>
  <g>
    <g>
      <rect x="148.74" y="596.2" width="15.44" height="27.83" fill="#e6e7e8"></rect>
      <path d="M164.52,624.38h-16.13v-28.53h16.13v28.53Zm-15.44-.69h14.74v-27.14h-14.74v27.14Z" fill="#002346"></path>
    </g>
    <g>
      <rect x="80.52" y="596.2" width="15.44" height="27.83" fill="#e6e7e8"></rect>
      <path d="M96.31,624.38h-16.13v-28.53h16.13v28.53Zm-15.44-.69h14.74v-27.14h-14.74v27.14Z" fill="#002346"></path>
    </g>
    <g>
      <path d="M198.1,429.35H74.9c-2.57,0-4.66,2.08-4.66,4.66v157.55c0,2.57,2.08,4.66,4.66,4.66h123.21s0-166.86,0-166.86Z" fill="#e6e7e8"></path>
      <path d="M198.45,596.55H74.9c-2.76,0-5-2.24-5-5v-157.55c0-2.76,2.24-5,5-5h123.55v167.55Zm-123.55-166.86c-2.38,0-4.31,1.93-4.31,4.31v157.55c0,2.38,1.93,4.31,4.31,4.31h122.86v-166.16H74.9Z" fill="#002346"></path>
    </g>
    <g>
      <rect x="96.98" y="429.35" width="124.55" height="166.86" rx="4.66" ry="4.66" fill="#fff"></rect>
      <path d="M216.87,596.55H101.63c-2.76,0-5-2.24-5-5v-157.55c0-2.76,2.24-5,5-5h115.24c2.76,0,5,2.24,5,5v157.55c0,2.76-2.24,5-5,5Zm-115.24-166.86c-2.38,0-4.31,1.93-4.31,4.31v157.55c0,2.38,1.93,4.31,4.31,4.31h115.24c2.38,0,4.31-1.93,4.31-4.31v-157.55c0-2.38-1.93-4.31-4.31-4.31H101.63Z" fill="#002346"></path>
    </g>
    <g>
      <rect x="195.09" y="596.2" width="15.44" height="27.83" fill="#fff"></rect>
      <path d="M210.87,624.38h-16.13v-28.53h16.13v28.53Zm-15.44-.69h14.74v-27.14h-14.74v27.14Z" fill="#002346"></path>
    </g>
    <g>
      <rect x="106.32" y="596.2" width="15.44" height="27.83" fill="#fff"></rect>
      <path d="M122.1,624.38h-16.13v-28.53h16.13v28.53Zm-15.44-.69h14.74v-27.14h-14.74v27.14Z" fill="#002346"></path>
    </g>
    <g>
      <path d="M209.38,479.5H111.58c-2.76,0-5-2.24-5-5v-32.17c0-2.76,2.24-5,5-5h97.8c2.76,0,5,2.24,5,5v32.17c0,2.76-2.24,5-5,5Zm-97.8-41.49c-2.38,0-4.31,1.93-4.31,4.31v32.17c0,2.38,1.93,4.31,4.31,4.31h97.8c2.38,0,4.31-1.93,4.31-4.31v-32.17c0-2.38-1.93-4.31-4.31-4.31H111.58Z" fill="#002346"></path>
      <path d="M160.48,462.92c-2.49,0-4.51-2.02-4.51-4.51s2.02-4.51,4.51-4.51,4.51,2.02,4.51,4.51-2.02,4.51-4.51,4.51Zm0-8.32c-2.1,0-3.82,1.71-3.82,3.82s1.71,3.82,3.82,3.82,3.82-1.71,3.82-3.82-1.71-3.82-3.82-3.82Z" fill="#002346"></path>
    </g>
    <g>
      <path d="M207.57,586.33H110.94c-3.08,0-5.59-2.51-5.59-5.59v-90.03c0-2.76,2.24-5,5-5h97.22c3.08,0,5.59,2.51,5.59,5.59v89.45c0,3.08-2.51,5.59-5.59,5.59Zm-97.22-99.93c-2.38,0-4.31,1.93-4.31,4.31v90.03c0,2.7,2.2,4.89,4.89,4.89h96.63c2.7,0,4.89-2.2,4.89-4.89v-89.45c0-2.7-2.2-4.89-4.89-4.89H110.35Z" fill="#002346"></path>
      <path d="M159.25,569.75c-2.49,0-4.51-2.02-4.51-4.51s2.02-4.51,4.51-4.51,4.51,2.02,4.51,4.51-2.02,4.51-4.51,4.51Zm0-8.32c-2.1,0-3.82,1.71-3.82,3.82s1.71,3.82,3.82,3.82,3.82-1.71,3.82-3.82-1.71-3.82-3.82-3.82Z" fill="#002346"></path>
    </g>
    <g>
      <g>
        <path d="M145.98,382.24s-1.13-25.81,1.71-38.57c.48-2.15,1.49-4.15,2.96-5.79,5.78-6.5,23.71-26.31,38.95-39.09,0,0-14.27-2.97-27.75,5.15v8.72l-2.98-6.94s-16.65,9.91-15.06,37.07l.79,26.16,1.39,13.29Z" fill="#7cd295"></path>
        <path d="M145.63,382.27l-1.39-13.29-.79-26.19c-1.58-27.04,15.06-37.27,15.23-37.37l.34-.2,2.47,5.75v-7.23l.17-.1c13.44-8.1,27.86-5.23,28-5.2l.7,.15-.55,.46c-14.89,12.49-32.17,31.47-38.91,39.05-1.42,1.6-2.41,3.55-2.88,5.64-2.8,12.57-1.71,38.22-1.7,38.48l-.69,.05Zm13.07-76.03c-2.33,1.6-15.99,12.05-14.56,36.53l.79,26.17,.49,4.72c-.09-8.71,.13-22.03,1.92-30.07,.49-2.2,1.54-4.26,3.03-5.95,6.66-7.49,23.62-26.12,38.41-38.64-3.05-.45-15.16-1.68-26.61,5.13v10.21l-3.48-8.11Z" fill="#002346"></path>
      </g>
      <g>
        <path d="M174.23,403.74c0,12.52-8.97,23.24-21.29,25.46h0c-14.08,2.51-27.52-6.87-30.03-20.94-.27-1.49-.4-3-.4-4.52,0-6.33,2.31-12.43,6.51-17.16l28.02-.19,10.45-.08c4.35,4.76,6.76,10.98,6.75,17.43Z" fill="#5ee0be"></path>
        <path d="M148.34,429.96c-5.32,0-10.5-1.62-14.95-4.72-5.75-4.01-9.59-10.02-10.82-16.92-.27-1.51-.41-3.05-.41-4.58,0-6.42,2.33-12.6,6.59-17.39l.1-.12,38.78-.27,.1,.11c4.42,4.84,6.85,11.11,6.84,17.67,0,12.7-9.07,23.55-21.58,25.8-1.56,.28-3.11,.41-4.66,.41Zm-19.17-43.03c-4.08,4.65-6.33,10.62-6.32,16.82,0,1.49,.14,2.99,.4,4.46,1.2,6.72,4.94,12.57,10.54,16.47,5.6,3.9,12.38,5.39,19.09,4.2,12.17-2.19,21-12.75,21-25.12h0c.01-6.33-2.32-12.39-6.56-17.09l-38.16,.27Z" fill="#002346"></path>
      </g>
      <g>
        <path d="M142.9,386.49v-2.34c.04-3.09-1.19-6.06-3.39-8.22l-39.18-38.51s18.85-2.38,27.82,5.13l.19,10.25,3.11-8.05s16.84,7.14,15.37,41.73l-3.91,.03Z" fill="#7cd295"></path>
        <path d="M142.55,386.84v-2.69c.04-2.98-1.16-5.89-3.29-7.97l-39.69-39.01,.71-.09c.78-.1,19.1-2.31,28.08,5.21l.12,.1,.16,8.63,2.6-6.74,.33,.14c.17,.07,17.04,7.63,15.58,42.06v.33s-4.61,.03-4.61,.03Zm-41.46-49.16l38.66,37.99c2.26,2.22,3.53,5.31,3.5,8.47v1.99l3.23-.02c1.21-31.03-12.55-39.68-14.85-40.9l-3.61,9.35-.22-11.86c-7.8-6.39-23.19-5.36-26.71-5.02Z" fill="#002346"></path>
      </g>
      <g>
        <path d="M152.12,386.42l2.14-17.53c.15-1.25,.7-2.42,1.55-3.34,5.61-6.01,27.81-29.53,40.7-40.2,0,0-14.87-1.39-28.14,5.35l-.4,9.32-2.98-7.14s-14.47,8.13-14.87,36.45v17.08h1.98Z" fill="#7cd295"></path>
        <path d="M152.43,386.77l-2.64-.02v-17.42c.39-28.2,14.9-36.67,15.04-36.75l.34-.19,2.53,6.06,.34-7.96,.18-.09c13.21-6.7,28.18-5.4,28.33-5.38l.83,.08-.65,.53c-13.22,10.95-36.2,35.38-40.67,40.17-.81,.87-1.32,1.96-1.46,3.14l-2.18,17.84Zm-1.94-.71h1.33s2.11-17.21,2.11-17.21c.16-1.33,.73-2.55,1.64-3.53,4.4-4.71,26.73-28.45,40.07-39.67-3.33-.16-15.73-.33-26.92,5.28l-.45,10.67-3.42-8.2c-2.15,1.45-14,10.57-14.36,35.94v16.73Z" fill="#002346"></path>
      </g>
    </g>
  </g>
  <g>
    <rect x="623.05" y="60.29" width="146.51" height="163.45" fill="#183153"></rect>
    <path d="M770.06,224.24h-147.51V59.79h147.51V224.24Zm-146.51-1h145.51V60.79h-145.51V223.24Z" fill="#002346"></path>
  </g>
  <g>
    <rect x="632.69" y="69.95" width="127.2" height="144.23" fill="#fff"></rect>
    <path d="M760.39,214.68h-128.2V69.45h128.2V214.68Zm-127.2-1h126.2V70.45h-126.2V213.68Z" fill="#002346"></path>
  </g>
  <g>
    <g>
      <rect x="697.86" y="128.57" width="53.05" height="62.87" fill="#e6e7e8"></rect>
      <path d="M751.41,191.94h-54.05v-63.87h54.05v63.87Zm-53.05-1h52.05v-61.87h-52.05v61.87Z" fill="#002346"></path>
    </g>
    <path d="M726,137.05c.01,.89-.71,1.63-1.6,1.64s-1.63-.71-1.64-1.6,.71-1.63,1.6-1.64c0,0,0,0,0,0h0c.89-.01,1.62,.7,1.63,1.59,0,0,0,0,0,.01Z" fill="#002346"></path>
    <path d="M717.04,144.76h-11.28c-.28,0-.5-.22-.5-.5s.22-.5,.5-.5h11.28c.28,0,.5,.22,.5,.5s-.22,.5-.5,.5Z" fill="#002346"></path>
    <path d="M741.04,144.76h-11.28c-.28,0-.5-.22-.5-.5s.22-.5,.5-.5h11.28c.28,0,.5,.22,.5,.5s-.22,.5-.5,.5Z" fill="#002346"></path>
    <path d="M741.04,150.33h-11.28c-.28,0-.5-.22-.5-.5s.22-.5,.5-.5h11.28c.28,0,.5,.22,.5,.5s-.22,.5-.5,.5Z" fill="#002346"></path>
    <path d="M717.04,150.33h-11.28c-.28,0-.5-.22-.5-.5s.22-.5,.5-.5h11.28c.28,0,.5,.22,.5,.5s-.22,.5-.5,.5Z" fill="#002346"></path>
    <path d="M717.04,155.9h-11.28c-.28,0-.5-.22-.5-.5s.22-.5,.5-.5h11.28c.28,0,.5,.22,.5,.5s-.22,.5-.5,.5Z" fill="#002346"></path>
    <path d="M741.04,155.9h-11.28c-.28,0-.5-.22-.5-.5s.22-.5,.5-.5h11.28c.28,0,.5,.22,.5,.5s-.22,.5-.5,.5Z" fill="#002346"></path>
    <path d="M741.04,161.47h-11.28c-.28,0-.5-.22-.5-.5s.22-.5,.5-.5h11.28c.28,0,.5,.22,.5,.5s-.22,.5-.5,.5Z" fill="#002346"></path>
    <path d="M717.04,161.47h-11.28c-.28,0-.5-.22-.5-.5s.22-.5,.5-.5h11.28c.28,0,.5,.22,.5,.5s-.22,.5-.5,.5Z" fill="#002346"></path>
    <path d="M717.04,167.04h-11.28c-.28,0-.5-.22-.5-.5s.22-.5,.5-.5h11.28c.28,0,.5,.22,.5,.5s-.22,.5-.5,.5Z" fill="#002346"></path>
    <path d="M741.04,167.04h-11.28c-.28,0-.5-.22-.5-.5s.22-.5,.5-.5h11.28c.28,0,.5,.22,.5,.5s-.22,.5-.5,.5Z" fill="#002346"></path>
    <path d="M741.04,172.61h-11.28c-.28,0-.5-.22-.5-.5s.22-.5,.5-.5h11.28c.28,0,.5,.22,.5,.5s-.22,.5-.5,.5Z" fill="#002346"></path>
    <path d="M717.04,172.61h-11.28c-.28,0-.5-.22-.5-.5s.22-.5,.5-.5h11.28c.28,0,.5,.22,.5,.5s-.22,.5-.5,.5Z" fill="#002346"></path>
    <path d="M717.04,178.19h-11.28c-.28,0-.5-.22-.5-.5s.22-.5,.5-.5h11.28c.28,0,.5,.22,.5,.5s-.22,.5-.5,.5Z" fill="#002346"></path>
    <path d="M741.04,178.19h-11.28c-.28,0-.5-.22-.5-.5s.22-.5,.5-.5h11.28c.28,0,.5,.22,.5,.5s-.22,.5-.5,.5Z" fill="#002346"></path>
    <path d="M741.04,183.76h-11.28c-.28,0-.5-.22-.5-.5s.22-.5,.5-.5h11.28c.28,0,.5,.22,.5,.5s-.22,.5-.5,.5Z" fill="#002346"></path>
    <path d="M717.04,183.76h-11.28c-.28,0-.5-.22-.5-.5s.22-.5,.5-.5h11.28c.28,0,.5,.22,.5,.5s-.22,.5-.5,.5Z" fill="#002346"></path>
  </g>
  <g>
    <g>
      <rect x="639.86" y="94.57" width="53.05" height="62.87" fill="#e6e7e8"></rect>
      <path d="M693.41,157.94h-54.05v-63.87h54.05v63.87Zm-53.05-1h52.05v-61.87h-52.05v61.87Z" fill="#002346"></path>
    </g>
    <path d="M668,103.05c.01,.89-.71,1.63-1.6,1.64s-1.63-.71-1.64-1.6,.71-1.63,1.6-1.64c0,0,0,0,0,0h0c.89-.01,1.62,.7,1.63,1.59,0,0,0,0,0,.01Z" fill="#002346"></path>
    <path d="M659.04,110.76h-11.28c-.28,0-.5-.22-.5-.5s.22-.5,.5-.5h11.28c.28,0,.5,.22,.5,.5s-.22,.5-.5,.5Z" fill="#002346"></path>
    <path d="M683.04,110.76h-11.28c-.28,0-.5-.22-.5-.5s.22-.5,.5-.5h11.28c.28,0,.5,.22,.5,.5s-.22,.5-.5,.5Z" fill="#002346"></path>
    <path d="M683.04,116.33h-11.28c-.28,0-.5-.22-.5-.5s.22-.5,.5-.5h11.28c.28,0,.5,.22,.5,.5s-.22,.5-.5,.5Z" fill="#002346"></path>
    <path d="M659.04,116.33h-11.28c-.28,0-.5-.22-.5-.5s.22-.5,.5-.5h11.28c.28,0,.5,.22,.5,.5s-.22,.5-.5,.5Z" fill="#002346"></path>
    <path d="M659.04,121.9h-11.28c-.28,0-.5-.22-.5-.5s.22-.5,.5-.5h11.28c.28,0,.5,.22,.5,.5s-.22,.5-.5,.5Z" fill="#002346"></path>
    <path d="M683.04,121.9h-11.28c-.28,0-.5-.22-.5-.5s.22-.5,.5-.5h11.28c.28,0,.5,.22,.5,.5s-.22,.5-.5,.5Z" fill="#002346"></path>
    <path d="M683.04,127.47h-11.28c-.28,0-.5-.22-.5-.5s.22-.5,.5-.5h11.28c.28,0,.5,.22,.5,.5s-.22,.5-.5,.5Z" fill="#002346"></path>
    <path d="M659.04,127.47h-11.28c-.28,0-.5-.22-.5-.5s.22-.5,.5-.5h11.28c.28,0,.5,.22,.5,.5s-.22,.5-.5,.5Z" fill="#002346"></path>
    <path d="M659.04,133.04h-11.28c-.28,0-.5-.22-.5-.5s.22-.5,.5-.5h11.28c.28,0,.5,.22,.5,.5s-.22,.5-.5,.5Z" fill="#002346"></path>
    <path d="M683.04,133.04h-11.28c-.28,0-.5-.22-.5-.5s.22-.5,.5-.5h11.28c.28,0,.5,.22,.5,.5s-.22,.5-.5,.5Z" fill="#002346"></path>
    <path d="M683.04,138.61h-11.28c-.28,0-.5-.22-.5-.5s.22-.5,.5-.5h11.28c.28,0,.5,.22,.5,.5s-.22,.5-.5,.5Z" fill="#002346"></path>
    <path d="M659.04,138.61h-11.28c-.28,0-.5-.22-.5-.5s.22-.5,.5-.5h11.28c.28,0,.5,.22,.5,.5s-.22,.5-.5,.5Z" fill="#002346"></path>
    <path d="M659.04,144.19h-11.28c-.28,0-.5-.22-.5-.5s.22-.5,.5-.5h11.28c.28,0,.5,.22,.5,.5s-.22,.5-.5,.5Z" fill="#002346"></path>
    <path d="M683.04,144.19h-11.28c-.28,0-.5-.22-.5-.5s.22-.5,.5-.5h11.28c.28,0,.5,.22,.5,.5s-.22,.5-.5,.5Z" fill="#002346"></path>
    <path d="M683.04,149.76h-11.28c-.28,0-.5-.22-.5-.5s.22-.5,.5-.5h11.28c.28,0,.5,.22,.5,.5s-.22,.5-.5,.5Z" fill="#002346"></path>
    <path d="M659.04,149.76h-11.28c-.28,0-.5-.22-.5-.5s.22-.5,.5-.5h11.28c.28,0,.5,.22,.5,.5s-.22,.5-.5,.5Z" fill="#002346"></path>
  </g>
  <g>
    <rect x="684.91" y="80.84" width="26.98" height="26.98" fill="#183153"></rect>
    <path d="M712.39,108.32h-27.98v-27.98h27.98v27.98Zm-26.98-1h25.98v-25.98h-25.98v25.98Z" fill="#002346"></path>
  </g>
  <path d="M700.02,83.63c0,.89-.73,1.62-1.62,1.62-.89,0-1.62-.73-1.62-1.62s.73-1.62,1.62-1.62h0c.89,0,1.62,.73,1.62,1.62Z" fill="#002346"></path>
</svg>
