<svg id="bf7692c5-832e-4f12-8892-26173df3064f" data-name="Layer 1" xmlns="http://www.w3.org/2000/svg" xmlns:xlink="http://www.w3.org/1999/xlink" width="865.76" height="682.89" viewBox="0 0 865.76 682.89"><defs><clipPath id="fb5e7b78-e6d8-47a5-a67a-38c4b151465d"><ellipse id="a6b0f8de-6aac-407c-9368-9d2b11558b69" data-name="SVGID" cx="256.09" cy="512.7" rx="54.78" ry="27.18" fill="#d1d3d4"/></clipPath><clipPath id="f0847761-ff27-4011-bfd9-bc358a08af55"><path id="f0b88f9c-e63c-41f7-b271-64866a34f111" data-name="SVGID" d="M439.6,601.69s24.79-3.07,20.9,5.15c0,0-27.91,30.29-38.3,21.2,0,0-13-8.87-14.28-8.22,0,0-2,.86,3.32,7.35,0,0,11.18,11.47,6.63,13.63,0,0-1.94,1.74-3.67-1.73,0,0-15.15-20.33-21.42-20.77,0,0-16-1.22-8.53-25.92l1.39,2.67,28.78,14.26S429.3,621.21,439.6,601.69Z" fill="#183153"/></clipPath></defs><path d="M154.26,650.36S61,575.14,72,496.17,172.55,483,194.5,411.55s-59-164.8,14.42-230S350,178.39,395.7,165.23,437.77,50.53,542,48.65,732.71,110.7,694.07,294s80.24,204,96.7,269.83-24.07,88.76-24.07,88.76Z" fill="#183153"/><path d="M154.26,650.36S61,575.14,72,496.17,172.55,483,194.5,411.55s-59-164.8,14.42-230S350,178.39,395.7,165.23,437.77,50.53,542,48.65,732.71,110.7,694.07,294s80.24,204,96.7,269.83-24.07,88.76-24.07,88.76Z" fill="#fff" opacity="0.7"/><rect x="426.29" y="30.27" width="222.79" height="403.02" rx="2.28" fill="#183153"/><rect x="426.29" y="30.27" width="222.79" height="403.02" rx="2.28" fill="#fff" opacity="0.5"/><rect x="431.86" y="40.23" width="213.35" height="373.51" rx="6.85" fill="#183153" opacity="0.19"/><rect x="457.08" y="150.63" width="200.4" height="221.53" rx="1.93" fill="#183153"/><rect x="457.08" y="150.63" width="200.4" height="221.53" rx="1.93" fill="#fff" opacity="0.46"/><path d="M343.06,118.89v95a5.43,5.43,0,0,1-5.43,5.43H304.89v25.06L277.4,219.28H217.16a5.43,5.43,0,0,1-5.43-5.43v-95a5.43,5.43,0,0,1,5.43-5.43H337.63A5.43,5.43,0,0,1,343.06,118.89Z" fill="#183153"/><path d="M343.06,118.89v95a5.43,5.43,0,0,1-5.43,5.43H304.89v25.06L277.4,219.28H217.16a5.43,5.43,0,0,1-5.43-5.43v-95a5.43,5.43,0,0,1,5.43-5.43H337.63A5.43,5.43,0,0,1,343.06,118.89Z" fill="#fff" opacity="0.4"/><polygon points="626.23 432.23 660.84 642.54 647.86 642.54 613.25 432.23 626.23 432.23" fill="#d1d3d4"/><polygon points="608.92 640.8 593.77 434.4 579.06 434.4 595.94 640.8 608.92 640.8" fill="#bcbec0"/><polygon points="304.72 635.61 338.9 432.23 352.32 432.23 318.56 635.61 304.72 635.61" fill="#bcbec0"/><polygon points="321.92 640.8 297.9 527.54 291.74 529.38 314.78 640.8 321.92 640.8" fill="#d1d3d4"/><polygon points="296.61 630.42 281.68 533.38 275.19 535.01 289.14 630.42 296.61 630.42" fill="#d1d3d4"/><polygon points="237.54 534.68 224.56 630.42 217.74 630.42 231.7 533.38 237.54 534.68" fill="#d1d3d4"/><polygon points="199.57 638.21 222.29 529.38 215.15 527.54 192.43 638.21 199.57 638.21" fill="#d1d3d4"/><ellipse id="f1865f75-0ec5-45ce-98e6-7cab199eb52e" data-name="SVGID" cx="256.09" cy="512.7" rx="54.78" ry="27.18" fill="#d1d3d4"/><g clip-path="url(#fb5e7b78-e6d8-47a5-a67a-38c4b151465d)"><path d="M295.63,509.37s.09,17.54-43.49,17.2c0,0-33.06,0-49.79-8.6l-13.82,17s108.72,15.9,110.35,14.28,25.62-37.16,25.62-37.16Z" fill="#bcbec0"/></g><path d="M420.85,317l-23.29,39.49-13.33-10.6,21.7-36.26a1.56,1.56,0,0,1,2-.61l12.17,5.47A1.75,1.75,0,0,1,420.85,317Z" fill="#5ee0be"/><polygon points="418.09 316.27 395.41 354.8 384.23 345.91 405.11 310.86 418.09 316.27" fill="#e6e7e8"/><path d="M296.61,419.69c0,6.92,83,12.54,185.46,12.54s185.48-5.62,185.48-12.54-83-12.55-185.48-12.55S296.61,412.76,296.61,419.69Z" fill="#d1d3d4"/><path d="M296.61,419.69v7a4.3,4.3,0,0,0,3.35,4.21C313.9,434.08,351,437,351,437c65.34,4.75,184.77,3,184.77,3,94.75-1.6,121.41-6.25,128.87-8.59a4.12,4.12,0,0,0,2.89-3.95v-7.8c0,6.92-83,12.54-185.48,12.54S296.61,426.61,296.61,419.69Z" fill="#bcbec0"/><path d="M323.08,261.74s18.2,15.58,7.39,29.65c0,0,6.49,35.05-4.33,48.46,0,0-7.91,9.3-19,8.44l-19.31-23.8s28.35-31.81,31.59-45C319.43,279.49,324.13,270.83,323.08,261.74Z" fill="#5ee0be"/><path d="M323.08,261.74s18.2,15.58,7.39,29.65c0,0,6.49,35.05-4.33,48.46,0,0-7.91,9.3-19,8.44l-19.31-23.8s28.35-31.81,31.59-45C319.43,279.49,324.13,270.83,323.08,261.74Z" opacity="0.2"/><path d="M299.84,331s11.73,4.57,16.46,22.23l10.07,25.71s12,37.1,1.91,36.8c0,0-5.33,2.35-19.28-17.58Z" fill="#183153"/><path d="M299.84,331s11.73,4.57,16.46,22.23l10.07,25.71s12,37.1,1.91,36.8c0,0-5.33,2.35-19.28-17.58Z" opacity="0.2"/><path d="M289.26,294.89a35.42,35.42,0,0,0,2.31,10c2.29,5.77,6.09,9.93,10.86,11.34a11.88,11.88,0,0,0,1.46.33c10.63,1.81,21.53-10.3,24.36-27s-3.51-31.73-14.14-33.52-21.54,10.3-24.36,27A46,46,0,0,0,289.26,294.89Z" fill="#f9b499"/><path d="M275.45,321.09l8.67.33a12.71,12.71,0,0,1,4.89,0h0a6.1,6.1,0,0,1,5.14,4.27c.07.2.1.31.1.31a17.09,17.09,0,0,0,3.29,6.34c5,6.27,9.61,11.8,9.61,11.8-.16-1.92-2.16-5.46-4.22-8.63v0c-2.21-3.41-4.45-6.37-4.45-6.37-4.28-5.27,3.77-12.69,4-12.87-7.23-2.13-12.2-10.59-13.17-21.33l-1.42-2.29C277.89,318.29,275.45,321.09,275.45,321.09Z" fill="#f9b499"/><path d="M284.12,321.42a15.38,15.38,0,0,1,4.89,0A12.71,12.71,0,0,0,284.12,321.42Z" fill="#f9b499"/><path d="M323.08,261.85s-11.79,23.65-35.4,17.63c0,0-6.61,10.47-6.17,27.18a18.63,18.63,0,0,1-2.92,10.79,18,18,0,0,1-3.14,3.75s-17.73,12.3-25.71,39.6c0,0-14.15-7.59-18.53-19.76,0,0-2,4.87-.65,8.76,0,0-11.84-7.14,1-20.28,0,0,15.78-14.28,24.54-21.55a20.42,20.42,0,0,1,3-2.07c1.85-1,6.77-6.25,11.68-32.54a25.78,25.78,0,0,1,2.14-6.55c4.28-8.79,17.4-26.15,50.19-9.5,0,0,24,15.58,11.28,35.05,0,0,6.27,35.7-8.22,47.6a58.55,58.55,0,0,0,4.54-29.21l-.3-19.59S341.35,279.32,323.08,261.85Z" fill="#5ee0be"/><ellipse cx="283.46" cy="283.25" rx="7.55" ry="4.38" transform="translate(-66.13 479.12) rotate(-74.24)" fill="#f9b499"/><path d="M281.41,290.51s-1.84,18.94-11.42,25.76a11.36,11.36,0,0,0,6.49-3.57,23.91,23.91,0,0,1-5.85,8.88,18.93,18.93,0,0,0-1.38,1.31c-1.63,1.78-5.41,6.32-5.77,10.4,0,0,6.56-8.84,12-12.2,0,0,1.31-.46,3.7-4.56a17,17,0,0,0,2.28-9.34,53.55,53.55,0,0,1,1.91-16.84S283.2,290.71,281.41,290.51Z" opacity="0.2"/><path d="M259.89,338.57s-7.61,2.9-11.24,7.25a13.76,13.76,0,0,1,4.9-.91s-10,6.08-10.41,11.29a54.37,54.37,0,0,0,6.6,4.49S251,352.4,259.89,338.57Z" opacity="0.2"/><path d="M254.87,313.87s-20.8,15.23-17.68,36.75a31.38,31.38,0,0,1-6-9.69s-1.88,2.68-.65,8.77c0,0-7.83-4.09-.41-13C230.15,336.68,244,320.19,254.87,313.87Z" opacity="0.2"/><path d="M284.55,417.64a25.77,25.77,0,0,0-5.23,15.47s-.6,12.59-2.4,16.18l63.17-7.1s34.73-7.47,40.25,14.28l51,124.3s-16.23,10.06-40.24,7.78c0,0-17.21,1.63-23.05,6.5l-18.5-88.71s-8.66,6.92-58.2,7.57c0,0-79.72,13.31-87.51-20.77,0,0-12-34.08,16.87-67.5,0,0,14.76-14.93,20.53-26.29C241.19,399.35,268.76,424.42,284.55,417.64Z" fill="#5ee0be"/><path d="M286.26,448.24l-19.1,21.53a8.27,8.27,0,0,1-4.73,2.65l-15.92,2.84a.26.26,0,0,1-.13-.5l14.22-4.82a8.17,8.17,0,0,0,3.72-2.56c4.13-5,14.68-18.51,6.61-16.69,0,0-12.59,6.85-18.37,7.56a1.34,1.34,0,0,1-1-2.4c1.61-1.16,5-2.78,11.93-4.91l14.64-6.37-1.25,4.72Z" opacity="0.2"/><path d="M366.82,466.45s-11.1-.57-11.95,0-95,50-95,50,25.88-.61,31.41-2.55c0,0,13-.08,22.05-.82,0,0,18.47-30.14,37-40.09C350.31,473,359.86,468.11,366.82,466.45Z" opacity="0.2"/><path d="M378.17,511,351,513.4l-1.48-7.06a51.89,51.89,0,0,1-8.7,3.13l15.33-18.14-3.07,14.1Z" opacity="0.2"/><path d="M357.23,401.39l32.64-36.6s24.7-14.94,24.39-23.17v-6.37s1.28-4.54-2.13-3.08c0,0-5.84,8.28-10.71,9.25-4.21.84-7.29,4.56-9.72,7.51a1.67,1.67,0,0,1-2.38.19l-3.46-3s-1.45-1.15.71-4.17A20.39,20.39,0,0,0,380.51,357a4.15,4.15,0,0,1-1.9,3.55l-33.36,21.91,4.82,7.71-4.82,5.3,6.27-2.17Z" fill="#f9b499"/><path d="M411.82,339.63a12.5,12.5,0,0,1-1,2.63,15,15,0,0,1-1.52,2.32,18.43,18.43,0,0,1-1.93,2c-.7.63-1.46,1.17-2.23,1.75.44-.19.87-.4,1.29-.62s.83-.49,1.21-.8a11,11,0,0,0,2.1-2,10.33,10.33,0,0,0,1.47-2.5A7.62,7.62,0,0,0,411.82,339.63Z" fill="#f7a48b"/><path d="M397.56,323.64v-1.29a1.54,1.54,0,0,0-1.83-1.52h0a1.55,1.55,0,0,0-1.25,1.61l.34,5.77Z" fill="#f9b499"/><path d="M393.3,330.75V328a1.69,1.69,0,0,0-1.69-1.69h0a1.7,1.7,0,0,0-1.7,1.75l.26,7.91Z" fill="#f9b499"/><path d="M389.52,337.07v-2a1.25,1.25,0,0,0-1.24-1.24h0A1.25,1.25,0,0,0,387,335v6.18Z" fill="#f9b499"/><path d="M358.5,360.69l-10.14,19.74-3.11,2s-6.3,14-17.45-2.19l20.28-27.5,15.56-26.94a6.74,6.74,0,0,1,2-2.21l13-8.91a1.67,1.67,0,0,1,2.21.29h0a1.66,1.66,0,0,1-.17,2.35l-12.43,10.85s14.4,6.75,9.36,15.78c0,0-.24,4.65-6.48,5.64C371.13,349.63,364.84,357.08,358.5,360.69Z" fill="#f9b499"/><path d="M373.05,337.66s-4.52-3.81-7.18-1.67l-7.37,8,11.67-5.42Z" fill="#f7a48b"/><path d="M372.73,331s-5.2.11-8.8,2.32l4.32-5.08Z" fill="#f7a48b"/><path d="M372.73,342.57s5,2.28,0,3.49c0,0-8.37,11-14.23,11.36,0,0,6.93-12.85,8.22-13.43A46.17,46.17,0,0,1,372.73,342.57Z" fill="#f7a48b"/><path d="M409.06,588.07s11,14.94,30.54,13.62c0,0-8,18.55-25.18,7.62l-28.78-14.26-2.76-5.3s6-1.37,8.17-1.2A55.76,55.76,0,0,0,409.06,588.07Z" fill="#f9b499"/><path id="a23fee4d-bd12-49a3-9dd2-a0b2927638b4" data-name="SVGID" d="M439.6,601.69s24.79-3.07,20.9,5.15c0,0-27.91,30.29-38.3,21.2,0,0-13-8.87-14.28-8.22,0,0-2,.86,3.32,7.35,0,0,11.18,11.47,6.63,13.63,0,0-1.94,1.74-3.67-1.73,0,0-15.15-20.33-21.42-20.77,0,0-16-1.22-8.53-25.92l1.39,2.67,28.78,14.26S429.3,621.21,439.6,601.69Z" fill="#183153"/><g clip-path="url(#f0847761-ff27-4011-bfd9-bc358a08af55)"><path d="M459.7,603.06l-25.82,20.87s-4.54,5-14.92-3.46c0,0-10.17-7.14-26.62-8.87-1.29-.44-8.2-.21-10-6.49l-7.69,1.08s22.29,35.7,25.32,37.64,27.69,8.87,27.69,8.87,37-36.13,37.43-37S472,596.88,472,596.88Z" opacity="0.2"/></g><path d="M440.82,541.17s-24.06-7.81-33.7-19.37l9.65,23.55s10.8,8.46,18.43,1.59a24.74,24.74,0,0,1,3.29-2.58C439.79,543.53,441.25,542.31,440.82,541.17Z" fill="#f9b499"/><path d="M440.82,541.17s26.15,1.21,18.09,8.23l-21.14,12.91s-7.47,4.07-13,2.58l-8-19.54s10.2,8.44,18.43,1.59a18.33,18.33,0,0,1,4.13-3.17S441.38,542.47,440.82,541.17Z" fill="#183153"/><path d="M459.28,545l-25.4,15.32s-7.08,3.44-13.33-5.74l4.23,10.31s6.58,2.08,16.12-4.49l18-11S462.17,547,459.28,545Z" opacity="0.2"/><path d="M548.94,411.58,565,350.77s3.59-8.38-4.88-8.91H450.74l-18.9,69.72H378.17v9.82H549.79V414a3.77,3.77,0,0,0-.56-2Z" fill="#183153"/><path d="M450.74,341.86h0a6.18,6.18,0,0,0-6,4.57l-17.62,65.15h4.69Z" fill="#183153"/><path d="M450.74,341.86h0a6.18,6.18,0,0,0-6,4.57l-17.62,65.15h4.69Z" fill="#fff" opacity="0.2"/><line x1="545.2" y1="411.58" x2="438.94" y2="411.58" fill="none" stroke="#000" stroke-miterlimit="10" opacity="0.2"/><path d="M241.19,399.35s27.46,25,43.36,18.3l10.36-12.77s8.43-1.2,14.09-6.75c0,0,16.62,13.78,26.18,17.4a7.78,7.78,0,0,0,7.3-1l16-11.38-7-9.87-6.27,2.16,4.82-5.3-4.82-7.71s-4.58,7-10.6,2.89c0,0-12.76-7.22-14.21-16.86,0,0-7.58-21.06-17.51-33,2.06,3.17,4.06,6.71,4.22,8.63,0,0-4.61-5.53-9.61-11.8a17.09,17.09,0,0,1-3.29-6.34s0-.11-.1-.31a6,6,0,0,0-5.14-4.27h0a12.71,12.71,0,0,0-4.89,0l-8.67-.33s-6.53,4.69-13.58,14.49a84.11,84.11,0,0,0-14.33,34.6C245.9,379.6,243.12,394.54,241.19,399.35Z" fill="#183153"/><path d="M323.08,261.74S319.64,285,286.78,281a10.06,10.06,0,0,1,1.06-2.23S309,286.29,323.08,261.74Z" fill="#5ee0be"/><path d="M323.08,261.74S319.64,285,286.78,281a10.06,10.06,0,0,1,1.06-2.23S309,286.29,323.08,261.74Z" opacity="0.2"/><path d="M298.28,321.64a21.92,21.92,0,0,1,4.15-5.42c-4.77-1.41-8.57-5.57-10.86-11.34C291.14,312.62,298.28,321.64,298.28,321.64Z" fill="#f7a48b"/><path d="M296.73,281.21s-6.45,19.16-.12,35.06c0,0-11.05-1.83-9.83-16.17,0,0-1.87,7.41,0,11.79,0,0-4.08-.69-5.16-3.1,0,0-2.65-11.65,5.16-27.78A66.81,66.81,0,0,0,296.73,281.21Z" fill="#5ee0be"/><path d="M356,358.78s9.12-4.08,11.76-11.52c0,0,3.68-4.33,6.58-5.67a2.2,2.2,0,0,0,1.19-2.89c-.51-1.05-1.89-1.71-5.37-.13L356,345.34" fill="#f9b499"/><polygon points="385.64 436.13 347.13 648.16 335.01 648.16 371.79 436.13 385.64 436.13" fill="#d1d3d4"/><circle cx="277.4" cy="189.12" r="17.95" fill="#fff"/><path d="M256.75,140a3.7,3.7,0,0,1-1.59,1.51,5.77,5.77,0,0,1-2.72.57h-2.23v5.12h-2.67V133.91h4.9a6.06,6.06,0,0,1,2.64.53,3.78,3.78,0,0,1,1.63,1.47,4.15,4.15,0,0,1,.54,2.12A4.21,4.21,0,0,1,256.75,140Zm-2.78-.58a1.85,1.85,0,0,0,.53-1.42c0-1.3-.72-1.95-2.17-1.95h-2.12V140h2.12A2.3,2.3,0,0,0,254,139.45Z" fill="#5ee0be"/><path d="M261.09,146.72a4.79,4.79,0,0,1-1.92-1.92,5.77,5.77,0,0,1-.7-2.86,5.6,5.6,0,0,1,.72-2.86,5,5,0,0,1,2-1.92,5.64,5.64,0,0,1,2.76-.68,5.71,5.71,0,0,1,2.77.68,5,5,0,0,1,2,1.92,5.7,5.7,0,0,1,.71,2.86,5.48,5.48,0,0,1-.73,2.86,5,5,0,0,1-2,1.92,5.76,5.76,0,0,1-2.79.68A5.58,5.58,0,0,1,261.09,146.72Zm4.11-2a2.55,2.55,0,0,0,1-1.06,3.5,3.5,0,0,0,.38-1.72,3.18,3.18,0,0,0-.79-2.32,2.6,2.6,0,0,0-1.94-.81,2.52,2.52,0,0,0-1.91.81,3.88,3.88,0,0,0,0,4.64,2.47,2.47,0,0,0,1.9.81A2.81,2.81,0,0,0,265.2,144.72Z" fill="#5ee0be"/><path d="M273,146.93a4.12,4.12,0,0,1-1.64-1.27,3.12,3.12,0,0,1-.65-1.77h2.69a1.46,1.46,0,0,0,.6,1,2.07,2.07,0,0,0,1.31.4,2,2,0,0,0,1.19-.31.91.91,0,0,0,.43-.78.83.83,0,0,0-.53-.77,9.57,9.57,0,0,0-1.67-.56,12.83,12.83,0,0,1-1.93-.6,3.25,3.25,0,0,1-1.3-.93,2.53,2.53,0,0,1-.55-1.7,2.72,2.72,0,0,1,.51-1.6A3.37,3.37,0,0,1,273,136.9a5.43,5.43,0,0,1,2.22-.42,4.55,4.55,0,0,1,3,1,3.52,3.52,0,0,1,1.24,2.55h-2.56a1.41,1.41,0,0,0-.52-1,2,2,0,0,0-1.25-.37,2,2,0,0,0-1.12.27.85.85,0,0,0-.39.74.87.87,0,0,0,.53.81,7.93,7.93,0,0,0,1.66.57,13.93,13.93,0,0,1,1.89.59,3.31,3.31,0,0,1,1.29.94,2.61,2.61,0,0,1,.57,1.69,2.77,2.77,0,0,1-.51,1.64,3.28,3.28,0,0,1-1.45,1.14,6.06,6.06,0,0,1-4.53-.06Z" fill="#5ee0be"/><path d="M284.83,138.85V144a1,1,0,0,0,.26.77,1.26,1.26,0,0,0,.87.24h1.24v2.25h-1.68c-2.26,0-3.38-1.1-3.38-3.29v-5.09h-1.26v-2.2h1.26V134h2.69v2.61h2.37v2.2Z" fill="#5ee0be"/><path d="M298.88,142.74h-7.73a2.63,2.63,0,0,0,.8,1.8,2.49,2.49,0,0,0,1.74.65,2.2,2.2,0,0,0,2.12-1.28h2.88a4.83,4.83,0,0,1-1.76,2.51,5.17,5.17,0,0,1-3.19,1,5.57,5.57,0,0,1-2.74-.68,4.76,4.76,0,0,1-1.88-1.92,5.76,5.76,0,0,1-.68-2.86,6,6,0,0,1,.67-2.88,4.59,4.59,0,0,1,1.87-1.91,5.64,5.64,0,0,1,2.76-.67,5.56,5.56,0,0,1,2.7.65,4.49,4.49,0,0,1,1.85,1.84,5.58,5.58,0,0,1,.66,2.74A6.33,6.33,0,0,1,298.88,142.74ZM296.19,141a2.15,2.15,0,0,0-.75-1.65,2.59,2.59,0,0,0-1.77-.62,2.41,2.41,0,0,0-1.67.6,2.6,2.6,0,0,0-.83,1.67Z" fill="#5ee0be"/><path d="M300.85,139.06a4.62,4.62,0,0,1,4.21-2.58,4.51,4.51,0,0,1,2,.45,4,4,0,0,1,1.49,1.2v-5h2.71v14.12h-2.71v-1.57a3.57,3.57,0,0,1-1.4,1.26,4.32,4.32,0,0,1-2.08.48,4.52,4.52,0,0,1-2.44-.69,4.82,4.82,0,0,1-1.75-1.93,6.33,6.33,0,0,1-.64-2.88A6.22,6.22,0,0,1,300.85,139.06Zm7.3,1.21a2.72,2.72,0,0,0-2.42-1.44,2.67,2.67,0,0,0-1.37.36,2.77,2.77,0,0,0-1,1.06,3.35,3.35,0,0,0-.39,1.65,3.41,3.41,0,0,0,.39,1.67,2.81,2.81,0,0,0,1,1.1,2.6,2.6,0,0,0,1.37.38,2.71,2.71,0,0,0,1.39-.37,2.66,2.66,0,0,0,1-1.07,3.86,3.86,0,0,0,0-3.34Z" fill="#5ee0be"/><path d="M438.62,40.23H638.44A6.76,6.76,0,0,1,645.21,47V95.81a0,0,0,0,1,0,0H431.86a0,0,0,0,1,0,0V47A6.76,6.76,0,0,1,438.62,40.23Z" fill="#fff"/><rect x="451.61" y="107.14" width="153.66" height="29.03" rx="2.23" fill="#fff"/><circle cx="616.69" cy="122.56" r="2.39" fill="#183153" opacity="0.19"/><circle cx="626.46" cy="115.97" r="2.39" fill="#183153" opacity="0.19"/><circle cx="626.46" cy="127.33" r="2.39" fill="#183153" opacity="0.19"/><g opacity="0.19"><polygon points="618.2 120.78 618.07 120.56 624.31 116.99 624.43 117.21 618.2 120.78" fill="#183153"/></g><g opacity="0.19"><polygon points="624.01 127.44 618.68 123.86 618.82 123.65 624.14 127.23 624.01 127.44" fill="#183153"/></g><path d="M482,188.42a5.82,5.82,0,0,1-2.5-1.95,5.17,5.17,0,0,1-.95-3h4.06a2.64,2.64,0,0,0,.82,1.84,2.94,2.94,0,0,0,2.05.67,3.17,3.17,0,0,0,2.08-.63,2.09,2.09,0,0,0,.75-1.67,2,2,0,0,0-.51-1.38,3.63,3.63,0,0,0-1.28-.85c-.52-.2-1.22-.43-2.13-.69a22.82,22.82,0,0,1-3-1.06,5.34,5.34,0,0,1-2-1.6,4.53,4.53,0,0,1-.82-2.85,5.09,5.09,0,0,1,.84-2.92,5.32,5.32,0,0,1,2.35-1.91,8.58,8.58,0,0,1,3.46-.66,7.45,7.45,0,0,1,4.74,1.42,5.26,5.26,0,0,1,2,4h-4.17a2.14,2.14,0,0,0-.82-1.61,3.11,3.11,0,0,0-2-.64,2.61,2.61,0,0,0-1.77.57,2.06,2.06,0,0,0-.66,1.65,1.67,1.67,0,0,0,.5,1.26,3.81,3.81,0,0,0,1.24.81,21.76,21.76,0,0,0,2.09.72,22.24,22.24,0,0,1,3,1.08,5.44,5.44,0,0,1,2,1.62,4.5,4.5,0,0,1,.83,2.84,5.34,5.34,0,0,1-.78,2.81,5.47,5.47,0,0,1-2.3,2.07,7.89,7.89,0,0,1-3.59.77A9,9,0,0,1,482,188.42Z" fill="#5ee0be"/><path d="M506.93,174.45a5.22,5.22,0,0,1,2.07,2.19,7.57,7.57,0,0,1,.74,3.47v8.79H506v-8.27a3.88,3.88,0,0,0-.9-2.75,3.14,3.14,0,0,0-2.43-1,3.23,3.23,0,0,0-2.47,1,3.84,3.84,0,0,0-.91,2.75v8.27h-3.78v-20h3.78v6.9a5,5,0,0,1,1.95-1.53,6.42,6.42,0,0,1,2.7-.55A6,6,0,0,1,506.93,174.45Z" fill="#5ee0be"/><path d="M513.27,177.33a6.58,6.58,0,0,1,2.46-2.7,6.5,6.5,0,0,1,3.48-.95,6.24,6.24,0,0,1,2.93.67,5.94,5.94,0,0,1,2,1.71v-2.14H528v15h-3.82v-2.19a5.48,5.48,0,0,1-2,1.75,6.16,6.16,0,0,1-3,.69,6.38,6.38,0,0,1-3.45-1,6.76,6.76,0,0,1-2.46-2.74,8.87,8.87,0,0,1-.91-4.07A8.7,8.7,0,0,1,513.27,177.33Zm10.34,1.72a3.76,3.76,0,0,0-1.46-1.52,3.92,3.92,0,0,0-3.92,0,3.79,3.79,0,0,0-1.44,1.5,4.71,4.71,0,0,0-.56,2.34,4.82,4.82,0,0,0,.56,2.36,3.87,3.87,0,0,0,1.46,1.56,3.68,3.68,0,0,0,1.93.54,3.91,3.91,0,0,0,2-.53,3.73,3.73,0,0,0,1.46-1.51,5.45,5.45,0,0,0,0-4.73Z" fill="#5ee0be"/><path d="M537.36,174.38a5.29,5.29,0,0,1,2.69-.67v4h-1a3.82,3.82,0,0,0-2.69.84,3.88,3.88,0,0,0-.91,2.92v7.46h-3.78v-15h3.78v2.33A5.43,5.43,0,0,1,537.36,174.38Z" fill="#5ee0be"/><path d="M556.41,182.55H545.46a3.71,3.71,0,0,0,1.14,2.54,3.49,3.49,0,0,0,2.46.92,3.09,3.09,0,0,0,3-1.81h4.08a6.75,6.75,0,0,1-2.49,3.55,7.24,7.24,0,0,1-4.51,1.4,7.78,7.78,0,0,1-3.88-1,6.75,6.75,0,0,1-2.68-2.72,9.15,9.15,0,0,1,0-8.14,6.57,6.57,0,0,1,2.65-2.7,8.48,8.48,0,0,1,7.74,0,6.48,6.48,0,0,1,2.63,2.61,7.9,7.9,0,0,1,.93,3.88A9.14,9.14,0,0,1,556.41,182.55ZM552.6,180a3,3,0,0,0-1.06-2.34,3.7,3.7,0,0,0-2.51-.88,3.43,3.43,0,0,0-2.37.85,3.73,3.73,0,0,0-1.17,2.37Z" fill="#5ee0be"/><circle cx="495.47" cy="243.48" r="21.6" fill="#fff"/><circle cx="559.29" cy="243.48" r="21.6" fill="#fff"/><circle cx="619.08" cy="243.48" r="21.6" fill="#fff"/><circle cx="495.47" cy="307.75" r="21.6" fill="#fff"/><circle cx="559.29" cy="307.75" r="21.6" fill="#fff"/><circle cx="621.41" cy="305.47" r="21.6" fill="#fff"/><path d="M259.45,174.35l17.95,18.18s18-22.27,27.49-33.63c0,0-20.9,11.36-29.53,24.09C275.36,183,269.9,170.72,259.45,174.35Z" fill="#183153"/><polyline points="469.35 65.43 461.85 72.92 469.35 81.1" fill="none" stroke="#183153" stroke-miterlimit="10" opacity="0.2"/><rect x="493.37" y="64.98" width="93.33" height="13.5" rx="4.24" fill="#183153" opacity="0.19"/><circle cx="617.38" cy="65.03" r="1.15" fill="#183153" opacity="0.19"/><circle cx="617.38" cy="71.73" r="1.15" fill="#183153" opacity="0.19"/><circle cx="617.38" cy="79.74" r="1.15" fill="#183153" opacity="0.19"/><g opacity="0.6"><path d="M506.46,242.92a10.79,10.79,0,0,0-21.56-.2v.47a10.8,10.8,0,0,0,1.5,5.54l-1.94,5.74,6-1.9a10.79,10.79,0,0,0,16-9.37A1.31,1.31,0,0,0,506.46,242.92Zm-10.78,9.27a9,9,0,0,1-5-1.49l-3.49,1.11,1.13-3.34a9.1,9.1,0,0,1-1.72-5.28q0-.44,0-.87a9.08,9.08,0,0,1,18.07.17v.7A9,9,0,0,1,495.68,252.19Z" fill="#183153" fill-rule="evenodd"/><path d="M500.62,245.35c-.27-.13-1.56-.77-1.81-.85s-.41-.13-.59.13a11.87,11.87,0,0,1-.84,1,.44.44,0,0,1-.58.07,7.47,7.47,0,0,1-2.12-1.3,8.1,8.1,0,0,1-1.47-1.82.39.39,0,0,1,.11-.53h0c.13-.12.27-.31.4-.46l.1-.13a1.34,1.34,0,0,0,.17-.31.47.47,0,0,0,0-.46c-.07-.13-.6-1.42-.82-1.95s-.44-.43-.6-.43h-.5a1,1,0,0,0-.71.33,3,3,0,0,0-.92,2.19,3.83,3.83,0,0,0,.13.89,6,6,0,0,0,.95,1.82,10.9,10.9,0,0,0,4.51,4c2.69,1,2.69.69,3.18.65a2.62,2.62,0,0,0,1.78-1.25,2.23,2.23,0,0,0,.16-1.25A1.42,1.42,0,0,0,500.62,245.35Z" fill="#183153" fill-rule="evenodd"/></g><path d="M556.24,319.86h4.87V307.65h3.41l.36-4.09h-3.77v-2.33c0-1,.2-1.35,1.13-1.35h2.64v-4.24H561.5c-3.63,0-5.26,1.6-5.26,4.66v3.26H553.7v4.14h2.54Z" fill="#183153" opacity="0.6"/><g opacity="0.6"><path d="M495.47,298.77c2.93,0,3.28,0,4.44.07a5.71,5.71,0,0,1,2,.37A3.69,3.69,0,0,1,504,301.3a6.45,6.45,0,0,1,.38,2c.05,1.16.06,1.5.06,4.44s0,3.28-.06,4.44a6.22,6.22,0,0,1-.38,2,3.56,3.56,0,0,1-.82,1.27,3.61,3.61,0,0,1-1.26.82,6.5,6.5,0,0,1-2,.38c-1.16,0-1.51.06-4.44.06s-3.28,0-4.44-.06a6.45,6.45,0,0,1-2-.38,3.44,3.44,0,0,1-1.26-.82,3.31,3.31,0,0,1-.82-1.27,6,6,0,0,1-.38-2c-.05-1.16-.07-1.51-.07-4.44s0-3.28.07-4.44a5.92,5.92,0,0,1,.38-2,3.63,3.63,0,0,1,2.08-2.09,5.67,5.67,0,0,1,2-.37c1.16-.06,1.51-.07,4.44-.07m0-2c-3,0-3.36,0-4.53.07a7.81,7.81,0,0,0-2.67.51,5.64,5.64,0,0,0-3.21,3.21,7.58,7.58,0,0,0-.51,2.67c-.05,1.17-.06,1.54-.06,4.53s0,3.35.06,4.53a7.8,7.8,0,0,0,.51,2.66,5.35,5.35,0,0,0,1.27,1.95,5.47,5.47,0,0,0,1.94,1.26,8.06,8.06,0,0,0,2.67.51c1.17.06,1.55.07,4.53.07s3.36,0,4.53-.07a7.8,7.8,0,0,0,2.66-.51,5.33,5.33,0,0,0,1.95-1.26,5.49,5.49,0,0,0,1.27-1.95,8.65,8.65,0,0,0,.51-2.66c.05-1.18.06-1.55.06-4.53s0-3.36-.06-4.53a8.6,8.6,0,0,0-.51-2.67,5.65,5.65,0,0,0-3.22-3.21,7.8,7.8,0,0,0-2.66-.51c-1.17,0-1.55-.07-4.53-.07" fill="#183153"/><path d="M495.47,302.11a5.64,5.64,0,1,0,5.64,5.64,5.63,5.63,0,0,0-5.64-5.64h0m0,9.3a3.66,3.66,0,1,1,3.66-3.66,3.66,3.66,0,0,1-3.66,3.66h0" fill="#183153"/><path d="M502.65,301.91a1.32,1.32,0,1,1-1.33-1.31h0a1.32,1.32,0,0,1,1.32,1.31" fill="#183153"/></g><path d="M608.39,250.18a12.46,12.46,0,0,0,19.18-11.06,9.08,9.08,0,0,0,2.19-2.27,9.15,9.15,0,0,1-2.52.69,4.41,4.41,0,0,0,1.93-2.42,9.19,9.19,0,0,1-2.78,1.06,4.39,4.39,0,0,0-7.47,4,12.42,12.42,0,0,1-9-4.57,4.38,4.38,0,0,0,1.35,5.84,4.53,4.53,0,0,1-2-.54,4.39,4.39,0,0,0,3.51,4.35,4.65,4.65,0,0,1-2,.07,4.4,4.4,0,0,0,4.09,3A8.84,8.84,0,0,1,608.39,250.18Z" fill="#183153" opacity="0.6"/><g opacity="0.6"><rect x="549.64" y="240.12" width="4.15" height="13.39" fill="#183153"/><path d="M551.7,238.37a2.48,2.48,0,1,0-2.45-2.51v0a2.46,2.46,0,0,0,2.45,2.47Z" fill="#183153"/><path d="M560.42,246.48c0-1.88.86-3,2.52-3s2.26,1.08,2.26,3v7h4.13v-8.41c0-3.59-2-5.33-4.88-5.33a4.63,4.63,0,0,0-4,2.22v-1.81h-4v13.4h4Z" fill="#183153"/></g><path d="M633.07,311.22h0a2.93,2.93,0,0,0-.75-.27h0a6.57,6.57,0,0,1-3.09-2.25,7.07,7.07,0,0,1-1.05-1.85h0a.91.91,0,0,1,0-.79h0a2.19,2.19,0,0,1,1.06-.68h0a4.07,4.07,0,0,0,1.43-.74h0a.79.79,0,0,0,.21-.27.17.17,0,0,0,0-.1.48.48,0,0,0,0-.37h0a1.16,1.16,0,0,0-.5-.48h0a1,1,0,0,0-.86-.07h0a6.61,6.61,0,0,1-.76.22h0a1.83,1.83,0,0,1-.87,0,.61.61,0,0,0,0-.19h0v-1.62h0a14.1,14.1,0,0,0-.06-2.6h0a5.78,5.78,0,0,0-2.44-3.61,6,6,0,0,0-3-1.06h0a9.76,9.76,0,0,0-1.08-.05,6.63,6.63,0,0,0-4.07,1.3,6.43,6.43,0,0,0-2,2.59h0a7.25,7.25,0,0,0-.32,3.17h0a16,16,0,0,1,.05,2.08h0a2.8,2.8,0,0,1-1,0h0a7.1,7.1,0,0,1-.79-.22h0a1,1,0,0,0-.77.17h0a.77.77,0,0,0-.42.63v.06h0a.8.8,0,0,0,.26.43l.27.2h0a7.89,7.89,0,0,0,1.61.69h0a1.15,1.15,0,0,1,.72.69,2,2,0,0,1-.29,1.23h0a7.43,7.43,0,0,1-2.43,2.79,5.93,5.93,0,0,1-1.79.82h0a1,1,0,0,0-.64.37v.07a.56.56,0,0,0,.1.5,1.09,1.09,0,0,0,.27.21h0a6,6,0,0,0,1.66.57h0a5.85,5.85,0,0,1,1,.25l.1.29c.1.29.15.63.25,1a.31.31,0,0,0,.23.2.65.65,0,0,0,.39,0h0a6,6,0,0,1,2.61-.09h0a10.41,10.41,0,0,1,2.46,1.32h0a4.1,4.1,0,0,0,2,.72h0a15.32,15.32,0,0,0,1.66,0h0a3.06,3.06,0,0,0,1.31-.45h0c.89-.5,1.68-1.11,2.54-1.49h0a4.21,4.21,0,0,1,1-.12h0a13.89,13.89,0,0,1,2.14.11h.07a.44.44,0,0,0,.25-.14.3.3,0,0,0,.07-.15h0v-.06a3,3,0,0,1,.41-1.06.64.64,0,0,1,.44-.13h0a8.44,8.44,0,0,0,1.7-.48h0a1.65,1.65,0,0,0,.7-.46h0a.49.49,0,0,0-.13-.68h0Z" fill="#183153" fill-rule="evenodd" opacity="0.6"/><g opacity="0.6"><path d="M467.27,119.38a2.27,2.27,0,0,1,.93,1,3.27,3.27,0,0,1,.34,1.56v3.84h-.82V122a2.26,2.26,0,0,0-.54-1.63,1.89,1.89,0,0,0-1.46-.57,2,2,0,0,0-1.51.6,2.52,2.52,0,0,0-.56,1.77v3.57h-.84v-8.88h.84v3.45a2.13,2.13,0,0,1,.92-.91,2.77,2.77,0,0,1,1.36-.33A3,3,0,0,1,467.27,119.38Z" fill="#183153"/><path d="M471.5,119.9V124a1.2,1.2,0,0,0,.22.83,1.14,1.14,0,0,0,.81.22h.77v.72h-.9a1.8,1.8,0,0,1-1.32-.41,1.82,1.82,0,0,1-.44-1.36V119.9h-.91v-.71h.91v-1.64h.86v1.64h1.8v.71Z" fill="#183153"/><path d="M475.77,119.9V124a1.15,1.15,0,0,0,.23.83,1.13,1.13,0,0,0,.8.22h.77v.72h-.9a1.52,1.52,0,0,1-1.75-1.77V119.9H474v-.71h.92v-1.64h.85v1.64h1.8v.71Z" fill="#183153"/><path d="M480.77,119.53a2.91,2.91,0,0,1,1.61-.43,3.08,3.08,0,0,1,1.6.41,2.9,2.9,0,0,1,1.12,1.18,3.67,3.67,0,0,1,.4,1.77,3.73,3.73,0,0,1-.4,1.77,2.92,2.92,0,0,1-1.12,1.19,3.08,3.08,0,0,1-1.6.42,2.94,2.94,0,0,1-1.61-.44,2.6,2.6,0,0,1-1-1.1v4.54H479v-9.65h.83v1.44A2.6,2.6,0,0,1,480.77,119.53Zm3.56,1.52a2.19,2.19,0,0,0-.87-.91,2.6,2.6,0,0,0-2.48,0,2.39,2.39,0,0,0-.88.93,3.18,3.18,0,0,0,0,2.78,2.3,2.3,0,0,0,.88.92,2.36,2.36,0,0,0,1.23.33,2.47,2.47,0,0,0,1.25-.32,2.21,2.21,0,0,0,.87-.92,3.05,3.05,0,0,0,.32-1.41A2.94,2.94,0,0,0,484.33,121.05Z" fill="#183153"/><path d="M486.75,120.4a.61.61,0,0,1,.44-1.05.61.61,0,0,1,.43.17.65.65,0,0,1,0,.88.58.58,0,0,1-.43.18A.59.59,0,0,1,486.75,120.4Zm0,5.22a.61.61,0,0,1,.44-1.05.61.61,0,0,1,.43.17.65.65,0,0,1,0,.88.58.58,0,0,1-.43.18A.59.59,0,0,1,486.75,125.62Z" fill="#183153"/><path d="M493,114.46l-3.31,13.28h-.83l3.29-13.28Z" fill="#183153"/><path d="M498.29,114.46,495,127.74h-.83l3.29-13.28Z" fill="#183153"/><path d="M508.49,119.19l-2.05,6.55h-.84l-1.81-5.49L502,125.74h-.86l-2.05-6.55h.85l1.64,5.7,1.83-5.7h.84L506,124.9l1.62-5.71Z" fill="#183153"/><path d="M518.27,119.19l-2,6.55h-.84l-1.81-5.49-1.82,5.49h-.85l-2-6.55h.85l1.63,5.7,1.84-5.7H514l1.81,5.71,1.62-5.71Z" fill="#183153"/><path d="M528.05,119.19l-2,6.55h-.84l-1.81-5.49-1.82,5.49h-.85l-2-6.55h.85l1.63,5.7,1.84-5.7h.84l1.81,5.71,1.62-5.71Z" fill="#183153"/><path d="M528.9,125.62a.63.63,0,0,1,0-.88.6.6,0,0,1,.43-.17.61.61,0,0,1,.43.17.62.62,0,0,1-.43,1.06A.57.57,0,0,1,528.9,125.62Z" fill="#183153"/><path d="M531.08,125.62a.65.65,0,0,1,0-.88.62.62,0,0,1,.44-.17.57.57,0,0,1,.42.17.63.63,0,0,1,0,.88.54.54,0,0,1-.42.18A.59.59,0,0,1,531.08,125.62Z" fill="#183153"/><path d="M533.26,125.62a.65.65,0,0,1,0-.88.64.64,0,0,1,.44-.17.61.61,0,0,1,.43.17.65.65,0,0,1,0,.88.58.58,0,0,1-.43.18A.6.6,0,0,1,533.26,125.62Z" fill="#183153"/></g><g id="fa12c5ea-d532-4557-8338-eb0e6c1305b2" data-name="freesvgillustration--Plant--inject-88"><polyline points="667.76 635.71 658.74 578.99 727.98 579.84 721.16 634.98" fill="#5ee0be"/><path d="M697.65,568.63a11.79,11.79,0,0,0,11.54,1,12.44,12.44,0,0,0,6.29-9.93,14.13,14.13,0,0,0-11.54-.58,13.93,13.93,0,0,0-7.63,8.53" fill="#183153"/><path d="M729.3,580.85a11.79,11.79,0,0,0,11.54,1,12.42,12.42,0,0,0,6.29-9.93,14.13,14.13,0,0,0-11.54-.58,14,14,0,0,0-7.64,8.54" fill="#183153"/><path d="M711.54,553.57a11.79,11.79,0,0,0,9.05,7.13,12.45,12.45,0,0,0,10.73-4.84A13.31,13.31,0,0,0,711,552" fill="#183153"/><path d="M723.09,567.7a11.84,11.84,0,0,0-10.34,5.12,12.42,12.42,0,0,0-.23,11.75,13.28,13.28,0,0,0,12.66-13.87,13.45,13.45,0,0,0-.43-2.82" fill="#183153"/><path d="M734.25,590a11.8,11.8,0,0,0,.27,11.54,12.4,12.4,0,0,0,10.56,5.17,14.06,14.06,0,0,0-.66-11.46c-1.82-3.32-5.09-4.95-9.2-5.88" fill="#183153"/><path d="M752.65,592.66a8,8,0,0,0-2.74-1.75,12,12,0,0,0-3.75-.66,43.83,43.83,0,0,0-5.12.3,14.73,14.73,0,0,1-6.29-.55,9.61,9.61,0,0,1-5.19-5,28.53,28.53,0,0,1-2.23-7.66,22.41,22.41,0,0,0-2.67-7.86,28.11,28.11,0,0,0-5.87-6,28.39,28.39,0,0,1-5.59-5.68,18.82,18.82,0,0,1-2.8-13,18.17,18.17,0,0,1,3.4-8.38,13.72,13.72,0,0,1,1.66-1.83,3.91,3.91,0,0,1,.66-.56,3.8,3.8,0,0,1-.54.66,16.31,16.31,0,0,0-1.53,1.9,19,19,0,0,0-.29,20.85,28.2,28.2,0,0,0,5.51,5.51,28.09,28.09,0,0,1,6,6.11,22.38,22.38,0,0,1,2.77,8.12,28,28,0,0,0,2.15,7.5,9,9,0,0,0,4.79,4.74,14.7,14.7,0,0,0,6,.6,42.31,42.31,0,0,1,5.16-.19,11.33,11.33,0,0,1,3.85.81,6.29,6.29,0,0,1,2.08,1.34,4.07,4.07,0,0,1,.43.49C752.62,592.58,752.66,592.64,752.65,592.66Z" fill="#183153"/><path d="M752.65,592.66a8,8,0,0,0-2.74-1.75,12,12,0,0,0-3.75-.66,43.83,43.83,0,0,0-5.12.3,14.73,14.73,0,0,1-6.29-.55,9.61,9.61,0,0,1-5.19-5,28.53,28.53,0,0,1-2.23-7.66,22.41,22.41,0,0,0-2.67-7.86,28.11,28.11,0,0,0-5.87-6,28.39,28.39,0,0,1-5.59-5.68,18.82,18.82,0,0,1-2.8-13,18.17,18.17,0,0,1,3.4-8.38,13.72,13.72,0,0,1,1.66-1.83,3.91,3.91,0,0,1,.66-.56,3.8,3.8,0,0,1-.54.66,16.31,16.31,0,0,0-1.53,1.9,19,19,0,0,0-.29,20.85,28.2,28.2,0,0,0,5.51,5.51,28.09,28.09,0,0,1,6,6.11,22.38,22.38,0,0,1,2.77,8.12,28,28,0,0,0,2.15,7.5,9,9,0,0,0,4.79,4.74,14.7,14.7,0,0,0,6,.6,42.31,42.31,0,0,1,5.16-.19,11.33,11.33,0,0,1,3.85.81,6.29,6.29,0,0,1,2.08,1.34,4.07,4.07,0,0,1,.43.49C752.62,592.58,752.66,592.64,752.65,592.66Z" fill="#183153"/><path d="M620.45,598.47a17.52,17.52,0,0,0-23.7-17.31,29.22,29.22,0,0,0,23.07,17.05" fill="#183153"/><path d="M615.88,600.87c-3.39,3.73-3.17,9.71-.75,14.12s6.59,7.54,10.77,10.34a22.73,22.73,0,0,0-9.79-25.81" fill="#183153"/><path d="M632.29,583.44a20.19,20.19,0,0,0,22.07,18.12l.86-.11c-1.31-5.45-3.49-10.93-7.7-14.62s-10.84-5.07-15.49-2" fill="#183153"/><path d="M632.15,577.89c-.85-5-5.77-8.55-10.74-9s-9.95,1.68-14,4.71A18.18,18.18,0,0,0,632.21,576" fill="#183153"/><path d="M606.38,620c-4.76,4.05-5.94,11.29-4,17.21s6.6,10.66,11.79,14.14c2-5.89,3.26-12.19,2.21-18.32s-4.75-12-10.43-14.52" fill="#183153"/><path d="M631.41,564a14.61,14.61,0,0,1,20.3-3.82,14.16,14.16,0,0,1,2.77,2.47,12.61,12.61,0,0,1-22.78.57" fill="#183153"/><path d="M637.24,549.7A19,19,0,0,1,613.54,537a18.22,18.22,0,0,1-.53-2.18,42.55,42.55,0,0,1,11.44.16,18.56,18.56,0,0,1,10.09,5,10.07,10.07,0,0,1,2.65,9.7" fill="#183153"/><path d="M648.23,546a15.54,15.54,0,0,1-2.18-21.88,15.72,15.72,0,0,1,2.07-2.09,32.58,32.58,0,0,1,6.8,14.49,12.39,12.39,0,0,1,0,6,5.52,5.52,0,0,1-4.19,3.92" fill="#183153"/><g opacity="0.4"><path d="M620.45,598.47a17.52,17.52,0,0,0-23.7-17.31,29.22,29.22,0,0,0,23.07,17.05"/></g><g opacity="0.4"><path d="M615.88,600.87c-3.39,3.73-3.17,9.71-.75,14.12s6.59,7.54,10.77,10.34a22.73,22.73,0,0,0-9.79-25.81"/></g><g opacity="0.4"><path d="M632.29,583.44a20.19,20.19,0,0,0,22.07,18.12l.86-.11c-1.31-5.45-3.49-10.93-7.7-14.62s-10.84-5.07-15.49-2"/></g><g opacity="0.4"><path d="M632.15,577.89c-.85-5-5.77-8.55-10.74-9s-9.95,1.68-14,4.71A18.18,18.18,0,0,0,632.21,576"/></g><g opacity="0.4"><path d="M606.38,620c-4.76,4.05-5.94,11.29-4,17.21s6.6,10.66,11.79,14.14c2-5.89,3.26-12.19,2.21-18.32s-4.75-12-10.43-14.52"/></g><g opacity="0.4"><path d="M631.41,564a14.61,14.61,0,0,1,20.3-3.82,14.16,14.16,0,0,1,2.77,2.47,12.61,12.61,0,0,1-22.78.57"/></g><g opacity="0.4"><path d="M637.24,549.7A19,19,0,0,1,613.54,537a18.22,18.22,0,0,1-.53-2.18,42.55,42.55,0,0,1,11.44.16,18.56,18.56,0,0,1,10.09,5,10.07,10.07,0,0,1,2.65,9.7"/></g><g opacity="0.4"><path d="M648.23,546a15.54,15.54,0,0,1-2.18-21.88,15.72,15.72,0,0,1,2.07-2.09,32.58,32.58,0,0,1,6.8,14.49,12.39,12.39,0,0,1,0,6,5.52,5.52,0,0,1-4.19,3.92"/></g><path d="M667.22,580.82a1.28,1.28,0,0,1,0-.39,7.17,7.17,0,0,1,.07-1.14c0-1,.16-2.48.18-4.33a39.3,39.3,0,0,0-2.56-15.73,24.23,24.23,0,0,0-6.33-8.91A16.94,16.94,0,0,0,647,546.08a14.54,14.54,0,0,0-6.49,1.63,12.75,12.75,0,0,0-5,4.79c-2.51,4.15-3.15,9.34-2.89,14.42s.91,10.26.35,15.22a24,24,0,0,1-1.9,7.06,14.88,14.88,0,0,1-4.33,5.58,21.82,21.82,0,0,1-5.94,3,29.71,29.71,0,0,0-5.6,2.54,20.13,20.13,0,0,0-7.34,8,19.43,19.43,0,0,0-2.11,8.75,20.43,20.43,0,0,0,1.11,6.76,24.68,24.68,0,0,0,2.62,5.27,2.67,2.67,0,0,1-.26-.29,8.81,8.81,0,0,1-.66-.94,17.53,17.53,0,0,1-2-3.94,20.07,20.07,0,0,1-1.25-6.86,19.67,19.67,0,0,1,2.06-9,20.83,20.83,0,0,1,7.48-8.29c3.43-2.28,8-2.88,11.44-5.58s5.32-7.42,5.85-12.18-.17-9.89-.36-15.11.39-10.56,3-14.88a13.53,13.53,0,0,1,5.32-5.05,15.08,15.08,0,0,1,6.81-1.69,17.49,17.49,0,0,1,11.93,4.46,24.45,24.45,0,0,1,6.42,9.17,33.13,33.13,0,0,1,2.18,9,50.68,50.68,0,0,1,.19,7,33.42,33.42,0,0,1-.34,4.39,6.91,6.91,0,0,1-.14,1.13A1.28,1.28,0,0,1,667.22,580.82Z" fill="#183153"/><g opacity="0.4"><path d="M667.22,580.82a1.28,1.28,0,0,1,0-.39,7.17,7.17,0,0,1,.07-1.14c0-1,.16-2.48.18-4.33a39.3,39.3,0,0,0-2.56-15.73,24.23,24.23,0,0,0-6.33-8.91A16.94,16.94,0,0,0,647,546.08a14.54,14.54,0,0,0-6.49,1.63,12.75,12.75,0,0,0-5,4.79c-2.51,4.15-3.15,9.34-2.89,14.42s.91,10.26.35,15.22a24,24,0,0,1-1.9,7.06,14.88,14.88,0,0,1-4.33,5.58,21.82,21.82,0,0,1-5.94,3,29.71,29.71,0,0,0-5.6,2.54,20.13,20.13,0,0,0-7.34,8,19.43,19.43,0,0,0-2.11,8.75,20.43,20.43,0,0,0,1.11,6.76,24.68,24.68,0,0,0,2.62,5.27,2.67,2.67,0,0,1-.26-.29,8.81,8.81,0,0,1-.66-.94,17.53,17.53,0,0,1-2-3.94,20.07,20.07,0,0,1-1.25-6.86,19.67,19.67,0,0,1,2.06-9,20.83,20.83,0,0,1,7.48-8.29c3.43-2.28,8-2.88,11.44-5.58s5.32-7.42,5.85-12.18-.17-9.89-.36-15.11.39-10.56,3-14.88a13.53,13.53,0,0,1,5.32-5.05,15.08,15.08,0,0,1,6.81-1.69,17.49,17.49,0,0,1,11.93,4.46,24.45,24.45,0,0,1,6.42,9.17,33.13,33.13,0,0,1,2.18,9,50.68,50.68,0,0,1,.19,7,33.42,33.42,0,0,1-.34,4.39,6.91,6.91,0,0,1-.14,1.13A1.28,1.28,0,0,1,667.22,580.82Z"/></g><path d="M768.05,568.45a15,15,0,0,0,1-5.08,12.59,12.59,0,0,0-1.36-5.87,12.25,12.25,0,0,0-5.64-5.45,12.8,12.8,0,0,0-4.45-1.2,14.73,14.73,0,0,0-5,.58c-3.39.9-6.75,2.89-10.77,3.62a12.76,12.76,0,0,1-6.23-.14,9.46,9.46,0,0,1-5.09-4.07c-2.42-3.75-3.1-8.46-6-11.91a11.9,11.9,0,0,0-5.47-3.58,15.37,15.37,0,0,0-6.39-.64,16.27,16.27,0,0,0-10.62,5.52,24.71,24.71,0,0,0-5.28,9.76,29.32,29.32,0,0,0-1.18,9.67,103.48,103.48,0,0,0,1.8,14.15l.65,3.84a4.65,4.65,0,0,0,.16,1V579a1,1,0,0,0-.1-.34l-.24-1c-.18-.93-.46-2.2-.79-3.8A95.7,95.7,0,0,1,695,559.68a29.84,29.84,0,0,1,1.11-9.86,25.52,25.52,0,0,1,5.37-10.1,19.45,19.45,0,0,1,4.86-3.89,16.8,16.8,0,0,1,12.9-1.24,12.57,12.57,0,0,1,5.77,3.81c3.09,3.7,3.75,8.43,6.07,12a8.65,8.65,0,0,0,4.69,3.78,12,12,0,0,0,5.88.16c3.86-.74,7.21-2.64,10.74-3.53a15.1,15.1,0,0,1,5.18-.57,13,13,0,0,1,4.64,1.3,12.49,12.49,0,0,1,7,11.8,11.69,11.69,0,0,1-.75,3.83A6.5,6.5,0,0,1,768.05,568.45Z" fill="#183153"/><path d="M727.54,543.31a13.48,13.48,0,0,0,12.36.81,12.48,12.48,0,0,0,6.29-9.93,14.17,14.17,0,0,0-11.54-.59,13.94,13.94,0,0,0-7.62,8.53" fill="#183153"/><path d="M740.68,555.22a13.39,13.39,0,0,0,5.77,11,12.41,12.41,0,0,0,11.76.2,14.13,14.13,0,0,0-5.47-10.09,13.94,13.94,0,0,0-11.27-2.06" fill="#183153"/><path d="M763.45,552.59a13.51,13.51,0,0,0,12.37-.52A12.47,12.47,0,0,0,781,541.53a13.27,13.27,0,0,0-17.35,7.19,13,13,0,0,0-.8,2.74" fill="#183153"/><path d="M708.43,535.43c-3.32-2.89-5.56-7.89-4.92-11.65a12.46,12.46,0,0,1,7.64-9,13.3,13.3,0,0,1-1.95,20.61" fill="#183153"/><path d="M619.5,519.12a1,1,0,0,1,.13-.3l.46-.86c.42-.73,1.07-1.8,2-3.12a33.67,33.67,0,0,1,9.9-9.38,24.69,24.69,0,0,1,8.9-3.26,21.94,21.94,0,0,1,10.8,1.14,17.58,17.58,0,0,1,9.24,7.56c2.12,3.71,2.8,8.06,4,12.23a22.24,22.24,0,0,0,2.58,5.76,17.58,17.58,0,0,0,4.4,4.33c1.64,1.21,3.37,2.32,4.94,3.59a21.51,21.51,0,0,1,4,4.33A26.94,26.94,0,0,1,685,551.23a35.73,35.73,0,0,1,.55,9.46,72.31,72.31,0,0,1-2.41,13.44c-.42,1.55-.77,2.77-1,3.57a7.68,7.68,0,0,1-.4,1.23,6.81,6.81,0,0,1,.26-1.27c.2-.88.49-2.09.85-3.6a79.1,79.1,0,0,0,2.18-13.41,35.74,35.74,0,0,0-.64-9.29,26.09,26.09,0,0,0-4.08-9.79,20.68,20.68,0,0,0-3.89-4.2c-1.53-1.24-3.26-2.32-4.93-3.56a18.51,18.51,0,0,1-4.59-4.5,22.68,22.68,0,0,1-2.67-6c-1.25-4.24-1.94-8.53-4-12.07a16.87,16.87,0,0,0-8.84-7.3A21.53,21.53,0,0,0,641,502.77a23.64,23.64,0,0,0-8.65,3.1,34.51,34.51,0,0,0-10,9.08c-1,1.28-1.65,2.32-2.11,3A12.59,12.59,0,0,1,619.5,519.12Z" fill="#183153"/><path d="M674,534.37c-1.14-1.06-1.7-.31-3.24,0a9.54,9.54,0,0,0-4.15,2.08,17.52,17.52,0,0,0-5.68,18.38,13.66,13.66,0,0,0,12.48-20.56" fill="#183153"/><path d="M626.84,513c-.58-1.44-1.44-1-2.88-1.44a9.51,9.51,0,0,0-4.65.08,17.53,17.53,0,0,0-13,14.15,13.69,13.69,0,0,0,20-13.1" fill="#183153"/><path d="M684.26,563.36a15.86,15.86,0,0,0-22.39-1.46,16.08,16.08,0,0,0-2.41,2.67,19.5,19.5,0,0,0,12.86,5.07,20,20,0,0,0,13-5.23" fill="#183153"/><path d="M680.39,541.71a16,16,0,0,0,16.45-15.49,15.38,15.38,0,0,0-.3-3.58,14.41,14.41,0,0,0-16.68,18.91" fill="#183153"/><path d="M663.87,516.26a16,16,0,0,0,20.71-9.13,15.7,15.7,0,0,0,.92-3.5,14.34,14.34,0,0,0-22,12.3" fill="#183153"/><path d="M658.28,508a16,16,0,0,0-20.71,9.13,15.7,15.7,0,0,0-.92,3.5,14.42,14.42,0,0,0,22.09-12.27" fill="#183153"/><path d="M651.67,503.47a16,16,0,0,0,8.51-23.5,14.43,14.43,0,0,0-9.07,23.55" fill="#183153"/><path d="M634.7,504.3a16,16,0,0,0-13-21.33,14.35,14.35,0,0,0,12.73,21.77" fill="#183153"/><polygon points="657.84 629.14 663.15 635.71 728.32 635.71 732.76 629.14 657.84 629.14" fill="#5ee0be"/><polygon points="657.84 629.14 663.15 635.71 728.32 635.71 732.76 629.14 657.84 629.14" opacity="0.2"/></g></svg>