<svg id="eecOMji09Fg1" xmlns="http://www.w3.org/2000/svg" xmlns:xlink="http://www.w3.org/1999/xlink" viewBox="0 0 865.76 682.89" shape-rendering="geometricPrecision" text-rendering="geometricPrecision"><path d="M272.92,200.44l-9.36,24.21l24,18.09c0,0,14.63-.26,20.75-2.12s6.39-19,6.39-19l-7.45-21.15-10.91-6.18Z" fill="#f9b499"/><path d="M246.49,108.35c0,0-26.89-4.35-32.11,24.84-1.581254,9.068701.509015,18.393961,5.81,25.92c2.959613,4.117302,4.136639,9.252914,3.265526,14.248176s-3.716977,9.429331-7.895526,12.301824c-.54.36-1.11.71-1.71,1.06c0,0-28.2,4.35-21.67,31.33c0,0,1.74,6.61,5.23,16.58c0,0,.64,14.76-6.21,26.07c0,0-16.43,22.2,9.25,23.51c0,0,5.51-36.56,31.63-51.36c0,0,21.59-10.92,34.35-12.09c1.862724-.156581,3.56787-1.107528,4.68-2.61c1.95-2.67,4.28-7.21,2.8-12.41-11.884991-5.339154-21.076815-15.296662-25.45-27.57s-7.31,1.69-9-8.81c0,0-1.34-6.55,4.32-8.81c0,0-4.26-20.19,8.93-35.31.05,0-6.32-9.3-6.22-16.89Z" fill="#183153"/><path d="M239,136.81c-1.144317,2.052321-2.146665,4.180639-3,6.37-.865145,2.182085-1.60305,4.412494-2.21,6.68-.61099,2.26518-1.098376,4.561903-1.46,6.88-.357454,2.318773-.584478,4.655782-.68,7-.079683,2.334835-.019575,4.672346.18,7l.17,1.74c.06.58.17,1.16.24,1.74.14,1.16.4,2.3.6,3.45.988767,4.568391,2.509121,9.005275,4.53,13.22v0c1.763661,2.800119,3.136363,5.828137,4.08,9c1.017765,3.190411,1.257773,6.577962.7,9.88-.322373,1.654605-.935165,3.239061-1.81,4.68-.889748,1.426436-2.011909,2.693937-3.32,3.75-1.290301,1.065737-2.741724,1.919715-4.3,2.53-.774874.310563-1.570058.567828-2.38.77-.82.21-1.6.34-2.38.56-3.119309.817623-6.066192,2.189449-8.7,4.05-2.624168,1.881005-4.853073,4.259409-6.56,7-.837445,1.384843-1.566294,2.832512-2.18,4.33-.594305,1.509778-1.078896,3.060471-1.45,4.64-.701957,3.179093-1.060678,6.424345-1.07,9.68-.107091-3.269438.157945-6.540451.79-9.75.650092-3.224942,1.829355-6.320083,3.49-9.16c1.698227-2.838284,3.941307-5.312469,6.6-7.28c2.674035-1.956575,5.683631-3.407146,8.88-4.28.8-.23,1.62-.38,2.38-.58.772032-.196771,1.530326-.443968,2.27-.74c1.480028-.588979,2.857167-1.409187,4.08-2.43c1.226913-1.002107,2.278013-2.201916,3.11-3.55.816924-1.354214,1.382663-2.844784,1.67-4.4.509165-3.162029.265923-6.399549-.71-9.45-.898072-3.092501-2.217091-6.046834-3.92-8.78v0v0c-2.026353-4.289063-3.546582-8.799412-4.53-13.44-.476924-2.310556-.810891-4.648327-1-7-.494599-7.083202.294748-14.197491,2.33-21c.666507-2.264578,1.464528-4.488354,2.39-6.66.888577-2.228609,1.948413-4.385056,3.17-6.45Z" opacity="0.2"/><path d="M273.91,205.74c-20.26-8.83-27-30.77-27-30.77-7.8-22.2-.43-39.62-.43-39.62-24.19,38.29,4.18,64.71,4.18,64.71c16.66,16.61-5,26.7-5,26.7s12.45-5,19-5.79c0,0,5.39.69,7.41-4.3c2.129105-3.2201,2.797463-7.190294,1.84-10.93Z" fill="#3f3d56"/><path d="M273.91,205.74c-20.26-8.83-27-30.77-27-30.77-7.8-22.2-.43-39.62-.43-39.62-24.19,38.29,4.18,64.71,4.18,64.71c16.66,16.61-5,26.7-5,26.7s12.45-5,19-5.79c0,0,5.39.69,7.41-4.3c2.129105-3.2201,2.797463-7.190294,1.84-10.93Z" opacity="0.2"/><path d="M381.07,284.21c0,0-8.71-36.27-25.68-49.58c0,0-17.85-15.27-48.53-14.84c0,0-6.08-10.46-3.47-20c0,0,17.18-14.62,5.86-50.39c0,0,14.38,6.23,12,27.34c0,0-1.11,19.7,19.87,40.08l10.42,9.3c0,0,21.79,18.71,28.39,43.2l2.46,7.52c0,0,1.59,3.62,4.79,3.53Z" fill="#183153"/><path d="M381.07,284.21c0,0-8.71-36.27-25.68-49.58c0,0-17.85-15.27-48.53-14.84c0,0-6.08-10.46-3.47-20c0,0,17.18-14.62,5.86-50.39c0,0,14.38,6.23,12,27.34c0,0-1.11,19.7,19.87,40.08l10.42,9.3c0,0,21.79,18.71,28.39,43.2l2.46,7.52c0,0,1.59,3.62,4.79,3.53Z" opacity="0.2"/><path d="M263.56,92.28c1.420896-1.380178,2.941691-2.653635,4.55-3.81c1.606444-1.170213,3.275596-2.251824,5-3.24c1.720119-.982554,3.489067-1.877041,5.3-2.68c1.820708-.800264,3.683438-1.501291,5.58-2.1c3.793481-1.192015,7.70736-1.960034,11.67-2.29c3.968386-.306915,7.958347-.182857,11.9.37v0c2.796091.287205,5.558529.839693,8.25,1.65c2.682436.799594,5.300019,1.802499,7.83,3c2.532063,1.214243,4.963122,2.628738,7.27,4.23c4.598405,3.242151,8.632245,7.218557,11.94,11.77c1.634907,2.283691,3.095696,4.687139,4.37,7.19c2.531579,5.011333,4.416652,10.323811,5.61,15.81.31,1.37.54,2.75.81,4.13.15.68.22,1.38.32,2.07l.28,2.08c.368002,2.778902.571689,5.577099.61,8.38.05,2.8,0,5.61-.24,8.4-.1,1.39-.26,2.8-.37,4.17s-.18,2.76-.2,4.14c-.118001,5.547954.541743,11.085089,1.96,16.45c1.428995,5.343313,3.799437,10.388967,7,14.9c3.248612,4.503336,7.320281,8.351063,12,11.34q1.75,1.11,3.6,2c1.24.63,2.5,1.17,3.78,1.74c2.55,1.15,5.06,2.4,7.52,3.72c4.939038,2.629728,9.666563,5.638761,14.14,9c4.483645,3.365996,8.566931,7.234549,12.17,11.53c3.628548,4.301329,6.407729,9.252275,8.19,14.59c1.722138,5.369966,2.096475,11.081189,1.09,16.63-1.056578,5.505967-3.088512,10.778835-6,15.57-1.438097,2.390528-3.010623,4.697566-4.71,6.91-1.69,2.22-3.52,4.33-5.4,6.39c1.85-2.08,3.66-4.21,5.32-6.44c1.669466-2.245259,3.211881-4.582252,4.62-7c2.846569-4.788128,4.811021-10.048117,5.8-15.53.908596-5.470368.483214-11.079231-1.24-16.35-1.792145-5.2557-4.568205-10.122288-8.18-14.34-3.595296-4.232456-7.665362-8.037448-12.13-11.34-4.46082-3.317333-9.163992-6.295674-14.07-8.91-2.45-1.31-4.94-2.54-7.48-3.67-1.26-.56-2.56-1.12-3.81-1.75s-2.49-1.32-3.68-2.07c-4.756062-3.041793-8.892412-6.957583-12.19-11.54-3.284211-4.591225-5.722456-9.731858-7.2-15.18-1.457927-5.432914-2.131411-11.046404-2-16.67c0-1.41.1-2.81.21-4.21s.28-2.77.38-4.16c.21-2.76.3-5.54.26-8.31-.036236-2.772416-.233233-5.540397-.59-8.29l-.28-2.07c-.09-.68-.16-1.37-.31-2-.26-1.36-.48-2.73-.79-4.09-1.16403-5.423255-3.015665-10.675714-5.51-15.63-1.246181-2.47088-2.676904-4.844275-4.28-7.1-1.624907-2.241552-3.420228-4.354481-5.37-6.32-1.979886-1.94747-4.109778-3.736312-6.37-5.35-4.544356-3.192524-9.566917-5.643048-14.88-7.26-2.640705-.840896-5.356759-1.423625-8.11-1.74v0c-3.906305-.566389-7.861022-.723907-11.8-.47-3.94061.280979-7.837829.998711-11.62,2.14-1.889585.571164-3.748685,1.238705-5.57,2-1.817593.780432-3.593329,1.654949-5.32,2.62-1.723001.965076-3.392142,2.023311-5,3.17-1.633859,1.159459-3.18127,2.436157-4.63,3.82Z" fill="#3f3d56"/><path d="M186,262.45c-.663382-1.37232-1.057173-2.859223-1.16-4.38-.125389-1.51607-.054807-3.041979.21-4.54l.21-1.12c.09-.37.19-.74.29-1.11.17-.74.46-1.44.7-2.17s.59-1.4.88-2.1l1-2v0c.779587-1.122901,1.408298-2.34334,1.87-3.63.456883-1.266995.814627-2.567576,1.07-3.89.478753-2.637961.646565-5.322957.5-8-.05-.67-.08-1.35-.14-2l-.26-2c0-.33-.08-.67-.13-1l-.2-1-.39-2c-.31-1.31-.69-2.6-1-3.91l-1.28-3.83v0c-1.253034-2.577832-2.038551-5.357616-2.32-8.21-.316095-2.860832.047071-5.755885,1.06-8.45.14-.33.26-.67.42-1l.48-1c.343032-.631214.727194-1.239192,1.15-1.82.419303-.580797.869972-1.138292,1.35-1.67.51-.5,1-1,1.54-1.49c2.16939-1.873567,4.619142-3.395382,7.26-4.51v0c2.587647-.543047,5.099488-1.399357,7.48-2.55c2.395366-1.097699,4.529397-2.693109,6.26-4.68c1.695486-2.015266,2.560685-4.600137,2.42-7.23-.23422-2.623583-1.050712-5.161883-2.39-7.43v0c-1.326948-1.596698-2.511475-3.306567-3.54-5.11-1.029756-1.797826-1.931976-3.665755-2.7-5.59-.762143-1.924895-1.380505-3.903653-1.85-5.92-.25-1-.42-2-.6-3s-.28-2-.34-3.09c0-.51-.08-1-.08-1.55s0-1,0-1.55c0-1,0-2.07.14-3.1s.23-2,.37-3.08c.07-.51.19-1,.28-1.52s.19-1,.33-1.52c.986007-4.01871,2.484979-7.893857,4.46-11.53.968532-1.825991,2.061093-3.583444,3.27-5.26c1.236667-1.659606,2.640719-3.187642,4.19-4.56c1.555343-1.368885,3.251498-2.568931,5.06-3.58c1.817474-.992285,3.739167-1.780414,5.73-2.35c6.005337-1.803767,12.470482-1.271553,18.1,1.49c1.84267.924163,3.596685,2.015401,5.24,3.26-1.652552-1.232251-3.41693-2.306948-5.27-3.21-1.855712-.887366-3.813845-1.542317-5.83-1.95-4.048857-.794899-8.230825-.585457-12.18.61-1.967001.586826-3.864716,1.384805-5.66,2.38-1.788417,1.001764-3.464609,2.191861-5,3.55-1.527979,1.367792-2.91492,2.885387-4.14,4.53-1.192306,1.672688-2.271382,3.423263-3.23,5.24-1.949694,3.620101-3.428358,7.474709-4.4,11.47-.14.49-.21,1-.32,1.5s-.21,1-.27,1.52c-.14,1-.3,2-.36,3s-.11,2.05-.13,3.07c0,.52,0,1,0,1.54s0,1,.09,1.53c.06,1,.21,2,.34,3.06s.36,2,.61,3c.469607,1.996752,1.088001,3.955556,1.85,5.86.760725,1.906415,1.659787,3.754673,2.69,5.53c1.012753,1.769276,2.18424,3.442829,3.5,5v0v0c1.37846,2.328183,2.21896,4.9351,2.46,7.63.066433,1.355909-.120076,2.71234-.55,4-.454033,1.282021-1.131117,2.473689-2,3.52-1.781491,2.029789-3.972982,3.658922-6.43,4.78-2.4153,1.161715-4.964491,2.021521-7.59,2.56v0c-2.60387,1.098623-5.022392,2.592912-7.17,4.43-.530784.460919-1.03809.948199-1.52,1.46-.47339.521591-.917409,1.069103-1.33,1.64-.41251.566335-.789886,1.157446-1.13,1.77l-.47.94c-.16.31-.28.65-.41,1-1.002227,2.64109-1.368776,5.480988-1.07,8.29.269303,2.813444,1.037995,5.556351,2.27,8.1v0v0l1.28,3.85c.34,1.31.71,2.61,1,3.93l.39,2l.19,1c.05.33.09.67.13,1l.26,2c.06.67.08,1.35.13,2c.145529,2.705249-.035781,5.418175-.54,8.08-.259618,1.331104-.627508,2.638784-1.1,3.91-.455276,1.2807-1.073703,2.497388-1.84,3.62v0l-1.05,2c-.29.69-.62,1.38-.89,2.09s-.54,1.41-.72,2.15c-.1.37-.21.73-.3,1.1l-.22,1.11c-.269973,1.493923-.350608,3.015913-.24,4.53.101485,1.586869.519707,3.137349,1.23,4.56Z" fill="#3f3d56"/><path d="M230.2,373.78c0,0-42.37,1.74-41.93-23.94c0,0,7.2-55.5,13.87-73.17c0,0,5.8-47.54,64.29-55.91l2.71-.68c0,0,3.77,18.43,23.58,15.6c0,0,14.58-1.74,14.14-15.89c0,0,40.57-3,57.9,25.38c0,0,20.39,32,24.53,75.66q.52,5.52,1.46,11c2.15,12.31,4.38,44.84-32.75,42Z" fill="#5ee0be"/><rect width="412.7" height="7.64" rx="0" ry="0" transform="translate(412.94 590.36)" fill="#ccc"/><rect width="412.7" height="7.64" rx="0" ry="0" transform="translate(40.12 374.02)" fill="#ccc"/><path d="M692.56,395.72l-8.25,16.5c0,0,10.65,19.16,51.89-3.46L728,385.34Z" fill="#f9b499"/><path d="M764.14,536.48c-38.32,14.77-77,11.57-77,11.57l-.4,25.55c17.16,16.76,46.7,22.35,46.7,22.35l2,.45c18.611336,4.094032,38.085538.075348,53.555852-11.051751s25.475122-28.311341,27.514148-47.258249c7.84-72.09-21.17-109-21.17-109-17.56-22.35-60-23.11-60-23.11-37.29,25.58-49.72,3.82-49.72,3.82-21.55.27-45.1,11.71-45.1,11.71-8,5.59-33.53,67.45-33.53,67.45l33.57,95.26l51.08,2.8l12,.79l6.75-15.16" fill="#5ee0be"/><path d="M218.36,274.74L230,372.47c.09217.788916.765788,1.38049,1.56,1.37L355.3,374c.773897-.013474,1.420885-.592358,1.52-1.36l11.95-97.89c.116963-1.017435-.20618-2.036389-.888119-2.800466s-1.657745-1.200529-2.681881-1.199534h-143.27c-1.020091.005634-1.990181.44259-2.670383,1.202815s-1.007012,1.772747-.899617,2.787185Z" fill="#183153"/><path d="M163.17,326.07c.18,4.57-16.07,8.9-36.28,9.68s-36.74-2.3-36.91-6.87c-.008134-.216257.018883-.4324.08-.64c1.27-4.32,16.93-8.29,36.19-9c19-.73,34.77,1.94,36.72,6.07.116273.237613.184251.495933.2.76Z" fill="#ccc"/><path d="M164.71,327.63c.17,4.57-16.7,8.92-37.68,9.73s-38.14-2.25-38.31-6.81c.060425-.937311.556348-1.792223,1.34-2.31-.061117.2076-.088134.423743-.08.64.17,4.57,16.7,7.64,36.91,6.87s36.46-5.11,36.28-9.68c-.011742-.274269-.079822-.543183-.2-.79.927106.454413,1.575891,1.330645,1.74,2.35Z" fill="#183153"/><path d="M164.71,327.63c.17,4.57-16.7,8.92-37.68,9.73s-38.14-2.25-38.31-6.81c.060425-.937311.556348-1.792223,1.34-2.31-.061117.2076-.088134.423743-.08.64.17,4.57,16.7,7.64,36.91,6.87s36.46-5.11,36.28-9.68c-.011742-.274269-.079822-.543183-.2-.79.927106.454413,1.575891,1.330645,1.74,2.35Z" opacity="0.2"/><path d="M164.08,330.07c0,0-4.71,6.88-40.51,8.22c0,0-33.14.66-34.85-6.9c0,0-.24.86-.49,2.34v0c0,0-14.16-9.5-21.61,4.59c0,0-9.48,19,29.21,23v0c4,4.34,10,8.19,18.67,10.73c0,0,23.06,8.7,43.74-13.5c0,.01,9.76-14.11,5.84-28.48ZM91,356.06c-27.31-7.12-19.47-17-19.47-17c3.21-5.11,9.16-2.59,12.75-.37c1.128297.695886,2.304589,1.310766,3.52,1.84.049195,5.454911,1.480441,10.808323,4.16,15.56Z" fill="#183153"/><path d="M755.76,466.63c-.76,5.68-1.17,11.39-1.4,17.09-.11,2.86-.16,5.71-.17,8.56v4.28l.14,4.28c.22,5.7.61,11.4,1.29,17.07.28,2.84.72,5.66,1.12,8.5.16,1.42.45,2.82.68,4.23s.48,2.82.7,4.24c-.37-1.38-.73-2.77-1.08-4.16s-.71-2.78-1-4.19l-.83-4.23-.21-1-.16-1.07-.32-2.13c-.2-1.42-.46-2.84-.6-4.27l-.45-4.28-.11-1.08-.08-1.07-.14-2.15c-.09-1.44-.2-2.87-.23-4.31-.223411-5.744722-.116569-11.497535.32-17.23.393479-5.75094,1.23943-11.461943,2.53-17.08Z" opacity="0.2"/><path d="M646.4,463.44c-.41,6.67-1.14,13.33-2.07,20s-2,13.23-3.43,19.78-3,13.07-5,19.46c-1.949401,6.411882-4.445217,12.644729-7.46,18.63.6-1.56,1.21-3.12,1.84-4.66.33-.77.58-1.57.85-2.36l.8-2.37c.26-.79.56-1.56.8-2.36l.72-2.4c.46-1.6,1-3.17,1.4-4.79l1.31-4.83l1.18-4.85c.41-1.62.77-3.25,1.13-4.87s.75-3.25,1.06-4.89l1-4.9.94-4.91q.93-4.92,1.77-9.85l.42-2.47.41-2.47c.28-1.64.54-3.29.79-4.94.58-3.34,1.05-6.64,1.54-9.95Z" opacity="0.2"/><polygon points="687.05,552.06 634.82,556.43 644.4,579.19 687.05,571.2 687.05,552.06" fill="#f9b499"/><path d="M508.1,587.17l-39.28-90.61c-1.256029-2.870552-.978697-6.181093.737422-8.802661s4.639262-4.20012,7.772578-4.197339h120.86c5.246318.000747,9.956637,3.215034,11.87,8.1l36.34,92.68l69-1.13c.956306-.01078,1.876732.363663,2.553925,1.038975s1.054195,1.594693,1.046075,2.551025v0c0,1.966134-1.593866,3.56-3.56,3.56h-201.27c-2.425773.003481-4.697046-1.190153-6.07-3.19Z" fill="#183153"/><circle r="10.72" transform="translate(546.15 537.23)" fill="#fff"/><path d="M603.69,387.6h-114.15c-3.087272,0-5.59,2.502728-5.59,5.59v47.9c-.000002,1.481642.589261,2.902455,1.637878,3.949196s2.470482,1.633459,3.952122,1.630804h11.57v14.33l10-14.37h92.55c1.48164.002655,2.903505-.584063,3.952122-1.630804s1.63788-2.467554,1.637878-3.949196v-47.9c-.021853-3.059979-2.499987-5.533656-5.56-5.55Z" fill="#183153"/><circle r="15.74" transform="translate(510.14 417.8)" fill="#fff"/><g clip-path="url(#eecOMji09Fg44)"><g><path d="M509.57,419.7l-1.11,2.87l2.84,2.14c.825965-.007108,1.649491-.0908,2.46-.25.72-.22.75-2.25.75-2.25l-.88-2.51-1.29-.73Z" fill="#f9b499"/><ellipse rx="3.98" ry="5.52" transform="matrix(.95138-.308021 0.308021 0.95138 510.204622 415.153646)" fill="#f9b499"/><path d="M506.53,408.28c.33-1.06,1.48-2.61,5.38-2.15c0,0,7.47.1,6.54,8c0,0-1.35,4.17,3.49,6.35c1.128644.495416,2.148194,1.209101,3,2.1.495361.512799.922242,1.087577,1.27,1.71.73555,1.418511.308128,3.162391-1,4.08-.88.61-2.21,1.39-2.68.39c0,0-.16-.55-.45-1.32-.743895-1.954483-1.988897-3.678861-3.61-5-1.38-1.16-3.42-3.33-3.15-6c.070748-1.471846-.937909-2.777167-2.38-3.08-.354482-.077848-.71725-.111438-1.08-.1-2.316156.097791-4.43177-1.307235-5.24-3.48-.223838-.469293-.256119-1.00731-.09-1.5Z" fill="#183153"/><path d="M509.28,407.88c.026048.126245.062849.250029.11.37.02391.059687.054078.116672.09.17l.09.17.11.16c.014387.028026.031113.054787.05.08l.07.08.12.15.13.13c.363386.365818.773619.681899,1.22.94l.34.19c.11009.065935.223581.126019.34.18.24.1.47.22.71.31l.36.14h.09.09l.19.06.73.24c.996122.353164,1.837822,1.042792,2.38,1.95.536096.90211.734546,1.965237.56,3v0c-.029929.332662-.029929.667338,0,1c.040193.336596.100298.670515.18,1c.085089.339857.191977.673882.32,1c.129847.309661.280179.610326.45.9.343531.580172.77156,1.10594,1.27,1.56.50237.449343,1.060246.832463,1.66,1.14-.608011-.297036-1.175879-.670014-1.69-1.11-.509732-.447455-.948122-.970151-1.3-1.55-.359862-.579205-.629609-1.209738-.8-1.87-.08349-.329186-.14694-.663132-.19-1-.028939-.332705-.028939-.667295,0-1v0c.085035-.506455.085035-1.023545,0-1.53-.098781-.500357-.281347-.98044-.54-1.42-.528619-.88853-1.348287-1.566876-2.32-1.92l-.73-.25-.19-.06h-.09-.09l-.36-.14c-.24-.09-.47-.21-.71-.32-.116419-.053981-.22991-.114065-.34-.18l-.34-.19c-.445385-.278906-.852199-.615116-1.21-1l-.14-.14-.12-.16-.06-.07v-.09l-.11-.16-.09-.17-.08-.18c-.066663-.131083-.120255-.268413-.16-.41Z" opacity="0.2"/><path d="M506.44,408.8c-.897409-.136071-1.8114.101211-2.529291.656631s-1.177077,1.380544-1.270709,2.283369c-.187467,1.074374.060841,2.179167.69,3.07.34993.487194.488831,1.094819.385339,1.685665s-.44065,1.115084-.935339,1.454335l-.2.13c0,0-3.34.51-2.57,3.71c0,0,.21.78.62,2c.02671,1.075666-.224737,2.14001-.73,3.09s-1.95,2.62,1.09,2.78c0,0,.65-4.33,3.74-6.08c1.284957-.660387,2.654369-1.141531,4.07-1.43.219611-.018693.420291-.131803.55-.31.336482-.410113.46223-.953791.34-1.47-1.401415-.633899-2.484495-1.810846-3-3.26s-.86.2-1.06-1.05c-.069542-.409391.137781-.815907.51-1-.260302-1.480792.125508-3.002194,1.06-4.18-.427719-.61658-.689456-1.332914-.76-2.08Z" fill="#183153"/><path d="M505.56,412.17c-.270195.488933-.478463,1.009604-.62,1.55-.072002.266553-.128761.536991-.17.81-.04693.274338-.073669.551749-.08.83-.014864.276467-.014864.553533,0,.83v.2.21c.013591.138152.036984.275164.07.41.116222.538614.294059,1.062059.53,1.56v0c.208294.329412.369836.686152.48,1.06.119471.37791.150267.778264.09,1.17-.03552.196286-.110352.383366-.22.55-.10234.171901-.23439.324266-.39.45-.151852.128064-.324288.229497-.51.3-.090205.03898-.183977.069121-.28.09l-.28.07c-.361464.093207-.701186.256273-1,.48-.313933.22052-.579385.502988-.78.83-.102413.161502-.18946.332249-.26.51-.068558.179444-.125345.363167-.17.55-.083251.37438-.126825.756489-.13,1.14-.011177-.385908.02238-.771813.1-1.15.076604-.383177.215082-.751326.41-1.09.205204-.331966.469582-.62346.78-.86.317313-.228066.672936-.397411,1.05-.5l.28-.07.27-.09c.177249-.070946.342518-.168758.49-.29.143332-.118182.26513-.260279.36-.42.099882-.158661.16782-.3353.2-.52.058253-.374584.030902-.757498-.08-1.12-.114319-.351642-.272214-.687588-.47-1v0c-.239345-.507956-.420496-1.041343-.54-1.59-.051477-.277861-.088195-.558254-.11-.84-.014992-.279799-.014992-.560201,0-.84.031584-.559474.12892-1.113286.29-1.65.078385-.265126.171871-.525551.28-.78.114188-.274404.251342-.538676.41-.79Z" opacity="0.2"/><path d="M509.69,420.33c-1.505962-.74254-2.656531-2.051312-3.2-3.64-.555501-1.511068-.573159-3.167432-.05-4.69-2.87,4.53.49,7.66.49,7.66c2,2-.59,3.16-.59,3.16.726551-.300473,1.47991-.531503,2.25-.69.372086.0486.731275-.155484.88-.5.250804-.383932.33051-.854923.22-1.3Z" fill="#3f3d56"/><path d="M509.69,420.33c-1.505962-.74254-2.656531-2.051312-3.2-3.64-.555501-1.511068-.573159-3.167432-.05-4.69-2.87,4.53.49,7.66.49,7.66c2,2-.59,3.16-.59,3.16.726551-.300473,1.47991-.531503,2.25-.69.372086.0486.731275-.155484.88-.5.250804-.383932.33051-.854923.22-1.3Z" opacity="0.2"/><path d="M522.37,429.62c0,0-1-4.29-3-5.87-1.65878-1.21983-3.682555-1.840361-5.74-1.76-.408548-.718133-.55689-1.555207-.42-2.37s2-1.73.7-6c1.123368.655101,1.696759,1.959363,1.42,3.23.098412,1.838705.948108,3.556175,2.35,4.75l1.23,1.1c1.545334,1.382145,2.703452,3.143448,3.36,5.11l.29.89c0,0,.19.43.57.42Z" fill="#183153"/><path d="M522.37,429.62c0,0-1-4.29-3-5.87-1.65878-1.21983-3.682555-1.840361-5.74-1.76-.408548-.718133-.55689-1.555207-.42-2.37s2-1.73.7-6c1.123368.655101,1.696759,1.959363,1.42,3.23.098412,1.838705.948108,3.556175,2.35,4.75l1.23,1.1c1.545334,1.382145,2.703452,3.143448,3.36,5.11l.29.89c0,0,.19.43.57.42Z" opacity="0.2"/><path d="M508.46,406.9c.168259-.163553.348786-.313993.54-.45.188154-.139419.385243-.266358.59-.38.20158-.122491.412188-.229467.63-.32.213467-.099653.434081-.183219.66-.25.448844-.139791.911568-.230324,1.38-.27.468672-.049968.941328-.049968,1.41,0v0c.338905.034912.673737.101878,1,.2.320702.090276.632101.210818.93.36.300762.141149.588536.308459.86.5.270836.187943.525096.398711.76.63.472841.471285.867768,1.014732,1.17,1.61.298066.59297.51983,1.221302.66,1.87c0,.17.07.33.1.49.004804.083264.004804.166736,0,.25v.24c.048536.331089.071936.665378.07,1c.020369.333022.020369.666978,0,1c0,.16,0,.33,0,.49s0,.33,0,.49c-.01582.658241.065041,1.31524.24,1.95.169254.631558.450368,1.227654.83,1.76.380428.532339.858996.987148,1.41,1.34.13772.089668.281385.169853.43.24.14.08.29.14.44.21.31.14.6.28.89.44.585996.314109,1.147575.671781,1.68,1.07.529487.397893,1.012525.854095,1.44,1.36.43844.509161.777623,1.095947,1,1.73.207708.645725.252369,1.33282.13,2-.129046.65116-.37284,1.274189-.72,1.84-.162344.286842-.346204.560961-.55.82-.2.26-.42.51-.64.76.22-.25.43-.5.63-.77.197173-.26163.377535-.535514.54-.82.337811-.567315.571486-1.190449.69-1.84.109226-.648554.061215-1.313849-.14-1.94-.222942-.624753-.562262-1.201597-1-1.7-.425393-.501971-.908762-.951773-1.44-1.34-.525888-.391615-1.080825-.742629-1.66-1.05-.29-.16-.59-.31-.89-.44s-.3-.13-.45-.21c-.148615-.070147-.29228-.150332-.43-.24-.566296-.359995-1.058479-.825023-1.45-1.37-.386207-.542147-.673934-1.148065-.85-1.79-.176005-.651609-.256841-1.325249-.24-2c0-.16,0-.33,0-.5s0-.32,0-.49c0-.33,0-.65,0-1-.00222-.334476-.0256-.668477-.07-1v-.25c.004804-.079928.004804-.160072,0-.24l-.09-.49c-.141328-.640606-.359578-1.261778-.65-1.85-.154471-.289139-.324728-.569562-.51-.84-.19417-.262611-.408126-.509998-.64-.74-.231249-.234377-.482168-.448495-.75-.64-.268265-.185635-.548921-.352692-.84-.5-.298198-.140609-.605566-.260884-.92-.36-.32583-.099845-.660832-.166845-1-.2v0c-.463964-.061757-.932813-.078502-1.4-.05-.46505.028007-.925032.111946-1.37.25-.224214.067898-.444544.148018-.66.24-.215741.091232-.426085.194734-.63.31-.209356.111253-.409936.238287-.6.38-.186406.152514-.360296.319716-.52.5Z" fill="#183153"/><path d="M499.28,427c-.076873-.159643-.121071-.333038-.13-.51-.024412-.179172-.024412-.360828,0-.54v-.13-.14c.022105-.084725.048812-.168182.08-.25.030589-.085877.067352-.169429.11-.25l.12-.24v0c.089695-.132848.160379-.277582.21-.43.058408-.148667.101954-.302752.13-.46.055097-.31347.07522-.632089.06-.95c0-.08,0-.16,0-.24v-.23c.004817-.039855.004817-.080145,0-.12v-.12l-.05-.23c0-.16-.08-.31-.12-.47l-.15-.45v0c-.153695-.312784-.245381-.652365-.27-1-.040517-.338133.000633-.681053.12-1l.05-.12.06-.11c.039458-.077679.086343-.151356.14-.22.044379-.067575.09457-.131149.15-.19.07-.06.12-.13.19-.18.256097-.224628.546418-.406922.86-.54v0c.308923-.059084.608348-.160013.89-.3.282137-.130035.534141-.317336.74-.55.096179-.11943.170643-.254818.22-.4.049983-.147913.07037-.304215.06-.46-.023407-.31116-.119296-.612526-.28-.88v0c-.154784-.190552-.29201-.394718-.41-.61-.126655-.209735-.233772-.430664-.32-.66-.092828-.226753-.16642-.460912-.22-.7c0-.12-.05-.24-.07-.36-.010342-.123117-.010342-.246883,0-.37-.004963-.059897-.004963-.120103,0-.18c0-.06,0-.12,0-.18s0-.25,0-.37s0-.24,0-.36s0-.13,0-.19c-.005681-.056524-.005681-.113476,0-.17.111793-.477712.286661-.938422.52-1.37.114667-.215924.245017-.423146.39-.62.145345-.19863.313121-.379828.5-.54.36136-.331402.796842-.571431,1.27-.7.470314-.141686.968224-.165724,1.45-.07.24137.054294.476093.13477.7.24.216769.113202.424101.243621.62.39-.195637-.149082-.406873-.276494-.63-.38-.219022-.10634-.450978-.183659-.69-.23-.47837-.096542-.973249-.072486-1.44.07-.233036.06817-.457754.162082-.67.28-.210622.119282-.408341.260031-.59.42-.183687.160425-.348121.341639-.49.54-.147278.195281-.277745.402689-.39.62-.223027.429249-.39744.882053-.52,1.35v.18c0,.06,0,.12,0,.18s0,.24,0,.36s0,.25,0,.37s0,.12,0,.18c-.004963.059897-.004963.120103,0,.18c0,.12,0,.24,0,.36s0,.24.07.36c.058205.234552.131696.465045.22.69.090364.227538.197319.448131.32.66.119268.208203.256454.405617.41.59v0c.161648.275036.260665.58233.29.9.006933.159701-.016829.31925-.07.47-.048169.153819-.126341.296568-.23.42-.211694.239967-.470357.433964-.76.57-.287514.134156-.589496.234816-.9.3v0c-.305379.128516-.588799.303966-.84.52-.07.05-.12.12-.18.17l-.16.2c-.049109.066256-.092593.1365-.13.21l-.06.11c-.014761.037503-.03145.074219-.05.11-.11982.31886-.164311.661102-.13,1c.035096.345784.126291.683541.27,1v0l.16.45.12.47v.23.12c0,0,0,.08,0,.12v.24c0,.08,0,.16,0,.24.019894.334957-.003635.671081-.07,1-.029334.156949-.072845.310913-.13.46-.048951.154554-.123301.299875-.22.43v0l-.13.24-.1.24c-.034448.085062-.064488.171844-.09.26v.13.13c-.019897.17945-.019897.36055,0,.54.036757.166142.100972.324989.19.47Z" fill="#183153"/><path d="M504.51,440.22c0,0-5,.21-5-2.83c0,0,.85-6.57,1.64-8.66c0,0,.69-5.63,7.61-6.62l.32-.08c.275439,1.27054,1.512437,2.090772,2.79,1.85.963336-.103008,1.690645-.92123,1.68-1.89s4.8-.35,6.85,3c1.599754,2.757828,2.58871,5.827,2.9,9q.06.65.18,1.29c.25,1.46.51,5.31-3.88,5Z" fill="#5ee0be"/><ellipse rx="0.77" ry="1.08" transform="matrix(.97-.25 0.25 0.97 506.073262 419.379525)" fill="#f9b499"/></g><clipPath id="eecOMji09Fg44"><circle r="15.74" transform="translate(510.14 417.8)" fill="#fff"/></clipPath></g><rect width="65.95" height="2.95" rx="0" ry="0" transform="translate(531.78 404.96)" fill="#fff"/><rect width="65.95" height="2.95" rx="0" ry="0" transform="translate(531.78 427.7)" fill="#fff"/><rect width="15.18" height="2.95" rx="0" ry="0" transform="translate(531.78 412.45)" fill="#fff"/><rect width="34.3" height="2.95" rx="0" ry="0" transform="translate(531.78 419.93)" fill="#fff"/><rect width="27.4" height="2.95" rx="0" ry="0" transform="translate(570.33 420.07)" fill="#fff"/><rect width="44.7" height="2.95" rx="0" ry="0" transform="translate(553.03 412.45)" fill="#fff"/><path d="M409.09,107.35h132.44c1.48164-.002655,2.903505.584063,3.952122,1.630804s1.63788,2.467554,1.637878,3.949196v56.57c.000002,1.481642-.589261,2.902455-1.637878,3.949196s-2.470482,1.633459-3.952122,1.630804h-102L428.11,191.4v-16.32h-19c-1.48164.002655-2.903505-.584063-3.952122-1.630804s-1.63788-2.467554-1.637878-3.949196v-56.57c-.000005-3.077848,2.492157-5.574484,5.57-5.58Z" fill="#183153"/><circle r="20.36" transform="translate(516.25 142.15)" fill="#fff"/><g clip-path="url(#eecOMji09Fg62)"><g><path d="M513.31,143.23l-1.22,2.45c0,0,1.58,2.85,7.71-.51l-1.23-3.48Z" fill="#f9b499"/><path d="M524,164.15c-3.66177,1.339039-7.556424,1.924087-11.45,1.72l-.06,3.8c2.55,2.49,6.94,3.32,6.94,3.32l.3.07c2.765635.597343,5.654875-.004859,7.95158-1.657343s3.785883-4.200562,4.09842-7.012657c1.16-10.71-3.15-16.2-3.15-16.2-2.61-3.32-8.93-3.43-8.93-3.43-5.54,3.8-7.38.57-7.38.57-2.325598.156519-4.6014.746667-6.71,1.74-1.18.83-5,10-5,10l5,14.16l7.59.42l1.78.12l1-2.26" fill="#5ee0be"/><path d="M508.4,136c-.368106-1.239153-.543489-2.52754-.52-3.82s-2.45.29,0-2.54c0,0,.17-.07-.27-.09c0,0-1.69-.12,1.08-1.84c2.8671-1.786879,6.377388-2.215141,9.59-1.17s.51-1.42,1.78-1c0,0,.39.64-.72,1.27c0,0,1.43-.12,1.63.79c0,0,0,.36-.87.24c0,0,3.28,1.14,1.89,7c0,0-1.85-.32-1.5,2.33c0,0-2,.83-2.25-2.21l-.16-3.61c0,0-5.3,2.74-4.83.28-1.377653.798017-2.835741,1.44829-4.35,1.94l-.23,2.42Z" fill="#183153"/><path d="M508.65,136c0,0,.5,8.43,6.88,7.78c1.543497-.191684,2.942383-1.003649,3.874388-2.248837s1.316754-2.816219,1.065612-4.351163l-.31-3.87-.92-3.68-7.3.62-2.88,1.87-.62,1.84Z" fill="#f9b499"/><path d="M522.31,135c0,0,1.6.92,0,2.87-.470604.485336-1.20771.595902-1.8.27v-1c0,0-.38-1.62.66-2.18.36245-.179676.791035-.164638,1.14.04Z" fill="#f9b499"/><ellipse rx="1.25" ry="1.44" transform="translate(508.8 137.4)" fill="#f9b499"/></g><clipPath id="eecOMji09Fg62"><circle r="20.36" transform="translate(516.25 142.15)" fill="#fff"/></clipPath></g><rect width="26" height="2.95" rx="0" ry="0" transform="matrix(-1 0 0-1 491.24 129.95)" fill="#fff"/><rect width="44.63" height="2.95" rx="0" ry="0" transform="matrix(-1 0 0-1 460.23 129.95)" fill="#fff"/><rect width="75.63" height="2.95" rx="0" ry="0" transform="matrix(-1 0 0-1 491.23 157.29)" fill="#fff"/><rect width="17.09" height="2.48" rx="0" ry="0" transform="matrix(-1 0 0-1 491.24 139.06)" fill="#fff"/><rect width="22.54" height="2.95" rx="0" ry="0" transform="matrix(-1 0 0-1 470.48 139.07)" fill="#fff"/><rect width="37.81" height="2.95" rx="0" ry="0" transform="matrix(-1 0 0-1 491.24 148.19)" fill="#fff"/><rect width="30.97" height="2.95" rx="0" ry="0" transform="matrix(-1 0 0-1 446.57 148.19)" fill="#fff"/><path d="M520.25,232c-1.65-.47-2.68-.68-2.69-.69l.09-.45c0,0,1.06.22,2.72.69Z" fill="#ccc"/><path d="M594.5,323.38l-.41-.23c.90971-1.595716,1.721217-3.245447,2.43-4.94l.43.17c-.713369,1.715327-1.531581,3.385147-2.45,5Zm4.25-10.27l-.45-.12c.47598-1.774848.836732-3.578609,1.08-5.4l.46.06c-.241759,1.842173-.605897,3.666207-1.09,5.46Zm1.47-11h-.47v-.17c-.00285-1.784705-.109698-3.567727-.32-5.34h.47c.21033,1.789009.317175,3.588671.32,5.39Zm-1.75-10.94c-.420143-1.790192-.937577-3.556147-1.55-5.29l.44-.16c.619074,1.753831,1.143167,3.539755,1.57,5.35Zm-3.64-10.4c-.72774-1.583884-1.566496-3.114362-2.51-4.58l-.16-.25.39-.26.16.25c.953812,1.485555,1.80255,3.036005,2.54,4.64Zm-5.79-9.4c-1.11-1.52-2.25-3-3.4-4.35l.35-.3c1.16,1.38,2.31,2.85,3.43,4.38Zm-54.35-.26c-.974815-.599176-1.843306-1.356149-2.57-2.24-.4876-.562445-.922746-1.168301-1.3-1.81l.4-.24c.363765.619365.782092,1.205023,1.25,1.75.699239.837547,1.526037,1.55973,2.45,2.14Zm5.48,0l-.24-.4c1.5157-1.014223,2.786468-2.353312,3.72-3.92l.39.26c-.975266,1.616363-2.297031,2.99619-3.87,4.04Zm41.75-8.16c-1.32-1.33-2.69-2.59-4.06-3.74l.3-.35c1.38,1.15,2.76,2.42,4.09,3.77Zm-35.32-.88l-.43-.17c.15-.37.22-.58.23-.58.234754-1.320507.3552-2.658797.36-4c0-.29,0-.57,0-.84h.47c0,.28,0,.57,0,.86-.000728,1.368801-.127935,2.734607-.38,4.08-.072438.214162-.155883.424441-.25.63Zm-16.29-.4l-.45-.1c.458169-1.842657,1.392741-3.532472,2.71-4.9l.35.31c-1.260851,1.303549-2.160385,2.913062-2.61,4.67Zm43.14-5.76c-1.530311-1.013932-3.119807-1.935573-4.76-2.76l.2-.42c1.660158.83436,3.269624,1.76598,4.82,2.79Zm-36.36-2.48l-.26-.38c1.006241-.677372,2.051371-1.295101,3.13-1.85.599391-.277105,1.213664-.520812,1.84-.73l.16.44c-.599731.199042-1.187389.43277-1.76.7v0c-1.076286.52878-2.115352,1.130168-3.11,1.8Zm8.65-2.27c-.599957-1.726032-1.434442-3.361353-2.48-4.86l.38-.27c1.073034,1.541654,1.927791,3.224247,2.54,5ZM563.6,251c-1.744843-.576628-3.529631-1.024497-5.34-1.34l.08-.46c1.831765.316298,3.636932.770933,5.4,1.36Zm-16.3-1.44l-.07-.46c1.720763-.264306,3.459058-.398021,5.2-.4h.36v.47h-.35c-1.721548.008467-3.439914.148878-5.14.42Zm-7.65-7.44c-1.354834-1.239869-2.80607-2.370095-4.34-3.38l.26-.39c1.552696,1.024107,3.020738,2.171119,4.39,3.43ZM530.54,236c-1.6-.8-3.3-1.55-5.06-2.22l.17-.44c1.77.68,3.49,1.44,5.09,2.24Z" fill="#ccc"/><path d="M589.76,330.29l-.36-.29c.59-.73,1.16-1.47,1.7-2.21l.37.28c-.53.74-1.11,1.49-1.71,2.22Z" fill="#ccc"/><polygon points="480.8,243.5 448.06,210.03 517.6,210.03 503.11,222.23 452.02,211.19 498.85,228.09 492.76,233.28 480.8,243.5" fill="#ccc"/><polygon style="mix-blend-mode:hard-light" points="505.24,242.26 492.76,233.36 498.85,228.16 452.02,211.26 503.11,222.3 505.24,242.26" paint-order="stroke fill markers" fill="#ccc"/><polygon points="505.24,242.26 492.76,233.36 498.85,228.16 452.02,211.26 503.11,222.3 505.24,242.26" opacity="0.2"/><path d="M274.16,211.38c0,0,1.06-3.36-.25-5.64c0,0,14.2,5.17,22.52-.63c0,0-8.28,7.76-22.27,6.27Z" fill="#f4a48e"/><ellipse rx="33.65" ry="46.63" transform="matrix(.95138-.308021 0.308021 0.95138 278.168338 162.374964)" fill="#f9b499"/><path d="M247.26,103.9c2.81-8.88,12.49-22,45.46-18.15c0,0,63.1.87,55.27,67.46c0,0-11.48,35.2,29.43,53.58c9.53868,4.198996,18.153667,10.241381,25.35,17.78c4.18801,4.341104,7.788703,9.21263,10.71,14.49c6.250059,11.974218,2.616221,26.728116-8.48,34.43-7.4,5.18-18.62,11.76-22.59,3.32c0,0-1.35-4.67-3.8-11.19-6.296253-16.584402-16.808865-31.240017-30.5-42.52-11.74-9.74-28.95-28.11-26.63-50.74c0,0,1.45-21-20.15-26-2.98536-.662587-6.04512-.928214-9.1-.79-7.59.27-32.34-1.14-44.27-29.43-1.687504-3.865499-1.935811-8.207318-.7-12.24Z" fill="#183153"/><path d="M270.52,100.55c.165673,1.076482.475102,2.125853.92,3.12.24.49.43,1,.7,1.48l.8,1.42.92,1.35c.15.22.29.46.46.67l.52.63l1,1.27l1.13,1.17c3.088533,3.070339,6.552633,5.738133,10.31,7.94.93.55,1.9,1.05,2.85,1.57s1.9,1.06,2.9,1.49c2,.89,3.93,1.88,6,2.61l3,1.19.76.29c.25.1.51.18.77.26l1.55.51l6.23,2c8.423495,2.9877,15.544272,8.814433,20.14,16.48c2.283877,3.7965,3.865763,7.973085,4.67,12.33.796452,4.354922.823529,8.815731.08,13.18v0c-.132998,2.820645-.025945,5.647492.32,8.45.326122,2.812056.843995,5.598545,1.55,8.34.705464,2.746381,1.59412,5.442418,2.66,8.07c1.081653,2.619938,2.348178,5.159672,3.79,7.6c2.91896,4.878109,6.537451,9.301832,10.74,13.13c4.244533,3.789752,8.947962,7.031758,14,9.65-5.149247-2.490895-9.952831-5.640621-14.29-9.37-4.307263-3.782219-8.016089-8.195722-11-13.09-2.989275-4.904748-5.243248-10.221292-6.69-15.78-.731542-2.772638-1.269505-5.592766-1.61-8.44-.360421-2.858246-.480842-5.741655-.36-8.62v0v0c1.433745-8.597498-.220529-17.425015-4.67-24.92-4.456707-7.497453-11.377005-13.216065-19.58-16.18l-6.2-2.1-1.55-.53-.78-.26-.76-.31-3-1.23c-2.05-.76-4-1.78-6-2.7-1-.45-1.95-1-2.91-1.53s-1.92-1-2.86-1.62c-3.755029-2.273374-7.200271-5.022845-10.25-8.18l-1.12-1.2-1-1.3-.51-.65c-.161462-.21887-.311657-.445831-.45-.68l-.9-1.37-.8-1.49c-.26-.48-.44-1-.67-1.5-.403368-1.011115-.675582-2.069726-.81-3.15Z" opacity="0.2"/><ellipse rx="6.53" ry="9.11" transform="matrix(.967135-.254264 0.254264 0.967135 246.152391 169.366885)" fill="#f9b499"/><path d="M689.14,402.57l2.34-4.68c0,0,18.28,4.38,31.23-3.88c0-.01-16.2,16.21-33.57,8.56Z" fill="#f4a48e"/><path d="M659.48,347.08c0,0-4.27-14.05-3.5-25.7c0,0-16.49,1.94-.09-17.08c0,0,1.16-.51-1.84-.65c0,0-11.38-.79,7.25-12.37c0,0,28.34-19.82,64.52-7.85c0,0,3.46-9.58,12-6.92c0,0,2.66,4.26-4.79,8.52c0,0,9.58-.8,10.91,5.32c0,0,.26,2.39-5.86,1.6c0,0,22.09,7.71,12.78,47.36c0,0-12.51-2.13-10.12,15.7c0,0-13.57,5.59-15.16-14.9l-1.07-24.23c0,0-35.65,18.37-32.46,1.88c0,0-20,11.17-29.27,13l-1.6,16.3Z" fill="#183153"/><path d="M661.16,347.09c0,0,3.4,56.68,46.3,52.29c0,0,37.19-4.33,33.26-44.37l-2.12-26.08-6.19-24.74-49.09,4.19L664,321l-4.19,12.37Z" fill="#f9b499"/><path d="M753.13,340.31c0,0,10.74,6.18,0,19.35c0,0-4.71,5.39-12.12,1.8l-.29-6.45c0,0-2.54-10.91,4.45-14.7c0,0,4.33-2.5,7.96,0Z" fill="#f9b499"/><ellipse rx="8.38" ry="9.71" transform="translate(662.16 356.47)" fill="#f9b499"/></svg>
